<svg width="696" height="100" viewBox="0 0 696 100" fill="none" xmlns="http://www.w3.org/2000/svg">
<path d="M13.1788 93.5762V9.27152L0 5.49669V3.57616H26.8874L83.1126 80L79.6026 93.6424V8.27814L66.4238 5.49669V3.57616H95.8278V5.49669L83.9735 8.27814V99.6026H81.4569L15.6954 10.7285L17.5497 8.21192V93.5762L30.7285 96.3576V98.2781H1.3245V96.3576L13.1788 93.5762Z" fill="black"/>
<path d="M132.968 29.1391C137.603 29.1391 141.643 30.1104 145.087 32.053C148.531 33.9514 151.268 36.777 153.299 40.5298C155.33 44.2384 156.544 48.83 156.941 54.3046H113.1V50.4636H149.656L144.491 53.1126C144.049 48.3444 143.255 44.4371 142.107 41.3907C141.003 38.3444 139.524 36.0927 137.67 34.6358C135.86 33.1347 133.63 32.3841 130.981 32.3841C127.405 32.3841 124.336 33.4216 121.776 35.4967C119.215 37.5717 117.25 40.596 115.882 44.5695C114.513 48.4989 113.829 53.2671 113.829 58.8742C113.829 66.2472 114.778 72.2516 116.676 76.8874C118.619 81.479 121.422 84.8344 125.087 86.9536C128.751 89.0728 133.211 90.1324 138.464 90.1324C140.893 90.1324 143.277 89.8013 145.617 89.1391C147.957 88.4768 150.142 87.4834 152.173 86.1589C154.248 84.8344 156.014 83.1788 157.471 81.192L158.531 81.9205C155.793 86.2914 153.034 89.7792 150.252 92.3841C147.515 94.9448 144.623 96.7991 141.577 97.947C138.575 99.0508 135.286 99.6026 131.709 99.6026C125.97 99.6026 120.782 98.3223 116.147 95.7616C111.555 93.1567 107.913 89.3377 105.219 84.3046C102.57 79.2274 101.246 72.9801 101.246 65.5629C101.246 58.9845 102.482 52.936 104.954 47.4172C107.471 41.8985 111.091 37.4834 115.815 34.1722C120.584 30.8168 126.301 29.1391 132.968 29.1391Z" fill="black"/>
<path d="M250.766 34.6358L240.898 32.649V30.4636H264.938V32.649L256.395 34.5695L237.256 100H235.534L209.507 45.3642H213.415L190.766 100H189.044L168.646 35.1656L160.17 32.649V30.4636H191.362V32.649L181.759 35.0331L196.461 83.9735L193.415 86.4901L213.945 28.4768H215.997L241.56 82.9801L238.315 86.4901L250.766 34.6358Z" fill="black"/>
<path d="M293.605 29.1391C296.607 29.1391 299.323 29.4702 301.751 30.1325C304.179 30.7505 306.674 31.6998 309.234 32.9801L311.287 51.1258H309.234L300.691 33.0464L305.857 39.0066C303.473 36.4459 301.265 34.6578 299.234 33.6424C297.247 32.5828 294.819 32.053 291.949 32.053C288.108 32.053 285.128 32.936 283.009 34.702C280.89 36.468 279.83 39.0287 279.83 42.3841C279.83 44.1943 280.183 45.872 280.89 47.4172C281.596 48.9625 283.053 50.5077 285.261 52.053C287.512 53.5541 290.956 55.2097 295.592 57.0199C299.036 58.3444 301.883 59.7792 304.135 61.3245C306.431 62.8698 308.219 64.5254 309.499 66.2914C310.824 68.0132 311.751 69.8896 312.281 71.9205C312.81 73.9073 313.075 76.0486 313.075 78.3444C313.075 82.5386 311.905 86.2472 309.565 89.4702C307.27 92.649 304.223 95.1435 300.426 96.9536C296.629 98.7196 292.457 99.6026 287.91 99.6026C284.554 99.6026 281.53 99.2715 278.837 98.6093C276.144 97.947 273.561 96.9536 271.089 95.6291L267.314 74.7682H269.632L280.625 96.2914L277.314 92.7814C278.462 93.6203 279.654 94.3267 280.89 94.9007C282.17 95.4305 283.473 95.8499 284.797 96.1589C286.166 96.4238 287.534 96.5563 288.903 96.5563C292.612 96.5563 295.967 95.4746 298.969 93.3112C301.972 91.1037 303.473 87.7925 303.473 83.3775C303.473 81.6998 303.208 80.1545 302.678 78.7417C302.148 77.3289 301.265 76.0044 300.029 74.7682C298.793 73.4879 297.115 72.2517 294.996 71.0596C292.877 69.8675 290.206 68.6755 286.983 67.4834C282.7 65.8499 279.345 64.0397 276.916 62.053C274.488 60.0662 272.766 57.8587 271.751 55.4305C270.779 53.0022 270.294 50.3311 270.294 47.4172C270.294 43.4879 271.376 40.1766 273.539 37.4834C275.702 34.7461 278.55 32.6711 282.082 31.2583C285.614 29.8455 289.455 29.1391 293.605 29.1391Z" fill="black"/>
<path d="M363.797 29.2715C365.739 29.2715 367.284 29.8234 368.432 30.9271C369.58 32.0309 370.154 33.5541 370.154 35.4967C370.154 37.8366 369.426 39.7351 367.969 41.1921C366.556 42.6049 364.746 43.3113 362.538 43.3113C361.567 43.3113 360.574 43.2009 359.558 42.9801C358.587 42.7152 357.549 42.4724 356.446 42.2517C355.342 41.9868 354.106 41.8543 352.737 41.8543C351.457 41.8543 350.242 42.0971 349.095 42.5828C347.947 43.0243 346.821 43.6424 345.717 44.4371C344.613 45.2318 343.465 46.181 342.273 47.2848V44.3709C345.585 40.883 348.366 38.1236 350.618 36.0927C352.914 34.0618 354.834 32.5607 356.379 31.5894C357.925 30.6181 359.271 30 360.419 29.7351C361.567 29.426 362.693 29.2715 363.797 29.2715ZM343.068 94.5033L353.863 96.4901V98.2781H321.412V96.4901L330.883 94.5033V41.5894C330.309 41.2362 329.602 40.7947 328.763 40.2649C327.925 39.7351 326.887 39.0949 325.651 38.3444C324.459 37.5497 323.046 36.6446 321.412 35.6291V34.4371L342.803 28.4106H343.068V94.5033Z" fill="black"/>
<path d="M405.241 29.1391C409.877 29.1391 413.917 30.1104 417.36 32.053C420.804 33.9514 423.541 36.777 425.572 40.5298C427.603 44.2384 428.817 48.83 429.215 54.3046H385.374V50.4636H421.93L416.764 53.1126C416.323 48.3444 415.528 44.4371 414.38 41.3907C413.276 38.3444 411.797 36.0927 409.943 34.6358C408.133 33.1347 405.903 32.3841 403.254 32.3841C399.678 32.3841 396.61 33.4216 394.049 35.4967C391.488 37.5717 389.524 40.596 388.155 44.5695C386.786 48.4989 386.102 53.2671 386.102 58.8742C386.102 66.2472 387.051 72.2516 388.95 76.8874C390.892 81.479 393.696 84.8344 397.36 86.9536C401.025 89.0728 405.484 90.1324 410.738 90.1324C413.166 90.1324 415.55 89.8013 417.89 89.1391C420.23 88.4768 422.415 87.4834 424.446 86.1589C426.521 84.8344 428.287 83.1788 429.744 81.192L430.804 81.9205C428.067 86.2914 425.307 89.7792 422.526 92.3841C419.789 94.9448 416.897 96.7991 413.85 97.947C410.848 99.0508 407.559 99.6026 403.983 99.6026C398.243 99.6026 393.056 98.3223 388.42 95.7616C383.828 93.1567 380.186 89.3377 377.493 84.3046C374.844 79.2274 373.519 72.9801 373.519 65.5629C373.519 58.9845 374.755 52.936 377.228 47.4172C379.744 41.8985 383.365 37.4834 388.089 34.1722C392.857 30.8168 398.574 29.1391 405.241 29.1391Z" fill="black"/>
<path d="M480.561 54.1722L481.289 56.9536C475.064 58.8962 470.009 60.7505 466.124 62.5166C462.283 64.2826 459.347 66.0486 457.316 67.8146C455.285 69.5806 453.894 71.4349 453.144 73.3775C452.393 75.3201 452.018 77.4614 452.018 79.8013C452.018 83.5982 453.121 86.468 455.329 88.4106C457.536 90.309 460.23 91.2583 463.408 91.2583C465.969 91.2583 468.199 90.7726 470.097 89.8013C471.996 88.7859 473.475 87.3289 474.534 85.4305C475.638 83.4879 476.19 81.1258 476.19 78.3444V47.947C476.19 43.3996 475.064 39.9558 472.812 37.6159C470.605 35.2759 467.227 34.106 462.68 34.106C460.517 34.106 458.331 34.2826 456.124 34.6358C453.96 34.9448 452.261 35.4084 451.024 36.0265L454.534 33.3775C454.402 35.011 454.181 36.7108 453.872 38.4768C453.607 40.1987 453.254 41.766 452.812 43.1788C452.415 44.5916 451.929 45.6512 451.355 46.3576C450.782 47.064 449.899 47.6159 448.707 48.0132C447.559 48.4106 446.367 48.6093 445.13 48.6093C443.541 48.6093 442.261 48.3002 441.289 47.6821C440.362 47.0199 439.899 46.0044 439.899 44.6358C439.899 42.7815 440.782 40.9492 442.548 39.1391C444.314 37.2848 446.587 35.6071 449.369 34.106C452.194 32.6049 455.219 31.4128 458.442 30.5298C461.709 29.6026 464.821 29.1391 467.779 29.1391C472.768 29.1391 476.764 29.8675 479.766 31.3245C482.768 32.7815 484.954 34.8344 486.322 37.4834C487.691 40.0883 488.375 43.1567 488.375 46.6887V85.9603C488.375 87.4172 488.596 88.5872 489.038 89.4702C489.523 90.3532 490.186 90.9934 491.024 91.3907C491.863 91.7881 492.812 91.9867 493.872 91.9867C495.373 91.9867 496.852 91.7439 498.309 91.2583C499.81 90.7726 501.356 89.9779 502.945 88.8742V90.6622C499.678 94.5475 496.786 97.0199 494.269 98.0795C491.753 99.0949 489.17 99.6026 486.521 99.6026C483.916 99.6026 481.863 99.0287 480.362 97.8808C478.861 96.6887 477.779 94.989 477.117 92.7814C476.499 90.5739 476.124 87.9249 475.991 84.8344H476.19C475.439 87.66 474.225 90.1987 472.548 92.4503C470.87 94.6578 468.839 96.4018 466.455 97.6821C464.071 98.9625 461.444 99.6026 458.574 99.6026C453.099 99.6026 448.53 98.1457 444.865 95.2318C441.201 92.3179 439.369 88.0795 439.369 82.5165C439.369 79.6026 439.854 77.0419 440.826 74.8344C441.841 72.5828 443.762 70.4415 446.587 68.4106C449.457 66.3797 453.607 64.2384 459.038 61.9868C464.512 59.7351 471.687 57.1302 480.561 54.1722Z" fill="black"/>
<path d="M554.998 47.2185C554.998 42.8918 553.408 39.3377 550.23 36.5563C547.051 33.7307 543.121 32.3179 538.442 32.3179C534.115 32.3179 530.428 33.4879 527.382 35.8278C524.336 38.1236 522.018 41.5011 520.428 45.9603C518.839 50.4194 518.044 55.894 518.044 62.3841C518.044 68.6976 518.817 73.9514 520.362 78.1457C521.907 82.2958 524.225 85.4084 527.316 87.4834C530.406 89.5143 534.292 90.5298 538.971 90.5298C542.724 90.5298 546.19 89.8896 549.369 88.6093C552.592 87.3289 555.682 85.1214 558.64 81.9867L559.634 83.3113C556.852 86.4459 554.269 89.0728 551.885 91.192C549.501 93.2671 547.25 94.9227 545.13 96.1589C543.011 97.3951 540.98 98.2781 539.038 98.8079C537.095 99.3377 535.219 99.6026 533.409 99.6026C527.625 99.6026 522.614 98.2781 518.375 95.6291C514.137 92.936 510.848 89.2053 508.508 84.4371C506.212 79.6247 505.064 74.0397 505.064 67.6821C505.064 61.5894 505.947 56.1589 507.713 51.3907C509.479 46.6225 511.974 42.5828 515.197 39.2715C518.419 35.9603 522.239 33.4437 526.654 31.7219C531.069 30 535.925 29.1391 541.223 29.1391C543.828 29.1391 546.455 29.3377 549.104 29.7351C551.753 30.0883 554.336 30.6623 556.852 31.457C559.413 32.2517 561.753 33.2671 563.872 34.5033L554.998 36.3576V11.1921C554.468 10.9713 553.585 10.574 552.349 10C551.113 9.42605 549.766 8.80795 548.309 8.1457C546.852 7.48345 545.484 6.86534 544.203 6.29139V5.09934L567.912 0H568.11L567.183 10.2649V91.5894C567.581 91.766 568.221 92.0309 569.104 92.3841C569.987 92.7373 570.958 93.1347 572.018 93.5762C573.077 93.9735 574.115 94.3929 575.13 94.8344C576.146 95.2318 577.007 95.5629 577.713 95.8278V97.2848L555.329 100H554.998V47.2185Z" fill="black"/>
<path d="M615.558 29.1391C620.193 29.1391 624.233 30.1104 627.677 32.053C631.121 33.9514 633.858 36.777 635.889 40.5298C637.92 44.2384 639.134 48.83 639.531 54.3046H595.69V50.4636H632.246L627.081 53.1126C626.639 48.3444 625.845 44.4371 624.697 41.3907C623.593 38.3444 622.114 36.0927 620.26 34.6358C618.45 33.1347 616.22 32.3841 613.571 32.3841C609.995 32.3841 606.926 33.4216 604.366 35.4967C601.805 37.5717 599.84 40.596 598.472 44.5695C597.103 48.4989 596.419 53.2671 596.419 58.8742C596.419 66.2472 597.368 72.2516 599.266 76.8874C601.209 81.479 604.012 84.8344 607.677 86.9536C611.341 89.0728 615.801 90.1324 621.054 90.1324C623.483 90.1324 625.867 89.8013 628.207 89.1391C630.547 88.4768 632.732 87.4834 634.763 86.1589C636.838 84.8344 638.604 83.1788 640.061 81.192L641.121 81.9205C638.383 86.2914 635.624 89.7792 632.842 92.3841C630.105 94.9448 627.213 96.7991 624.167 97.947C621.165 99.0508 617.876 99.6026 614.299 99.6026C608.56 99.6026 603.372 98.3223 598.737 95.7616C594.145 93.1567 590.503 89.3377 587.809 84.3046C585.16 79.2274 583.836 72.9801 583.836 65.5629C583.836 58.9845 585.072 52.936 587.544 47.4172C590.061 41.8985 593.681 37.4834 598.405 34.1722C603.174 30.8168 608.891 29.1391 615.558 29.1391Z" fill="black"/>
<path d="M689.619 29.2715C691.562 29.2715 693.107 29.8234 694.255 30.9271C695.403 32.0309 695.977 33.5541 695.977 35.4967C695.977 37.8366 695.248 39.7351 693.791 41.1921C692.378 42.6049 690.568 43.3113 688.361 43.3113C687.39 43.3113 686.396 43.2009 685.381 42.9801C684.409 42.7152 683.372 42.4724 682.268 42.2517C681.164 41.9868 679.928 41.8543 678.56 41.8543C677.279 41.8543 676.065 42.0971 674.917 42.5828C673.769 43.0243 672.643 43.6424 671.54 44.4371C670.436 45.2318 669.288 46.181 668.096 47.2848V44.3709C671.407 40.883 674.189 38.1236 676.44 36.0927C678.736 34.0618 680.657 32.5607 682.202 31.5894C683.747 30.6181 685.094 30 686.242 29.7351C687.39 29.426 688.515 29.2715 689.619 29.2715ZM668.891 94.5033L679.685 96.4901V98.2781H647.235V96.4901L656.705 94.5033V41.5894C656.131 41.2362 655.425 40.7947 654.586 40.2649C653.747 39.7351 652.71 39.0949 651.473 38.3444C650.281 37.5497 648.869 36.6446 647.235 35.6291V34.4371L668.626 28.4106H668.891V94.5033Z" fill="black"/>
</svg>
