<svg width="661" height="100" viewBox="0 0 661 100" fill="none" xmlns="http://www.w3.org/2000/svg">
<path d="M81.6736 97.8437H73.3178L72.2396 81.9407C68.1965 92.5876 56.3367 100 43.5334 100C16.0402 100 0.271973 78.0323 0.271973 50.1348C0.271973 22.1024 15.9054 0 43.5334 0C63.6143 0 76.9566 12.5337 81.2693 30.1887L69.4094 30.9973C66.1749 19.1375 57.2801 11.0512 43.5334 11.0512C21.7005 11.0512 12.1318 29.1105 12.1318 50.1348C12.1318 71.0243 21.8353 88.9488 43.5334 88.9488C60.245 88.9488 69.679 76.6846 70.6224 60.6469H43.5334V49.5957H81.6736V97.8437Z" fill="black"/>
<path d="M96.6058 62.1294C96.6058 39.4879 109.409 24.7978 129.22 24.7978C145.123 24.7978 159.005 35.4447 160.218 60.6469L160.352 65.6334H108.331C109.409 80.3234 116.821 88.9488 129.22 88.9488C137.037 88.9488 144.045 84.3666 147.28 76.8194L159.139 77.628C154.962 91.1051 142.967 99.4609 129.22 99.4609C109.409 99.4609 96.6058 84.7709 96.6058 62.1294ZM108.6 55.7951H148.223C146.201 40.7008 138.115 35.31 129.22 35.31C117.765 35.31 110.352 42.8571 108.6 55.7951Z" fill="black"/>
<path d="M177.536 26.4151H188.587V97.8437H177.536V26.4151ZM177.266 15.2291V2.42588H188.856V15.2291H177.266Z" fill="black"/>
<path d="M252.058 48.3827C250.44 40.1617 242.354 35.31 234.268 35.31C226.182 35.31 219.713 39.4879 219.713 46.3612C219.847 53.3693 228.877 56.3342 236.963 58.0863C253.271 61.186 264.996 65.7682 264.996 79.6496C264.996 93.3962 250.845 99.4609 237.233 99.4609C220.387 99.4609 207.449 90.1617 206.37 75.4717L217.961 74.6631C219.308 83.2884 226.316 88.9488 237.233 88.9488C244.511 88.9488 253.405 86.5229 253.405 79.1105C253.405 70.4852 243.163 69.5418 234.942 67.5202C221.734 64.4205 208.257 60.6469 208.257 47.035C208.122 33.4232 219.174 24.7978 235.481 24.7978C249.767 24.7978 261.357 33.8275 263.648 47.5741L252.058 48.3827Z" fill="black"/>
<path d="M285.888 10.2426H296.94V26.4151H315.942V36.2534H296.94V78.9757C296.94 85.0404 299.904 88.0054 305.565 88.0054H315.807V97.8437H305.565C292.896 97.8437 285.888 91.1051 285.888 78.9757V36.2534H275.376V26.4151H285.888V10.2426Z" fill="black"/>
<path d="M374.623 66.5768C377.049 79.5148 386.214 88.4097 401.443 88.4097C413.842 88.4097 422.198 83.2884 422.198 73.7197C422.198 64.0162 413.842 58.0863 394.569 53.0997C378.667 49.0566 364.785 41.5094 364.785 26.1456C364.785 10.1078 377.723 0 396.052 0C416.537 0 430.149 12.8032 432.036 30.3234L420.176 31.1321C418.559 19.1375 409.26 11.0512 395.917 11.0512C384.731 11.0512 376.645 16.8464 376.645 26.1456C376.645 37.8706 390.257 41.1051 402.79 44.6092C420.445 49.4609 434.057 58.0863 434.057 72.6415C434.057 90.1617 417.885 99.4609 400.634 99.4609C379.61 99.4609 364.246 86.5229 362.764 67.3854L374.623 66.5768Z" fill="black"/>
<path d="M449.618 47.4394C452.448 33.5579 463.5 24.7978 478.729 24.7978C497.192 24.7978 507.435 35.5795 507.435 54.717V83.4232C507.435 86.6577 508.783 88.0054 511.882 88.0054H514.712V97.8437H509.995C502.718 97.8437 496.384 95.4178 496.518 86.6577C493.419 93.3962 485.332 99.4609 474.012 99.4609C459.861 99.4609 448.405 91.9137 448.405 79.2453C448.405 64.5553 459.591 60.7817 475.225 57.6819L496.384 53.6388C496.249 41.2399 490.454 35.31 478.729 35.31C469.564 35.31 463.5 40.027 461.343 48.3827L449.618 47.4394ZM459.995 79.2453C459.995 85.0404 464.982 89.7574 475.494 89.6226C487.354 89.6226 496.653 81.2668 496.653 64.69V63.4771L479.537 66.442C468.89 68.3288 459.995 69.1375 459.995 79.2453Z" fill="black"/>
<path d="M529.862 26.4151H539.969L540.374 38.6792C544.012 29.1105 552.503 24.7978 562.341 24.7978C578.649 24.7978 586.465 36.7925 586.465 51.8868V97.8437H575.414V55.1213C575.414 41.9137 570.967 34.6361 560.05 34.6361C548.46 34.6361 540.913 41.9137 540.913 55.1213V97.8437H529.862V26.4151Z" fill="black"/>
<path d="M647.157 48.3827C645.54 40.1617 637.454 35.31 629.368 35.31C621.281 35.31 614.813 39.4879 614.813 46.3612C614.947 53.3693 623.977 56.3342 632.063 58.0863C648.37 61.186 660.096 65.7682 660.096 79.6496C660.096 93.3962 645.945 99.4609 632.333 99.4609C615.486 99.4609 602.548 90.1617 601.47 75.4717L613.06 74.6631C614.408 83.2884 621.416 88.9488 632.333 88.9488C639.61 88.9488 648.505 86.5229 648.505 79.1105C648.505 70.4852 638.263 69.5418 630.042 67.5202C616.834 64.4205 603.357 60.6469 603.357 47.035C603.222 33.4232 614.273 24.7978 630.581 24.7978C644.866 24.7978 656.457 33.8275 658.748 47.5741L647.157 48.3827Z" fill="black"/>
</svg>
