<svg width="895" height="325" viewBox="0 0 895 325" fill="none" xmlns="http://www.w3.org/2000/svg">
<style>
path {
    fill: #0c0d0d;
}

@media (prefers-color-scheme: dark) {
    path {
        fill: white;
    }
}
</style>
<g clip-path="url(#clip0_245_42)">
<path d="M23.581 80.7381C11.936 80.7381 5.14318 72.0045 5.14318 57.1087C5.14318 30.9561 25.1336 4.80354 45.1241 4.80354C56.9146 4.80354 63.756 13.4887 63.756 28.7242C63.756 54.8767 43.814 80.7381 23.581 80.7381ZM24.794 76.1772C39.5927 76.1772 54.7797 50.4613 54.7797 25.4733C54.7797 14.4106 51.4318 9.02482 44.6389 9.02482C29.8886 9.02482 14.5076 34.8377 14.5076 59.5347C14.5076 70.7914 17.807 76.1772 24.794 76.1772Z" fill="black"/>
<path d="M90.8456 80.7381C87.7403 80.7381 86.042 78.9429 86.042 75.595C86.042 72.9263 87.1095 68.9962 89.0018 64.5808L99.9674 38.7194C100.55 37.3608 100.986 35.517 100.986 34.1099C100.986 32.2662 100.016 31.1987 98.4148 31.1987C92.8834 31.1987 83.8101 43.9111 76.8717 61.1359L69.351 79.7192H61.5392L77.0172 36.8756C77.5995 35.2259 77.9391 34.2555 77.9391 33.6247C77.9391 32.7514 77.5995 32.1691 76.7746 32.1691C74.9308 32.1691 71.5344 35.4685 68.2835 40.3206L66.6338 38.8164C70.7581 32.0721 76.7261 27.8508 81.9178 27.8508C84.6349 27.8508 85.7509 29.0638 85.7509 31.7324C85.7509 34.304 84.732 37.3608 82.2089 43.0862L82.5486 43.2318C89.4385 32.3632 94.6787 27.9478 100.647 27.9478C105.547 27.9478 107.973 30.8105 107.973 36.2934C107.973 39.1075 107.391 41.8732 106.032 45.1241L96.5225 68.0743C95.6006 70.4033 94.9213 72.6352 94.9213 73.7027C94.9213 74.6246 95.2609 75.0127 95.9402 75.0127C97.784 75.0127 101.229 71.8589 105.353 66.3761L107.051 67.8317C101.326 76.3228 95.8432 80.7381 90.8456 80.7381Z" fill="black"/>
<path d="M120.352 80.7381C113.656 80.7381 109.872 75.9831 109.872 67.6861C109.872 50.0732 127.679 27.8508 141.944 27.8508C146.699 27.8508 149.659 30.3253 149.659 34.4496C149.659 42.5525 138.402 50.5584 122.293 53.9063C119.188 60.6992 117.683 66.4731 117.683 70.8885C117.683 75.3039 119.188 77.2932 122.341 77.2932C127.339 77.2932 134.229 72.0045 138.935 64.4838L140.682 65.7938C134.132 75.692 127.194 80.7381 120.352 80.7381ZM124.088 50.6554C134.035 48.375 143.254 40.3206 143.254 33.7218C143.254 31.8295 142.429 30.8105 140.634 30.8105C136.267 30.8105 130.25 36.8756 126.611 45.0756L124.088 50.6554Z" fill="black"/>
<path d="M198.55 80.7381C191.66 80.7381 188.166 75.595 188.166 65.9879C188.166 55.459 193.116 44.2992 201.607 36.4389C207.381 31.0531 214.125 27.8508 219.511 27.8508C225.091 27.8508 229.263 31.8295 229.263 36.633C229.263 38.9135 227.808 40.4176 225.721 40.4176C223.586 40.4176 222.422 39.0105 221.985 35.8567C221.5 32.2661 220.53 30.8105 218.54 30.8105C208.836 30.8105 196.124 55.4104 196.124 70.2092C196.124 75.0127 197.385 77.2932 200.879 77.2932C205.343 77.2932 211.262 73.0234 218.298 64.4838L220.093 65.6968C213.009 75.5465 205.634 80.7381 198.55 80.7381Z" fill="black"/>
<path d="M234.322 80.7381C228.79 80.7381 225.442 75.9831 225.442 67.9773C225.442 50.6069 242.036 27.8508 255.38 27.8508C258.339 27.8508 260.135 29.1123 262.075 32.3632L263.385 28.8212H271.537L257.757 69.2388C256.253 73.5086 256.641 75.0127 258.194 75.0127C259.795 75.0127 262.609 72.3926 267.17 66.4731L268.723 67.8317C263.143 76.2743 257.903 80.7381 253.439 80.7381C250.43 80.7381 248.684 78.8458 248.684 75.1583C248.684 72.2956 249.217 69.4814 251.401 65.4057L250.916 65.066C244.656 76.0802 239.756 80.7381 234.322 80.7381ZM235.874 77.2932C241.357 77.2932 251.692 62.1548 258.194 43.9596C259.795 39.5442 259.94 37.5549 259.94 35.7596C259.94 32.7514 258.339 30.9561 256.253 30.9561C248.15 30.9561 232.817 57.8365 232.817 71.7133C232.817 75.595 233.691 77.2932 235.874 77.2932Z" fill="black"/>
<path d="M300.94 80.7381C297.835 80.7381 296.137 78.9429 296.137 75.595C296.137 72.9263 297.204 68.9962 299.097 64.5808L310.062 38.7194C310.644 37.3608 311.081 35.517 311.081 34.1099C311.081 32.2662 310.111 31.1987 308.509 31.1987C302.978 31.1987 293.905 43.9111 286.966 61.1359L279.446 79.7192H271.634L287.112 36.8756C287.694 35.2259 288.034 34.2555 288.034 33.6247C288.034 32.7514 287.694 32.1691 286.869 32.1691C285.026 32.1691 281.629 35.4685 278.378 40.3206L276.729 38.8164C280.853 32.0721 286.821 27.8508 292.012 27.8508C294.73 27.8508 295.846 29.0638 295.846 31.7324C295.846 34.304 294.827 37.3608 292.304 43.0862L292.643 43.2318C299.533 32.3632 304.773 27.9478 310.741 27.9478C315.642 27.9478 318.068 30.8105 318.068 36.2934C318.068 39.1075 317.486 41.8732 316.127 45.1241L306.617 68.0743C305.695 70.4033 305.016 72.6352 305.016 73.7027C305.016 74.6246 305.356 75.0127 306.035 75.0127C307.879 75.0127 311.324 71.8589 315.448 66.3761L317.146 67.8317C311.421 76.3228 305.938 80.7381 300.94 80.7381Z" fill="black"/>
<path d="M370.073 80.7381C364.299 80.7381 361.339 76.5169 361.339 68.2199C361.339 50.3158 376.817 27.8508 390.258 27.8508C393.363 27.8508 395.158 29.1123 397.196 32.3632L406.512 3.59052L400.301 2.37751L399.913 1.01893H415.294L393.654 69.2388C392.392 73.3145 392.587 75.0127 394.236 75.0127C395.886 75.0127 398.263 72.3926 402.727 66.4731L404.329 67.8317C399.088 76.2743 394.091 80.7381 389.53 80.7381C386.036 80.7381 384.629 78.3606 384.629 73.7997C384.629 71.5193 385.503 68.9962 387.007 65.4057L386.813 65.066C380.408 76.4198 375.895 80.7381 370.073 80.7381ZM371.577 77.2932C377.06 77.2932 387.249 61.9607 393.46 43.9596C394.916 39.5442 395.352 37.6519 395.449 35.7596C395.061 32.7514 393.751 30.9561 391.665 30.9561C383.562 30.9561 368.569 57.982 368.569 71.9074C368.569 75.692 369.782 77.2932 371.577 77.2932Z" fill="black"/>
<path d="M417.44 80.7381C410.744 80.7381 406.959 75.9831 406.959 67.6861C406.959 50.0732 424.766 27.8508 439.031 27.8508C443.786 27.8508 446.746 30.3253 446.746 34.4496C446.746 42.5525 435.489 50.5584 419.38 53.9063C416.275 60.6992 414.771 66.4731 414.771 70.8885C414.771 75.3039 416.275 77.2932 419.429 77.2932C424.427 77.2932 431.317 72.0045 436.023 64.4838L437.77 65.7938C431.219 75.692 424.281 80.7381 417.44 80.7381ZM421.176 50.6554C431.122 48.375 440.341 40.3206 440.341 33.7218C440.341 31.8295 439.517 30.8105 437.721 30.8105C433.354 30.8105 427.338 36.8756 423.699 45.0756L421.176 50.6554Z" fill="black"/>
<path d="M484.091 2.91123C476.716 2.91123 471.379 10.1408 466.915 26.2011L466.187 28.8212H480.452C483.121 28.8212 486.905 27.8508 488.943 27.8508C490.981 27.8508 492.485 29.8886 492.485 32.6543C492.485 34.304 492.048 36.633 491.223 38.9135L478.754 71.9074C478.511 72.4897 478.511 72.7808 478.511 73.169C478.511 74.2364 479.142 75.0127 480.161 75.0127C481.616 75.0127 483.218 73.5571 488.555 67.298L490.156 68.511C485.11 76.0802 479.287 80.7381 474.872 80.7381C471.67 80.7381 469.826 78.6518 469.826 75.2068C469.826 73.5086 470.263 71.2766 471.087 69.0932L483.703 34.8377C483.897 34.2555 484.091 33.5277 484.091 33.1395C484.091 32.3632 483.703 31.9265 483.023 31.9265H465.314L457.502 60.214C449.35 89.6659 438.385 104.319 424.605 104.319C418.928 104.319 415.774 101.165 415.774 96.7014C415.774 93.8387 417.23 91.8008 419.559 91.8008C424.993 91.8008 422.518 101.068 426.788 101.068C433.047 101.068 441.393 86.7062 447.264 65.9879L456.871 31.9265H450.078L451.097 28.8212H457.744L458.472 26.2011C463.373 8.87926 472.009 0 483.945 0C492.291 0 498.696 4.41537 498.696 10.2378C498.696 13.6343 496.706 16.0118 494.086 16.0118C491.418 16.0118 489.38 13.7313 489.38 10.626C489.38 8.39405 490.35 7.47216 490.35 5.96803C490.35 4.12425 487.827 2.91123 484.091 2.91123Z" fill="black"/>
<path d="M523.26 80.7381C520.155 80.7381 518.456 78.9429 518.456 75.595C518.456 72.9263 519.524 68.9962 521.416 64.5808L532.382 38.7194C532.964 37.3608 533.401 35.517 533.401 34.1099C533.401 32.2662 532.43 31.1987 530.829 31.1987C525.298 31.1987 516.224 43.9111 509.286 61.1359L501.765 79.7192H493.953L509.432 36.8756C510.014 35.2259 510.353 34.2555 510.353 33.6247C510.353 32.7514 510.014 32.1691 509.189 32.1691C507.345 32.1691 503.949 35.4685 500.698 40.3206L499.048 38.8164C503.172 32.0721 509.14 27.8508 514.332 27.8508C517.049 27.8508 518.165 29.0638 518.165 31.7324C518.165 34.304 517.146 37.3608 514.623 43.0862L514.963 43.2318C521.853 32.3632 527.093 27.9478 533.061 27.9478C537.962 27.9478 540.388 30.8105 540.388 36.2934C540.388 39.1075 539.805 41.8732 538.447 45.1241L528.937 68.0743C528.015 70.4033 527.336 72.6352 527.336 73.7027C527.336 74.6246 527.675 75.0127 528.355 75.0127C530.198 75.0127 533.643 71.8589 537.768 66.3761L539.466 67.8317C533.74 76.3228 528.257 80.7381 523.26 80.7381Z" fill="black"/>
<path d="M567.254 16.7881C564.149 16.7881 562.208 14.6532 562.208 11.3538C562.208 7.8118 565.022 4.80354 568.079 4.80354C570.845 4.80354 573.319 7.084 573.319 10.0923C573.319 13.4887 570.311 16.7881 567.254 16.7881ZM549.496 80.7381C546.391 80.7381 544.256 78.9429 544.256 75.3038C544.256 73.7027 544.547 71.5678 545.469 69.0932L558.569 34.8377C558.86 34.0129 558.957 33.4792 558.957 33.0425C558.957 32.4602 558.618 32.1691 557.938 32.1691C556.046 32.1691 553.28 34.4496 550.806 38.1371L548.962 36.4389C552.65 31.1017 557.841 27.8508 562.16 27.8508C565.168 27.8508 567.4 29.549 567.4 32.5573C567.4 34.3525 567.012 36.633 566.138 38.9135L553.183 71.9074C552.989 72.3926 552.941 72.7808 552.941 73.169C552.941 74.2364 553.523 75.0127 554.542 75.0127C556.046 75.0127 557.696 73.5086 562.936 67.298L564.634 68.511C559.588 76.0802 553.523 80.7381 549.496 80.7381Z" fill="black"/>
<path d="M576.203 80.7381C572.952 80.7381 571.254 78.7003 571.254 75.0612C571.254 71.9074 571.885 68.7051 576.786 55.2649L585.228 31.9265H578.581L579.406 28.8212H586.344L591.39 14.7017L600.075 13.7313L594.641 28.8212H601.677L600.803 31.9265H593.525L586.781 50.4613C579.697 69.724 579.26 71.3737 579.26 72.7323C579.26 74.1394 579.842 75.0127 581.055 75.0127C582.705 75.0127 585.083 72.7323 589.401 67.298L591.051 68.511C585.859 76.2743 580.182 80.7381 576.203 80.7381Z" fill="black"/>
<path d="M608.3 80.7381C601.604 80.7381 597.819 75.9831 597.819 67.6861C597.819 50.0732 615.626 27.8508 629.891 27.8508C634.646 27.8508 637.606 30.3253 637.606 34.4496C637.606 42.5525 626.349 50.5584 610.24 53.9063C607.135 60.6992 605.631 66.4731 605.631 70.8885C605.631 75.3039 607.135 77.2932 610.289 77.2932C615.287 77.2932 622.177 72.0045 626.883 64.4838L628.63 65.7938C622.08 75.692 615.141 80.7381 608.3 80.7381ZM612.036 50.6554C621.982 48.375 631.201 40.3206 631.201 33.7218C631.201 31.8295 630.377 30.8105 628.581 30.8105C624.214 30.8105 618.198 36.8756 614.559 45.0756L612.036 50.6554Z" fill="black"/>
<path d="M639.261 80.7381C636.689 80.7381 635.137 78.3606 635.137 74.6731C635.137 71.2766 636.592 67.0554 647.849 34.9833L658.912 3.59052L652.75 2.37751L652.556 1.01893H668.567L650.712 50.4613C644.647 67.298 643.191 71.1311 643.191 73.3145C643.191 74.2849 644.113 75.0127 644.889 75.0127C646.2 75.0127 648.189 73.8968 653.381 67.298L655.176 68.511C649.742 76.3228 643.628 80.7381 639.261 80.7381Z" fill="black"/>
<path d="M657.36 104.319C653.333 104.319 650.325 102.184 650.325 98.8363C650.325 96.3132 651.683 94.7606 654.109 94.7606C658.233 94.7606 657.7 99.5156 661.193 99.5156C663.231 99.5156 665.851 97.6718 668.083 94.518C671.722 89.3748 672.644 87.5795 672.644 61.3785C672.644 40.0294 671.625 32.8484 668.811 32.8484C667.355 32.8484 665.657 34.5951 663.377 38.1371L661.824 36.6815C664.59 31.1987 669.49 27.8508 674.148 27.8508C679.776 27.8508 681.475 33.1395 681.475 57.2542C681.475 62.3974 681.281 67.8317 680.941 74.9157L681.232 75.2068C687.976 65.2116 692.926 51.1892 692.926 43.9111C692.926 37.4578 692.295 37.3123 692.295 33.4792C692.295 30.1798 693.993 27.8508 696.37 27.8508C698.797 27.8508 700.446 30.1798 700.446 33.8673C700.446 49.9276 673.42 104.319 657.36 104.319Z" fill="black"/>
<path d="M781.276 2.91123C773.901 2.91123 768.564 10.1408 764.1 26.2011L763.372 28.8212H777.637C780.306 28.8212 784.09 27.8508 786.128 27.8508C788.166 27.8508 789.67 29.8886 789.67 32.6543C789.67 34.304 789.234 36.633 788.409 38.9135L775.939 71.9074C775.696 72.4897 775.696 72.7808 775.696 73.169C775.696 74.2364 776.327 75.0127 777.346 75.0127C778.802 75.0127 780.403 73.5571 785.74 67.298L787.341 68.511C782.295 76.0802 776.473 80.7381 772.057 80.7381C768.855 80.7381 767.011 78.6518 767.011 75.2068C767.011 73.5086 767.448 71.2766 768.273 69.0932L780.888 34.8377C781.082 34.2555 781.276 33.5277 781.276 33.1395C781.276 32.3632 780.888 31.9265 780.209 31.9265H762.499L754.687 60.214C746.536 89.6659 735.57 104.319 721.79 104.319C716.113 104.319 712.959 101.165 712.959 96.7014C712.959 93.8387 714.415 91.8008 716.744 91.8008C722.178 91.8008 719.704 101.068 723.973 101.068C730.233 101.068 738.578 86.7062 744.449 65.9879L754.056 31.9265H747.263L748.282 28.8212H754.93L755.657 26.2011C760.558 8.87926 769.195 0 781.131 0C789.476 0 795.881 4.41537 795.881 10.2378C795.881 13.6343 793.892 16.0118 791.271 16.0118C788.603 16.0118 786.565 13.7313 786.565 10.626C786.565 8.39405 787.535 7.47216 787.535 5.96803C787.535 4.12425 785.012 2.91123 781.276 2.91123Z" fill="black"/>
<path d="M820.445 80.7381C817.34 80.7381 815.642 78.9429 815.642 75.595C815.642 72.9263 816.709 68.9962 818.601 64.5808L829.567 38.7194C830.149 37.3608 830.586 35.517 830.586 34.1099C830.586 32.2662 829.616 31.1987 828.014 31.1987C822.483 31.1987 813.41 43.9111 806.471 61.1359L798.951 79.7192H791.139L806.617 36.8756C807.199 35.2259 807.539 34.2555 807.539 33.6247C807.539 32.7514 807.199 32.1691 806.374 32.1691C804.53 32.1691 801.134 35.4685 797.883 40.3206L796.233 38.8164C800.358 32.0721 806.326 27.8508 811.517 27.8508C814.235 27.8508 815.35 29.0638 815.35 31.7324C815.35 34.304 814.332 37.3608 811.808 43.0862L812.148 43.2318C819.038 32.3632 824.278 27.9478 830.246 27.9478C835.147 27.9478 837.573 30.8105 837.573 36.2934C837.573 39.1075 836.991 41.8732 835.632 45.1241L826.122 68.0743C825.2 70.4033 824.521 72.6352 824.521 73.7027C824.521 74.6246 824.861 75.0127 825.54 75.0127C827.384 75.0127 830.829 71.8589 834.953 66.3761L836.651 67.8317C830.926 76.3228 825.443 80.7381 820.445 80.7381Z" fill="black"/>
<path d="M849.779 80.7381C844.005 80.7381 841.045 76.5169 841.045 68.2199C841.045 50.3158 856.523 27.8508 869.963 27.8508C873.069 27.8508 874.864 29.1123 876.902 32.3632L886.218 3.59052L880.007 2.37751L879.619 1.01893H895L873.36 69.2388C872.098 73.3145 872.292 75.0127 873.942 75.0127C875.592 75.0127 877.969 72.3926 882.433 66.4731L884.034 67.8317C878.794 76.2743 873.797 80.7381 869.236 80.7381C865.742 80.7381 864.335 78.3606 864.335 73.7997C864.335 71.5193 865.208 68.9962 866.712 65.4057L866.518 65.066C860.114 76.4198 855.601 80.7381 849.779 80.7381ZM851.283 77.2932C856.766 77.2932 866.955 61.9607 873.166 43.9596C874.621 39.5442 875.058 37.6519 875.155 35.7596C874.767 32.7514 873.457 30.9561 871.37 30.9561C863.268 30.9561 848.275 57.982 848.275 71.9074C848.275 75.692 849.488 77.2932 851.283 77.2932Z" fill="black"/>
<path d="M12.0331 190.785C4.56093 190.785 0.533726 185.642 0.533726 177.15C0.533726 173.948 1.16449 170.066 2.62011 165.845L20.5727 113.637L14.3136 112.424L13.9739 111.065H29.452L18.1467 145.418H18.4378C22.1739 140.614 26.5407 137.897 30.6164 137.897C36.73 137.897 40.6117 143.186 40.6117 152.745C40.6117 171.231 26.2981 190.785 12.0331 190.785ZM11.3538 187.34C19.5053 187.34 32.8484 163.953 32.8484 149.833C32.8484 144.739 31.1987 141.245 28.6271 141.245C24.1632 141.245 17.1763 149.542 13.0035 159.974C10.7716 165.506 7.084 176.034 7.084 181.905C7.084 185.253 8.87926 187.34 11.3538 187.34Z" fill="black"/>
<path d="M71.2077 190.785C68.6361 190.785 66.6467 188.553 66.6467 185.205C66.6467 182.827 67.3745 179.771 69.1698 175.598L68.7331 175.355C62.0858 186.321 57.1852 190.639 51.3142 190.639C46.5107 190.639 44.1332 187.631 44.1332 182.148C44.1332 179.528 44.861 176.617 46.1711 173.463L55.584 150.464C56.7485 147.795 57.1852 145.952 57.1852 144.787C57.1852 143.962 56.8456 143.574 56.2633 143.574C54.7592 143.574 52.0906 145.806 48.9853 149.591L47.1415 148.087C51.9935 141.488 56.7971 137.897 61.3095 137.897C64.2692 137.897 66.113 139.596 66.113 142.895C66.113 145.564 65.1426 149.445 63.2503 154.006L52.7213 179.868C51.9935 181.663 51.6539 183.458 51.6539 184.671C51.6539 186.369 52.7699 187.34 54.0799 187.34C59.3201 187.34 67.8112 174.724 74.5556 157.548L81.8822 138.868H89.8881L74.2159 181.663C73.6822 183.167 73.3426 184.477 73.3426 185.253C73.3426 186.03 73.9248 186.369 74.4585 186.369C76.3994 186.369 79.7958 183.07 82.9981 178.266L84.6478 179.771C80.3295 186.321 75.0408 190.785 71.2077 190.785Z" fill="black"/>
<path d="M95.9319 190.785C92.681 190.785 90.9828 188.747 90.9828 185.108C90.9828 181.954 91.6136 178.752 96.5141 165.311L104.957 141.973H98.3094L99.1342 138.868H106.073L111.119 124.748L119.804 123.778L114.37 138.868H121.405L120.532 141.973H113.254L106.509 160.508C99.4254 179.771 98.9887 181.42 98.9887 182.779C98.9887 184.186 99.5709 185.059 100.784 185.059C102.434 185.059 104.811 182.779 109.129 177.344L110.779 178.558C105.587 186.321 99.9106 190.785 95.9319 190.785Z" fill="black"/>
<path d="M124.93 190.785C121.68 190.785 119.981 188.747 119.981 185.108C119.981 181.954 120.612 178.752 125.513 165.311L133.955 141.973H127.308L128.133 138.868H135.071L140.117 124.748L148.803 123.778L143.368 138.868H150.404L149.53 141.973H142.252L135.508 160.508C128.424 179.771 127.987 181.42 127.987 182.779C127.987 184.186 128.57 185.059 129.783 185.059C131.432 185.059 133.81 182.779 138.128 177.344L139.778 178.558C134.586 186.321 128.909 190.785 124.93 190.785Z" fill="black"/>
<path d="M157.027 190.785C150.331 190.785 146.546 186.03 146.546 177.733C146.546 160.12 164.353 137.897 178.618 137.897C183.373 137.897 186.333 140.372 186.333 144.496C186.333 152.599 175.076 160.605 158.968 163.953C155.862 170.746 154.358 176.52 154.358 180.935C154.358 185.35 155.862 187.34 159.016 187.34C164.014 187.34 170.904 182.051 175.61 174.53L177.357 175.84C170.807 185.739 163.868 190.785 157.027 190.785ZM160.763 160.702C170.71 158.421 179.928 150.367 179.928 143.768C179.928 141.876 179.104 140.857 177.308 140.857C172.942 140.857 166.925 146.922 163.286 155.122L160.763 160.702Z" fill="black"/>
<path d="M184.26 189.766L199.835 146.922C200.271 145.564 200.708 144.302 200.708 143.38C200.708 142.604 200.271 142.216 199.641 142.216C197.797 142.216 194.158 145.564 190.956 150.367L189.451 148.863C193.721 142.313 199.447 137.897 203.862 137.897C206.094 137.897 207.598 139.596 207.598 142.798C207.598 145.418 206.919 147.796 204.202 153.133L204.541 153.278C210.121 142.41 214.973 137.897 220.262 137.897C223.707 137.897 226.278 139.984 226.278 143.283C226.278 145.903 225.017 147.601 222.736 147.601C219.583 147.601 219.68 144.156 216.671 144.156C212.11 144.156 206.87 153.181 199.592 171.182L192.072 189.766H184.26Z" fill="black"/>
<path d="M250.723 190.785C248.151 190.785 246.599 188.407 246.599 184.72C246.599 181.566 247.181 179.771 259.408 145.03L267.948 120.721C267.123 116.403 264.745 112.958 260.815 112.958C253.925 112.958 248.588 120.187 244.124 136.248L243.396 138.868H252.082L251.063 141.973H242.523L234.711 170.261C226.56 199.712 215.594 214.366 201.814 214.366C196.137 214.366 192.984 211.212 192.984 206.748C192.984 203.885 194.439 201.847 196.768 201.847C202.202 201.847 199.728 211.115 203.998 211.115C210.257 211.115 218.602 196.753 224.473 176.034L234.08 141.973H227.288L228.306 138.868H234.954L235.682 136.248C240.582 118.926 249.219 110.047 261.155 110.047C265.376 110.047 268.773 111.308 271.49 113.54L279.544 111.065L279.884 111.454L262.174 160.508C256.06 177.345 254.702 181.178 254.702 183.361C254.702 184.331 255.575 185.059 256.351 185.059C257.613 185.059 259.651 183.943 264.891 177.344L266.638 178.558C261.252 186.369 255.09 190.785 250.723 190.785Z" fill="black"/>
<path d="M295.849 126.835C292.743 126.835 290.802 124.7 290.802 121.4C290.802 117.858 293.617 114.85 296.673 114.85C299.439 114.85 301.914 117.131 301.914 120.139C301.914 123.535 298.905 126.835 295.849 126.835ZM278.09 190.785C274.985 190.785 272.85 188.989 272.85 185.35C272.85 183.749 273.141 181.614 274.063 179.14L287.163 144.884C287.455 144.059 287.552 143.526 287.552 143.089C287.552 142.507 287.212 142.216 286.533 142.216C284.64 142.216 281.875 144.496 279.4 148.184L277.556 146.485C281.244 141.148 286.436 137.897 290.754 137.897C293.762 137.897 295.994 139.596 295.994 142.604C295.994 144.399 295.606 146.68 294.733 148.96L281.778 181.954C281.584 182.439 281.535 182.827 281.535 183.215C281.535 184.283 282.117 185.059 283.136 185.059C284.64 185.059 286.29 183.555 291.53 177.344L293.228 178.558C288.182 186.127 282.117 190.785 278.09 190.785Z" fill="black"/>
<path d="M306.758 190.785C300.062 190.785 296.278 186.03 296.278 177.733C296.278 160.12 314.085 137.897 328.35 137.897C333.105 137.897 336.064 140.372 336.064 144.496C336.064 152.599 324.808 160.605 308.699 163.953C305.594 170.746 304.089 176.52 304.089 180.935C304.089 185.35 305.594 187.34 308.747 187.34C313.745 187.34 320.635 182.051 325.341 174.53L327.088 175.84C320.538 185.739 313.599 190.785 306.758 190.785ZM310.494 160.702C320.441 158.421 329.66 150.367 329.66 143.768C329.66 141.876 328.835 140.857 327.04 140.857C322.673 140.857 316.656 146.922 313.017 155.122L310.494 160.702Z" fill="black"/>
<path d="M342.467 190.785C334.558 190.785 329.415 186.563 329.415 181.323C329.415 179.043 330.919 177.15 333.054 177.15C335.868 177.15 336.499 179.431 337.13 181.905C337.857 184.72 338.634 187.776 342.952 187.776C347.465 187.776 350.424 183.943 350.424 178.558C350.424 175.792 349.26 173.075 345.766 167.495C341.497 160.605 339.895 156.529 339.895 152.308C339.895 144.351 346.591 137.897 354.84 137.897C361.584 137.897 367.261 142.07 367.261 146.728C367.261 149.057 365.708 150.707 363.573 150.707C361.438 150.707 360.322 149.203 359.983 146.485C359.449 141.779 358.673 140.712 355.325 140.712C350.57 140.712 348.047 144.059 348.047 149.3C348.047 152.599 349.308 155.753 352.899 161.866C356.878 168.514 358.236 172.104 358.236 176.034C358.236 184.574 351.346 190.785 342.467 190.785Z" fill="black"/>
<path d="M463.418 190.785C443.574 190.785 431.977 181.032 431.977 166.621C431.977 157.063 436.441 149.542 444.35 145.078C442.991 142.895 442.069 139.838 442.069 136.442C442.069 127.708 448.232 119.654 458.858 119.654C465.699 119.654 470.891 124.215 470.891 129.649C470.891 133.191 468.853 135.568 465.602 135.568C457.402 135.568 465.117 123.535 456.286 123.535C450.366 123.535 445.806 129.164 445.806 136.151C445.806 138.674 446.436 141.294 447.989 143.04C449.639 142.313 451.725 141.973 453.423 141.973C457.111 141.973 459.052 143.768 459.052 146.534C459.052 149.154 456.82 151.143 453.714 151.143C451.531 151.143 448.862 149.979 446.824 148.135C441.73 150.561 439.158 155.51 439.158 162.206C439.158 173.026 448.668 181.323 464.971 181.323C484.331 181.323 497.431 171.765 497.431 158.422C497.431 151.095 492.385 146.874 484.719 146.874C478.751 146.874 473.705 150.658 473.705 153.958C473.705 158.664 481.323 155.413 481.323 160.896C481.323 163.856 478.8 165.117 476.131 165.117C472.298 165.117 468.998 162.206 468.998 157.403C468.998 150.949 472.443 144.351 490.299 141.585C510.969 138.625 516.743 134.404 516.743 128.29C516.743 123.487 512.521 121.158 508.009 121.158C503.496 121.158 502.478 126.204 498.353 126.204C495.976 126.204 494.569 124.748 494.569 122.419C494.569 118.149 499.421 114.85 505.777 114.85C514.268 114.85 519.896 120.09 519.896 127.951C519.896 139.45 511.454 146.049 496.073 146.68L496.024 147.262C499.954 149.445 502.186 154.006 502.186 159.926C502.186 177.636 486.126 190.785 463.418 190.785Z" fill="black"/>
<path d="M579.943 190.785C572.034 190.785 566.891 186.563 566.891 181.323C566.891 179.043 568.395 177.15 570.53 177.15C573.345 177.15 573.975 179.431 574.606 181.905C575.334 184.72 576.11 187.776 580.429 187.776C584.941 187.776 587.901 183.943 587.901 178.558C587.901 175.792 586.736 173.075 583.243 167.495C578.973 160.605 577.372 156.529 577.372 152.308C577.372 144.351 584.068 137.897 592.316 137.897C592.947 137.897 593.529 137.946 594.16 137.994C591.249 134.743 589.744 131.056 589.744 127.126C589.744 121.643 592.801 118.344 597.799 118.344C605.902 118.344 611.918 126.835 619.973 126.835C622.059 126.835 624.194 126.301 625.747 125.331C625.844 124.942 625.844 124.554 625.844 124.166V120.527C625.844 116.839 627.105 114.85 629.386 114.85C631.132 114.85 632.151 116.257 632.151 118.538C632.151 120.43 631.618 122.322 630.405 124.166L626.086 138.868H633.267L632.443 141.973H625.019L618.42 160.508C611.482 179.771 610.899 181.42 610.899 182.779C610.899 184.186 611.433 185.059 612.646 185.059C614.296 185.059 616.673 182.779 620.992 177.344L622.69 178.558C617.45 186.321 611.724 190.785 607.115 190.785C603.864 190.785 602.845 188.892 602.845 184.671C602.845 181.954 603.524 178.752 608.376 165.311L616.77 141.973H610.172L610.996 138.868H617.983C621.428 135.277 623.854 131.881 625.019 128.581C623.224 129.358 621.089 129.746 618.857 129.746C610.996 129.746 607.454 124.457 601.195 124.457C596.731 124.457 594.208 126.835 594.208 131.153C594.208 134.21 595.373 136.248 598.672 139.207C602.263 140.809 604.737 143.671 604.737 146.728C604.737 149.057 603.185 150.707 601.05 150.707C598.915 150.707 597.799 149.203 597.459 146.485C596.925 141.779 596.149 140.712 592.801 140.712C588.046 140.712 585.523 144.059 585.523 149.3C585.523 152.599 586.785 155.753 590.375 161.866C594.354 168.514 595.712 172.104 595.712 176.034C595.712 184.574 588.823 190.785 579.943 190.785Z" fill="black"/>
<path d="M658.373 190.785C655.801 190.785 653.812 188.553 653.812 185.205C653.812 182.827 654.54 179.771 656.335 175.598L655.898 175.355C649.251 186.321 644.351 190.639 638.48 190.639C633.676 190.639 631.299 187.631 631.299 182.148C631.299 179.528 632.026 176.617 633.336 173.463L642.749 150.464C643.914 147.795 644.35 145.952 644.35 144.787C644.35 143.962 644.011 143.574 643.429 143.574C641.925 143.574 639.256 145.806 636.151 149.591L634.307 148.087C639.159 141.488 643.962 137.897 648.475 137.897C651.435 137.897 653.278 139.596 653.278 142.895C653.278 145.564 652.308 149.445 650.416 154.006L639.887 179.868C639.159 181.663 638.819 183.458 638.819 184.671C638.819 186.369 639.935 187.34 641.245 187.34C646.485 187.34 654.977 174.724 661.721 157.548L669.047 138.868H677.053L661.381 181.663C660.848 183.167 660.508 184.477 660.508 185.253C660.508 186.03 661.09 186.369 661.624 186.369C663.565 186.369 666.961 183.07 670.163 178.266L671.813 179.771C667.495 186.321 662.206 190.785 658.373 190.785Z" fill="black"/>
<path d="M704.64 190.785C701.535 190.785 699.837 188.989 699.837 185.642C699.837 182.973 700.904 179.043 702.797 174.627L713.762 148.766C714.344 147.407 714.781 145.564 714.781 144.156C714.781 142.313 713.811 141.245 712.21 141.245C706.678 141.245 697.605 153.958 690.666 171.182L683.146 189.766H675.334L690.812 146.922C691.394 145.272 691.734 144.302 691.734 143.671C691.734 142.798 691.394 142.216 690.569 142.216C688.726 142.216 685.329 145.515 682.078 150.367L680.429 148.863C684.553 142.119 690.521 137.897 695.713 137.897C698.43 137.897 699.546 139.11 699.546 141.779C699.546 144.351 698.527 147.407 696.004 153.133L696.343 153.278C703.233 142.41 708.473 137.994 714.441 137.994C719.342 137.994 721.768 140.857 721.768 146.34C721.768 149.154 721.186 151.92 719.827 155.171L710.317 178.121C709.395 180.45 708.716 182.682 708.716 183.749C708.716 184.671 709.056 185.059 709.735 185.059C711.579 185.059 715.024 181.905 719.148 176.423L720.846 177.878C715.121 186.369 709.638 190.785 704.64 190.785Z" fill="black"/>
<path d="M753.729 190.785C750.624 190.785 748.926 188.989 748.926 185.642C748.926 182.973 749.993 179.043 751.886 174.627L762.851 148.766C763.434 147.407 763.87 145.564 763.87 144.156C763.87 142.313 762.9 141.245 761.299 141.245C755.767 141.245 746.694 153.958 739.756 171.182L732.235 189.766H724.423L739.901 146.922C740.483 145.272 740.823 144.302 740.823 143.671C740.823 142.798 740.483 142.216 739.659 142.216C737.815 142.216 734.418 145.515 731.167 150.367L729.518 148.863C733.642 142.119 739.61 137.897 744.802 137.897C747.519 137.897 748.635 139.11 748.635 141.779C748.635 144.351 747.616 147.407 745.093 153.133L745.432 153.278C752.322 142.41 757.563 137.994 763.531 137.994C768.431 137.994 770.857 140.857 770.857 146.34C770.857 149.154 770.275 151.92 768.916 155.171L759.406 178.121C758.484 180.45 757.805 182.682 757.805 183.749C757.805 184.671 758.145 185.059 758.824 185.059C760.668 185.059 764.113 181.905 768.237 176.423L769.935 177.878C764.21 186.369 758.727 190.785 753.729 190.785Z" fill="black"/>
<path d="M797.724 126.835C794.619 126.835 792.678 124.7 792.678 121.4C792.678 117.858 795.492 114.85 798.549 114.85C801.314 114.85 803.789 117.131 803.789 120.139C803.789 123.535 800.781 126.835 797.724 126.835ZM779.965 190.785C776.86 190.785 774.725 188.989 774.725 185.35C774.725 183.749 775.016 181.614 775.938 179.14L789.039 144.884C789.33 144.059 789.427 143.526 789.427 143.089C789.427 142.507 789.087 142.216 788.408 142.216C786.516 142.216 783.75 144.496 781.275 148.184L779.432 146.485C783.119 141.148 788.311 137.897 792.629 137.897C795.637 137.897 797.869 139.596 797.869 142.604C797.869 144.399 797.481 146.68 796.608 148.96L783.653 181.954C783.459 182.439 783.41 182.827 783.41 183.215C783.41 184.283 783.993 185.059 785.011 185.059C786.516 185.059 788.165 183.555 793.406 177.344L795.104 178.558C790.058 186.127 783.993 190.785 779.965 190.785Z" fill="black"/>
<path d="M828.216 190.785C825.111 190.785 823.412 188.989 823.412 185.642C823.412 182.973 824.48 179.043 826.372 174.627L837.338 148.766C837.92 147.407 838.357 145.564 838.357 144.156C838.357 142.313 837.386 141.245 835.785 141.245C830.254 141.245 821.181 153.958 814.242 171.182L806.721 189.766H798.91L814.388 146.922C814.97 145.272 815.31 144.302 815.31 143.671C815.31 142.798 814.97 142.216 814.145 142.216C812.301 142.216 808.905 145.515 805.654 150.367L804.004 148.863C808.128 142.119 814.097 137.897 819.288 137.897C822.005 137.897 823.121 139.11 823.121 141.779C823.121 144.351 822.102 147.407 819.579 153.133L819.919 153.278C826.809 142.41 832.049 137.994 838.017 137.994C842.918 137.994 845.344 140.857 845.344 146.34C845.344 149.154 844.762 151.92 843.403 155.171L833.893 178.121C832.971 180.45 832.292 182.682 832.292 183.749C832.292 184.671 832.631 185.059 833.311 185.059C835.154 185.059 838.599 181.905 842.724 176.423L844.422 177.878C838.696 186.369 833.214 190.785 828.216 190.785Z" fill="black"/>
<path d="M857.515 214.366C845.821 214.366 837.864 208.592 837.864 199.858C837.864 192.434 843.638 186.709 851.353 186.709C849.121 184.671 847.859 181.663 847.859 178.655C847.859 172.687 852.323 169.047 859.844 169.047L859.941 168.659C856.011 165.36 854.167 161.284 854.167 156.19C854.167 146.582 861.833 137.897 872.168 137.897C874.885 137.897 877.263 138.674 879.203 140.081C882.551 134.452 886.385 132.754 889.684 132.754C892.45 132.754 894.245 134.938 894.245 137.558C894.245 139.741 892.692 141.439 890.848 141.439C888.519 141.439 887.986 138.771 885.996 138.771C884.104 138.771 882.697 139.693 881.193 142.022C883.376 144.69 884.638 148.669 884.638 153.666C884.638 164.292 877.263 172.104 867.753 172.104C866.103 172.104 863.483 171.813 861.493 171.813C856.447 171.813 854.118 173.317 854.118 176.131C854.118 178.363 855.428 179.916 858.146 181.032L870.761 186.127C875.856 188.213 879.203 193.065 879.203 198.596C879.203 207.718 870.179 214.366 857.515 214.366ZM865.812 168.805C871.731 168.805 877.408 158.422 877.408 147.941C877.408 143.526 876.195 141.488 873.09 141.488C867.365 141.488 861.008 151.532 861.008 160.945C861.008 165.942 862.755 168.805 865.812 168.805ZM858.679 211.503C866.976 211.503 872.75 207.33 872.75 201.799C872.75 198.596 870.227 195.297 866.782 193.89L856.447 189.766C855.283 189.329 854.652 189.135 853.924 189.135C848.733 189.135 844.899 194.084 844.899 200.052C844.899 207.185 850.334 211.503 858.679 211.503Z" fill="black"/>
<path d="M8.73369 300.831C2.95975 300.831 0 296.61 0 288.313C0 270.409 15.478 247.944 28.9182 247.944C32.0235 247.944 33.8188 249.205 35.8567 252.456L45.1726 223.684L38.962 222.471L38.5738 221.112H53.9548L32.3147 289.332C31.0531 293.408 31.2472 295.106 32.8969 295.106C34.5466 295.106 36.9241 292.486 41.388 286.566L42.9892 287.925C37.749 296.367 32.7514 300.831 28.1904 300.831C24.6969 300.831 23.2898 298.454 23.2898 293.893C23.2898 291.612 24.1632 289.089 25.6674 285.499L25.4733 285.159C19.0686 296.513 14.5562 300.831 8.73369 300.831ZM10.2378 297.386C15.7206 297.386 25.91 282.054 32.1206 264.053C33.5762 259.637 34.0129 257.745 34.1099 255.853C33.7218 252.844 32.4117 251.049 30.3253 251.049C22.2224 251.049 7.22956 278.075 7.22956 292C7.22956 295.785 8.44257 297.386 10.2378 297.386Z" fill="black"/>
<path d="M55.3104 300.831C49.779 300.831 46.4311 296.076 46.4311 288.07C46.4311 270.7 63.0251 247.944 76.3683 247.944C79.328 247.944 81.1233 249.205 83.0641 252.456L84.3742 248.914H92.5256L78.7458 289.332C77.2416 293.602 77.6298 295.106 79.1825 295.106C80.7836 295.106 83.5978 292.486 88.1588 286.566L89.7114 287.925C84.1315 296.367 78.8913 300.831 74.4274 300.831C71.4192 300.831 69.6724 298.939 69.6724 295.251C69.6724 292.389 70.2062 289.574 72.3896 285.499L71.9044 285.159C65.6452 296.173 60.7447 300.831 55.3104 300.831ZM56.863 297.386C62.3458 297.386 72.6807 282.248 79.1825 264.053C80.7836 259.637 80.9292 257.648 80.9292 255.853C80.9292 252.844 79.328 251.049 77.2416 251.049C69.1387 251.049 53.8062 277.93 53.8062 291.806C53.8062 295.688 54.6796 297.386 56.863 297.386Z" fill="black"/>
<path d="M135.175 280.307C127.024 309.516 117.708 324.412 105.092 324.412C99.5125 324.412 96.4558 321.258 96.4558 316.794C96.4558 313.932 97.9114 311.894 100.289 311.894C105.675 311.894 103.103 321.161 107.276 321.161C112.71 321.161 119.163 306.508 124.937 286.081L134.593 252.02H116.155L108.295 280.307C100.143 309.759 89.2262 324.412 75.3979 324.412C69.721 324.412 66.5671 321.258 66.5671 316.794C66.5671 313.932 68.0713 311.894 70.3517 311.894C75.8345 311.894 73.36 321.161 77.6298 321.161C83.8404 321.161 92.2345 306.799 98.1055 286.081L107.664 252.02H100.92L101.89 248.914H108.537C113.778 231.592 122.608 224.897 133.914 224.897C138.62 224.897 142.259 225.964 144.928 228.147C149.44 222.81 155.02 220.093 161.619 220.093C168.557 220.093 173.555 224.266 173.555 230.088C173.555 232.902 172.148 234.746 169.673 234.746C167.587 234.746 165.937 233 165.937 230.476C165.937 228.681 166.471 227.517 166.471 226.061C166.471 224.12 164.773 223.004 161.764 223.004C154.389 223.004 149.052 230.234 144.637 246.294L143.909 248.914H152.691L151.672 252.02H143.035L135.175 280.307ZM133.234 227.662C126.538 227.662 121.589 233.048 117.028 248.914H135.466L136.194 246.294C137.456 241.83 138.96 237.949 140.658 234.601C139.93 229.894 137.553 227.662 133.234 227.662Z" fill="black"/>
<path d="M159.125 300.831C151.458 300.831 147.189 294.718 147.189 284.917C147.189 267.837 162.327 247.944 175.67 247.944C183.336 247.944 187.703 254.009 187.703 263.713C187.703 280.986 172.516 300.831 159.125 300.831ZM158.203 297.386C166.257 297.386 180.522 272.059 180.522 257.842C180.522 253.572 179.406 251.292 176.64 251.292C168.149 251.292 154.564 275.406 154.564 290.448C154.564 295.009 155.631 297.386 158.203 297.386Z" fill="black"/>
<path d="M200.826 300.831C195.052 300.831 192.092 296.61 192.092 288.313C192.092 270.409 207.57 247.944 221.01 247.944C224.116 247.944 225.911 249.205 227.949 252.456L237.265 223.684L231.054 222.471L230.666 221.112H246.047L224.407 289.332C223.145 293.408 223.339 295.106 224.989 295.106C226.639 295.106 229.016 292.486 233.48 286.566L235.081 287.925C229.841 296.367 224.843 300.831 220.282 300.831C216.789 300.831 215.382 298.454 215.382 293.893C215.382 291.612 216.255 289.089 217.759 285.499L217.565 285.159C211.161 296.513 206.648 300.831 200.826 300.831ZM202.33 297.386C207.813 297.386 218.002 282.054 224.213 264.053C225.668 259.637 226.105 257.745 226.202 255.853C225.814 252.844 224.504 251.049 222.417 251.049C214.314 251.049 199.322 278.075 199.322 292C199.322 295.785 200.535 297.386 202.33 297.386Z" fill="black"/>
<path d="M262.112 236.881C259.006 236.881 257.065 234.746 257.065 231.447C257.065 227.905 259.88 224.897 262.936 224.897C265.702 224.897 268.177 227.177 268.177 230.185C268.177 233.582 265.168 236.881 262.112 236.881ZM244.353 300.831C241.248 300.831 239.113 299.036 239.113 295.397C239.113 293.796 239.404 291.661 240.326 289.186L253.426 254.931C253.718 254.106 253.815 253.572 253.815 253.136C253.815 252.553 253.475 252.262 252.796 252.262C250.903 252.262 248.138 254.543 245.663 258.23L243.819 256.532C247.507 251.195 252.699 247.944 257.017 247.944C260.025 247.944 262.257 249.642 262.257 252.65C262.257 254.446 261.869 256.726 260.996 259.007L248.041 292C247.847 292.486 247.798 292.874 247.798 293.262C247.798 294.329 248.38 295.106 249.399 295.106C250.903 295.106 252.553 293.602 257.793 287.391L259.492 288.604C254.445 296.173 248.38 300.831 244.353 300.831Z" fill="black"/>
<path d="M268.635 300.831C266.063 300.831 264.51 298.454 264.51 294.766C264.51 291.37 265.966 287.148 277.223 255.076L288.285 223.684L282.123 222.471L281.929 221.112H297.941L280.085 270.554C274.02 287.391 272.565 291.224 272.565 293.408C272.565 294.378 273.487 295.106 274.263 295.106C275.573 295.106 277.562 293.99 282.754 287.391L284.549 288.604C279.115 296.416 273.001 300.831 268.635 300.831Z" fill="black"/>
<path d="M301.338 300.831C293.429 300.831 288.286 296.61 288.286 291.37C288.286 289.089 289.79 287.197 291.925 287.197C294.739 287.197 295.37 289.477 296.001 291.952C296.729 294.766 297.505 297.823 301.823 297.823C306.336 297.823 309.296 293.99 309.296 288.604C309.296 285.838 308.131 283.121 304.638 277.541C300.368 270.651 298.767 266.576 298.767 262.354C298.767 254.397 305.462 247.944 313.711 247.944C320.455 247.944 326.132 252.117 326.132 256.775C326.132 259.104 324.58 260.753 322.445 260.753C320.31 260.753 319.194 259.249 318.854 256.532C318.32 251.825 317.544 250.758 314.196 250.758C309.441 250.758 306.918 254.106 306.918 259.346C306.918 262.646 308.18 265.799 311.77 271.913C315.749 278.56 317.107 282.151 317.107 286.081C317.107 294.621 310.217 300.831 301.338 300.831Z" fill="black"/>
<path d="M372.136 236.881C369.03 236.881 367.09 234.746 367.09 231.447C367.09 227.905 369.904 224.897 372.961 224.897C375.726 224.897 378.201 227.177 378.201 230.185C378.201 233.582 375.193 236.881 372.136 236.881ZM354.377 300.831C351.272 300.831 349.137 299.036 349.137 295.397C349.137 293.796 349.428 291.661 350.35 289.186L363.451 254.931C363.742 254.106 363.839 253.572 363.839 253.136C363.839 252.553 363.499 252.262 362.82 252.262C360.927 252.262 358.162 254.543 355.687 258.23L353.843 256.532C357.531 251.195 362.723 247.944 367.041 247.944C370.049 247.944 372.281 249.642 372.281 252.65C372.281 254.446 371.893 256.726 371.02 259.007L358.065 292C357.871 292.486 357.822 292.874 357.822 293.262C357.822 294.329 358.404 295.106 359.423 295.106C360.927 295.106 362.577 293.602 367.817 287.391L369.516 288.604C364.469 296.173 358.404 300.831 354.377 300.831Z" fill="black"/>
<path d="M402.628 300.831C399.523 300.831 397.824 299.036 397.824 295.688C397.824 293.019 398.892 289.089 400.784 284.674L411.75 258.812C412.332 257.454 412.769 255.61 412.769 254.203C412.769 252.359 411.798 251.292 410.197 251.292C404.666 251.292 395.592 264.004 388.654 281.229L381.133 299.812H373.321L388.799 256.969C389.382 255.319 389.721 254.349 389.721 253.718C389.721 252.844 389.382 252.262 388.557 252.262C386.713 252.262 383.317 255.562 380.066 260.414L378.416 258.91C382.54 252.165 388.508 247.944 393.7 247.944C396.417 247.944 397.533 249.157 397.533 251.826C397.533 254.397 396.514 257.454 393.991 263.179L394.331 263.325C401.221 252.456 406.461 248.041 412.429 248.041C417.33 248.041 419.756 250.904 419.756 256.386C419.756 259.201 419.173 261.966 417.815 265.217L408.305 288.167C407.383 290.496 406.704 292.728 406.704 293.796C406.704 294.718 407.043 295.106 407.722 295.106C409.566 295.106 413.011 291.952 417.135 286.469L418.834 287.925C413.108 296.416 407.625 300.831 402.628 300.831Z" fill="black"/>
<path d="M456.755 300.831C448.847 300.831 443.703 296.61 443.703 291.37C443.703 289.089 445.208 287.197 447.342 287.197C450.157 287.197 450.787 289.477 451.418 291.952C452.146 294.766 452.922 297.823 457.241 297.823C461.753 297.823 464.713 293.99 464.713 288.604C464.713 285.838 463.548 283.121 460.055 277.541C455.785 270.651 454.184 266.576 454.184 262.354C454.184 254.397 460.88 247.944 469.128 247.944C469.759 247.944 470.39 247.992 471.021 248.041C468.158 244.79 466.605 241.102 466.605 237.172C466.605 231.689 469.71 228.39 474.66 228.39C482.714 228.39 488.779 236.881 496.882 236.881C498.968 236.881 501.055 236.347 502.656 235.377C502.801 234.989 502.801 234.601 502.801 234.213V230.574C502.801 226.886 504.063 224.897 506.295 224.897C508.09 224.897 509.061 226.304 509.061 228.584C509.061 230.476 508.478 232.369 507.265 234.213L502.898 247.944C513.913 249.399 520.123 256.338 520.123 266.964C520.123 283.509 505.276 298.793 489.361 298.793C488.003 298.793 486.45 298.745 485.237 298.599L477.425 320.919L485.674 322.035V323.83H462.578V322.374L469.031 321.21L494.019 251.534C490.235 252.359 487.42 253.572 485.577 255.076L484.946 253.136C487.712 251.049 491.205 249.399 494.941 248.623C498.483 245.13 500.812 241.83 501.928 238.628C500.084 239.404 497.998 239.792 495.766 239.792C487.954 239.792 484.364 234.504 478.105 234.504C473.641 234.504 471.166 236.881 471.166 241.2C471.166 244.305 472.282 246.343 475.727 249.399C479.22 251.001 481.549 253.766 481.549 256.775C481.549 259.104 479.997 260.753 477.862 260.753C475.727 260.753 474.611 259.249 474.271 256.532C473.738 251.825 472.961 250.758 469.613 250.758C464.858 250.758 462.335 254.106 462.335 259.346C462.335 262.646 463.597 265.799 467.187 271.913C471.166 278.56 472.525 282.151 472.525 286.081C472.525 294.621 465.635 300.831 456.755 300.831ZM488.245 296.076C500.133 296.076 511.681 280.598 511.681 264.683C511.681 256.338 508.478 251.049 503.432 251.049C502.171 251.049 501.685 251.292 501.54 252.117L486.11 296.028C486.644 296.076 486.838 296.076 488.245 296.076Z" fill="black"/>
<path d="M520.397 299.812L535.972 256.969C536.409 255.61 536.845 254.349 536.845 253.427C536.845 252.65 536.409 252.262 535.778 252.262C533.934 252.262 530.295 255.61 527.093 260.414L525.589 258.91C529.858 252.359 535.584 247.944 539.999 247.944C542.231 247.944 543.735 249.642 543.735 252.844C543.735 255.465 543.056 257.842 540.339 263.179L540.679 263.325C546.258 252.456 551.11 247.944 556.399 247.944C559.844 247.944 562.416 250.03 562.416 253.33C562.416 255.95 561.154 257.648 558.874 257.648C555.72 257.648 555.817 254.203 552.809 254.203C548.248 254.203 543.008 263.228 535.729 281.229L528.209 299.812H520.397Z" fill="black"/>
<path d="M582.802 236.881C579.697 236.881 577.756 234.746 577.756 231.447C577.756 227.905 580.57 224.897 583.627 224.897C586.392 224.897 588.867 227.177 588.867 230.185C588.867 233.582 585.859 236.881 582.802 236.881ZM565.043 300.831C561.938 300.831 559.803 299.036 559.803 295.397C559.803 293.796 560.094 291.661 561.016 289.186L574.117 254.931C574.408 254.106 574.505 253.572 574.505 253.136C574.505 252.553 574.165 252.262 573.486 252.262C571.594 252.262 568.828 254.543 566.353 258.23L564.51 256.532C568.197 251.195 573.389 247.944 577.707 247.944C580.716 247.944 582.948 249.642 582.948 252.65C582.948 254.446 582.559 256.726 581.686 259.007L568.731 292C568.537 292.486 568.488 292.874 568.488 293.262C568.488 294.329 569.071 295.106 570.09 295.106C571.594 295.106 573.243 293.602 578.484 287.391L580.182 288.604C575.136 296.173 569.071 300.831 565.043 300.831Z" fill="black"/>
<path d="M613.294 300.831C610.189 300.831 608.491 299.036 608.491 295.688C608.491 293.019 609.558 289.089 611.45 284.674L622.416 258.812C622.998 257.454 623.435 255.61 623.435 254.203C623.435 252.359 622.464 251.292 620.863 251.292C615.332 251.292 606.259 264.004 599.32 281.229L591.799 299.812H583.988L599.466 256.969C600.048 255.319 600.388 254.349 600.388 253.718C600.388 252.844 600.048 252.262 599.223 252.262C597.379 252.262 593.983 255.562 590.732 260.414L589.082 258.91C593.207 252.165 599.175 247.944 604.366 247.944C607.083 247.944 608.199 249.157 608.199 251.826C608.199 254.397 607.18 257.454 604.657 263.179L604.997 263.325C611.887 252.456 617.127 248.041 623.095 248.041C627.996 248.041 630.422 250.904 630.422 256.386C630.422 259.201 629.84 261.966 628.481 265.217L618.971 288.167C618.049 290.496 617.37 292.728 617.37 293.796C617.37 294.718 617.709 295.106 618.389 295.106C620.232 295.106 623.677 291.952 627.802 286.469L629.5 287.925C623.774 296.416 618.292 300.831 613.294 300.831Z" fill="black"/>
<path d="M642.593 324.412C630.899 324.412 622.942 318.638 622.942 309.905C622.942 302.481 628.716 296.756 636.431 296.756C634.199 294.718 632.937 291.709 632.937 288.701C632.937 282.733 637.401 279.094 644.922 279.094L645.019 278.706C641.089 275.406 639.245 271.331 639.245 266.236C639.245 256.629 646.911 247.944 657.246 247.944C659.963 247.944 662.341 248.72 664.282 250.127C667.629 244.499 671.463 242.801 674.762 242.801C677.528 242.801 679.323 244.984 679.323 247.604C679.323 249.788 677.77 251.486 675.926 251.486C673.597 251.486 673.064 248.817 671.074 248.817C669.182 248.817 667.775 249.739 666.271 252.068C668.454 254.737 669.716 258.715 669.716 263.713C669.716 274.339 662.341 282.151 652.831 282.151C651.181 282.151 648.561 281.86 646.572 281.86C641.525 281.86 639.196 283.364 639.196 286.178C639.196 288.41 640.506 289.963 643.224 291.079L655.839 296.173C660.934 298.26 664.282 303.112 664.282 308.643C664.282 317.765 655.257 324.412 642.593 324.412ZM650.89 278.851C656.809 278.851 662.486 268.468 662.486 257.988C662.486 253.572 661.273 251.534 658.168 251.534C652.443 251.534 646.086 261.578 646.086 270.991C646.086 275.989 647.833 278.851 650.89 278.851ZM643.757 321.549C652.054 321.549 657.828 317.377 657.828 311.845C657.828 308.643 655.305 305.344 651.86 303.937L641.525 299.812C640.361 299.376 639.73 299.182 639.002 299.182C633.811 299.182 629.978 304.131 629.978 310.099C629.978 317.231 635.412 321.549 643.757 321.549Z" fill="black"/>
<path d="M679.694 300.831C676.443 300.831 674.745 298.793 674.745 295.154C674.745 292 675.376 288.798 680.277 275.358L688.719 252.02H682.072L682.897 248.914H689.835L694.881 234.795L703.566 233.824L698.132 248.914H705.168L704.294 252.02H697.016L690.272 270.554C683.188 289.817 682.751 291.467 682.751 292.825C682.751 294.232 683.333 295.106 684.546 295.106C686.196 295.106 688.574 292.825 692.892 287.391L694.542 288.604C689.35 296.367 683.673 300.831 679.694 300.831Z" fill="black"/>
<path d="M724.004 236.881C720.899 236.881 718.958 234.746 718.958 231.447C718.958 227.905 721.772 224.897 724.829 224.897C727.595 224.897 730.069 227.177 730.069 230.185C730.069 233.582 727.061 236.881 724.004 236.881ZM706.246 300.831C703.14 300.831 701.005 299.036 701.005 295.397C701.005 293.796 701.297 291.661 702.219 289.186L715.319 254.931C715.61 254.106 715.707 253.572 715.707 253.136C715.707 252.553 715.368 252.262 714.688 252.262C712.796 252.262 710.03 254.543 707.556 258.23L705.712 256.532C709.4 251.195 714.591 247.944 718.91 247.944C721.918 247.944 724.15 249.642 724.15 252.65C724.15 254.446 723.762 256.726 722.888 259.007L709.933 292C709.739 292.486 709.691 292.874 709.691 293.262C709.691 294.329 710.273 295.106 711.292 295.106C712.796 295.106 714.446 293.602 719.686 287.391L721.384 288.604C716.338 296.173 710.273 300.831 706.246 300.831Z" fill="black"/>
<path d="M775.651 300.831C772.595 300.831 770.896 299.036 770.896 295.785C770.896 293.262 771.77 289.72 773.759 284.674L783.803 258.812C785.647 254.154 785.21 251.292 782.541 251.292C777.495 251.292 768.664 264.053 762.696 279.967L755.273 299.812H746.588L762.405 258.812C763.036 257.066 763.473 255.319 763.473 254.203C763.473 252.456 762.454 251.292 760.853 251.292C755.612 251.292 747.17 263.762 740.328 281.229L733.002 299.812H725.19L740.668 256.969C741.978 253.815 741.881 252.262 740.377 252.262C738.436 252.262 734.894 255.61 731.934 260.414L730.285 258.91C734.409 252.165 740.377 247.944 745.569 247.944C748.14 247.944 749.402 249.157 749.402 251.826C749.402 254.349 748.383 257.648 745.763 263.179L746.199 263.325C752.507 252.456 757.456 248.041 763.279 248.041C767.548 248.041 769.829 250.418 769.829 255.076C769.829 257.551 769.198 260.268 767.742 263.179L768.034 263.325C773.856 252.747 779.096 248.041 784.919 248.041C789.48 248.041 791.906 251.049 791.906 256.532C791.906 259.201 791.372 261.675 789.965 265.217L781.28 288.167C779.193 293.699 779.145 295.106 780.892 295.106C782.687 295.106 786.277 291.709 790.159 286.469L791.809 287.925C786.374 296.27 780.697 300.831 775.651 300.831Z" fill="black"/>
<path d="M805.041 300.831C798.345 300.831 794.561 296.076 794.561 287.779C794.561 270.166 812.368 247.944 826.633 247.944C831.388 247.944 834.347 250.418 834.347 254.543C834.347 262.646 823.091 270.651 806.982 273.999C803.877 280.792 802.372 286.566 802.372 290.982C802.372 295.397 803.877 297.386 807.03 297.386C812.028 297.386 818.918 292.098 823.624 284.577L825.371 285.887C818.821 295.785 811.882 300.831 805.041 300.831ZM808.777 270.749C818.724 268.468 827.943 260.414 827.943 253.815C827.943 251.923 827.118 250.904 825.323 250.904C820.956 250.904 814.939 256.969 811.3 265.169L808.777 270.749Z" fill="black"/>
</g>
<defs>
<clipPath id="clip0_245_42">
<rect width="895" height="325" fill="white"/>
</clipPath>
</defs>
</svg>
