<svg width="895" height="325" viewBox="0 0 895 325" fill="none" xmlns="http://www.w3.org/2000/svg">
<style>
path {
    fill: #0c0d0d;
}

@media (prefers-color-scheme: dark) {
    path {
        fill: white;
    }
}
</style>
<g clip-path="url(#clip0_200_69)">
<path d="M653.996 290.686C642.485 290.686 635 284.544 635 276.918C635 273.6 637.189 270.846 640.296 270.846C644.392 270.846 645.31 274.165 646.228 277.766C647.287 281.861 648.417 286.309 654.702 286.309C661.27 286.309 665.578 280.731 665.578 272.894C665.578 268.87 663.883 264.916 658.798 256.796C652.584 246.77 650.253 240.84 650.253 234.697C650.253 223.118 659.999 213.728 672.004 213.728C672.922 213.728 673.769 213.798 674.687 213.869C670.45 209.138 668.261 203.772 668.261 198.054C668.261 190.075 672.71 185.274 679.984 185.274C691.777 185.274 700.534 197.63 712.256 197.63C715.293 197.63 718.4 196.853 720.66 195.441C720.801 194.876 720.801 194.312 720.801 193.747V188.451C720.801 183.085 722.637 180.191 725.956 180.191C728.498 180.191 729.981 182.238 729.981 185.557C729.981 188.31 729.205 191.064 727.439 193.747L721.154 215.14H731.606L730.405 219.658H719.601L709.996 246.629C699.898 274.659 699.051 277.06 699.051 279.037C699.051 281.084 699.827 282.355 701.593 282.355C703.994 282.355 707.454 279.037 713.739 271.129L716.211 272.894C708.584 284.191 700.251 290.686 693.542 290.686C688.811 290.686 687.328 287.933 687.328 281.79C687.328 277.836 688.317 273.176 695.378 253.619L707.595 219.658H697.991L699.192 215.14H709.361C714.375 209.915 717.906 204.973 719.601 200.172C716.988 201.301 713.88 201.866 710.632 201.866C699.192 201.866 694.037 194.17 684.927 194.17C678.43 194.17 674.758 197.63 674.758 203.914C674.758 208.362 676.453 211.327 681.255 215.634C686.481 217.964 690.082 222.13 690.082 226.578C690.082 229.967 687.822 232.367 684.715 232.367C681.608 232.367 679.984 230.178 679.489 226.225C678.713 219.376 677.583 217.823 672.71 217.823C665.789 217.823 662.117 222.694 662.117 230.32C662.117 235.121 663.953 239.71 669.179 248.606C674.97 258.279 676.947 263.504 676.947 269.223C676.947 281.649 666.919 290.686 653.996 290.686Z" fill="black"/>
<path d="M745.073 290.686C733.915 290.686 727.701 281.79 727.701 267.528C727.701 242.675 749.734 213.728 769.154 213.728C780.311 213.728 786.667 222.553 786.667 236.674C786.667 261.809 764.563 290.686 745.073 290.686ZM743.731 285.673C755.454 285.673 776.215 248.818 776.215 228.131C776.215 221.918 774.591 218.599 770.566 218.599C758.208 218.599 738.435 253.69 738.435 275.577C738.435 282.214 739.988 285.673 743.731 285.673Z" fill="black"/>
<path d="M788.414 289.204L811.082 226.86C811.718 224.883 812.353 223.047 812.353 221.706C812.353 220.576 811.718 220.011 810.8 220.011C808.116 220.011 802.82 224.883 798.159 231.873L795.97 229.684C802.184 220.153 810.517 213.728 816.943 213.728C820.192 213.728 822.381 216.199 822.381 220.859C822.381 224.671 821.392 228.131 817.438 235.897L817.932 236.109C826.053 220.294 833.115 213.728 840.812 213.728C845.826 213.728 849.569 216.764 849.569 221.565C849.569 225.377 847.733 227.849 844.414 227.849C839.824 227.849 839.965 222.836 835.587 222.836C828.948 222.836 821.322 235.968 810.729 262.162L799.783 289.204H788.414Z" fill="black"/>
<path d="M852.499 290.686C842.753 290.686 837.245 283.767 837.245 271.694C837.245 246.064 863.162 213.728 883.924 213.728C890.844 213.728 895.152 217.328 895.152 223.33C895.152 235.121 878.768 246.77 855.323 251.642C850.804 261.527 848.614 269.929 848.614 276.354C848.614 282.779 850.804 285.673 855.394 285.673C862.668 285.673 872.695 277.977 879.545 267.034L882.087 268.94C872.554 283.343 862.456 290.686 852.499 290.686ZM857.936 246.912C872.413 243.593 885.83 231.873 885.83 222.271C885.83 219.517 884.63 218.035 882.017 218.035C875.661 218.035 866.905 226.86 861.608 238.792L857.936 246.912Z" fill="black"/>
<path d="M327.015 289.013L349.684 226.669C350.319 224.692 350.955 222.857 350.955 221.515C350.955 220.386 350.319 219.821 349.401 219.821C346.718 219.821 341.421 224.692 336.761 231.682L334.572 229.494C340.786 219.962 349.119 213.537 355.545 213.537C358.794 213.537 360.983 216.008 360.983 220.668C360.983 224.481 359.994 227.94 356.039 235.707L356.534 235.919C364.655 220.103 371.717 213.537 379.414 213.537C384.428 213.537 388.171 216.573 388.171 221.374C388.171 225.187 386.335 227.658 383.016 227.658C378.425 227.658 378.567 222.645 374.188 222.645C367.55 222.645 359.923 235.777 349.331 261.971L338.385 289.013H327.015Z" fill="black"/>
<path d="M391.1 290.496C381.355 290.496 375.847 283.576 375.847 271.503C375.847 245.874 401.764 213.537 422.525 213.537C429.446 213.537 433.754 217.138 433.754 223.139C433.754 234.93 417.37 246.58 393.925 251.451C389.405 261.336 387.216 269.738 387.216 276.163C387.216 282.588 389.405 285.483 393.996 285.483C401.269 285.483 411.297 277.787 418.147 266.843L420.689 268.75C411.156 283.153 401.057 290.496 391.1 290.496ZM396.538 246.721C411.015 243.403 424.432 231.682 424.432 222.08C424.432 219.327 423.232 217.844 420.619 217.844C414.263 217.844 405.506 226.669 400.21 238.602L396.538 246.721Z" fill="black"/>
<path d="M440.707 290.496C432.657 290.496 427.784 283.576 427.784 271.927C427.784 246.65 451.936 213.537 471.356 213.537C475.663 213.537 478.276 215.373 481.101 220.103L483.008 214.949H494.872L474.816 273.762C472.627 279.976 473.192 282.164 475.452 282.164C477.782 282.164 481.878 278.352 488.516 269.738L490.776 271.715C482.655 284 475.028 290.496 468.531 290.496C464.153 290.496 461.61 287.742 461.61 282.376C461.61 278.21 462.387 274.115 465.565 268.185L464.859 267.69C455.749 283.718 448.617 290.496 440.707 290.496ZM442.967 285.483C450.947 285.483 465.989 263.454 475.452 236.978C477.782 230.553 477.994 227.658 477.994 225.045C477.994 220.668 475.663 218.056 472.627 218.056C460.834 218.056 438.518 257.17 438.518 277.363C438.518 283.012 439.789 285.483 442.967 285.483Z" fill="black"/>
<path d="M514.433 290.496C504.405 290.496 499.32 283.012 499.32 269.032C499.32 253.711 506.524 237.472 518.882 226.034C527.073 218.409 536.536 213.819 544.304 213.537C540.208 208.807 538.019 203.511 538.019 197.863C538.019 189.885 542.539 185.084 549.742 185.084C561.535 185.084 570.292 197.439 582.085 197.439C585.122 197.439 588.158 196.663 590.559 195.251C590.63 194.686 590.63 194.121 590.63 193.556V188.261C590.63 182.895 592.466 180 595.856 180C598.327 180 599.881 182.048 599.881 185.366C599.881 188.12 598.963 190.873 597.268 193.556L591.054 214.949H601.434L600.163 219.468H589.429L579.825 246.439C569.727 274.468 568.809 276.869 568.809 278.846C568.809 280.893 569.586 282.164 571.422 282.164C573.752 282.164 577.354 278.846 583.568 270.938L585.969 272.703C578.413 284 570.009 290.496 563.23 290.496C558.569 290.496 557.086 287.742 557.086 281.599C557.086 277.646 558.075 272.986 565.137 253.428L577.354 219.468H567.75L568.95 214.949H579.19C584.133 209.724 587.735 204.782 589.429 199.981C586.675 201.111 583.639 201.676 580.32 201.676C568.95 201.676 563.654 193.98 554.685 193.98C548.259 193.98 544.587 197.651 544.587 203.723C544.587 207.747 545.999 210.572 549.883 214.314C555.391 216.079 559.134 220.88 559.134 226.316C559.134 229.635 557.016 231.824 553.979 231.824C550.872 231.824 549.177 229.776 548.541 225.187C547.835 219.962 546.423 217.844 543.527 217.844C529.404 217.844 510.902 253.64 510.902 275.174C510.902 282.164 512.738 285.483 517.822 285.483C524.319 285.483 532.935 279.27 543.174 266.843L545.787 268.608C535.477 282.941 524.743 290.496 514.433 290.496Z" fill="black"/>
<path d="M84.0357 290.686C80.2929 290.686 78.0331 287.227 78.0331 281.861C78.0331 277.272 78.8805 274.659 96.6763 224.107L109.105 188.734C107.905 182.45 104.444 177.437 98.7243 177.437C88.6965 177.437 80.9285 187.957 74.4316 211.327L73.3723 215.14H86.013L84.53 219.658H72.1012L60.7317 260.821C48.8678 303.678 32.9081 325 12.8525 325C4.59018 325 0 320.411 0 313.915C0 309.749 2.11855 306.784 5.50822 306.784C13.4175 306.784 9.81593 320.27 16.0303 320.27C25.1401 320.27 37.2864 299.371 45.8312 269.223L59.8136 219.658H49.9271L51.4101 215.14H61.0848L62.144 211.327C69.2765 186.121 81.8465 173.201 99.2186 173.201C105.362 173.201 110.306 175.037 114.26 178.284L125.983 174.684L126.477 175.248L100.702 246.629C91.8037 271.129 89.8264 276.707 89.8264 279.884C89.8264 281.296 91.0975 282.355 92.2274 282.355C94.0635 282.355 97.0294 280.731 104.656 271.129L107.198 272.894C99.3598 284.261 90.3913 290.686 84.0357 290.686Z" fill="black"/>
<path d="M158.752 290.686C155.009 290.686 152.114 287.439 152.114 282.567C152.114 279.107 153.173 274.659 155.786 268.587L155.15 268.234C145.476 284.191 138.343 290.475 129.798 290.475C122.807 290.475 119.347 286.097 119.347 278.119C119.347 274.306 120.406 270.07 122.313 265.481L136.013 232.014C137.708 228.131 138.343 225.448 138.343 223.754C138.343 222.553 137.849 221.988 137.002 221.988C134.812 221.988 130.928 225.236 126.409 230.743L123.725 228.555C130.787 218.952 137.778 213.728 144.346 213.728C148.654 213.728 151.337 216.199 151.337 221C151.337 224.883 149.925 230.532 147.171 237.168L131.846 274.8C130.787 277.413 130.293 280.025 130.293 281.79C130.293 284.261 131.917 285.673 133.824 285.673C141.45 285.673 153.809 267.316 163.625 242.322L174.288 215.14H185.94L163.13 277.413C162.353 279.601 161.859 281.508 161.859 282.637C161.859 283.767 162.707 284.261 163.483 284.261C166.308 284.261 171.251 279.46 175.912 272.47L178.313 274.659C172.028 284.191 164.331 290.686 158.752 290.686Z" fill="black"/>
<path d="M245.37 260.821C233.506 303.325 219.947 325 201.586 325C193.465 325 189.016 320.411 189.016 313.915C189.016 309.749 191.135 306.784 194.595 306.784C202.434 306.784 198.691 320.27 204.764 320.27C212.673 320.27 222.066 298.947 230.469 269.223L244.522 219.658H217.687L206.247 260.821C194.383 303.678 178.494 325 158.368 325C150.106 325 145.515 320.411 145.515 313.915C145.515 309.749 147.705 306.784 151.024 306.784C159.004 306.784 155.402 320.27 161.616 320.27C170.656 320.27 182.872 299.371 191.417 269.223L205.329 219.658H195.513L196.926 215.14H206.6C214.227 189.934 227.079 180.191 243.534 180.191C250.383 180.191 255.68 181.744 259.564 184.921C266.131 177.155 274.252 173.201 283.857 173.201C293.955 173.201 301.229 179.273 301.229 187.745C301.229 191.84 299.181 194.523 295.579 194.523C292.543 194.523 290.142 191.982 290.142 188.31C290.142 185.698 290.918 184.003 290.918 181.885C290.918 179.061 288.447 177.437 284.068 177.437C273.334 177.437 265.566 187.957 259.14 211.327L258.081 215.14H270.863L269.38 219.658H256.81L245.37 260.821ZM242.545 184.215C232.8 184.215 225.596 192.052 218.958 215.14H245.793L246.853 211.327C248.689 204.832 250.878 199.183 253.349 194.312C252.29 187.463 248.83 184.215 242.545 184.215Z" fill="black"/>
<path d="M99.4304 4.23626C88.6965 4.23626 80.9285 14.7563 74.4316 38.1263L73.3723 41.9389H94.1341C98.0181 41.9389 103.526 40.5268 106.492 40.5268C109.458 40.5268 111.647 43.4922 111.647 47.5166C111.647 49.9172 111.012 53.3062 109.811 56.6246L91.6624 104.635C91.3094 105.483 91.3093 105.906 91.3093 106.471C91.3093 108.024 92.2274 109.154 93.7104 109.154C95.8289 109.154 98.1593 107.036 105.927 97.928L108.258 99.6932C100.913 110.707 92.4392 117.485 86.013 117.485C81.3522 117.485 78.6687 114.449 78.6687 109.437C78.6687 106.965 79.3043 103.718 80.5048 100.54L98.8655 50.6938C99.148 49.8466 99.4304 48.7875 99.4304 48.2227C99.4304 47.093 98.8655 46.4576 97.8768 46.4576H72.1012L60.7317 87.6198C48.8678 130.477 32.9081 151.799 12.8525 151.799C4.59018 151.799 0 147.21 0 140.714C0 136.549 2.11855 133.583 5.50822 133.583C13.4175 133.583 9.81593 147.069 16.0303 147.069C25.1401 147.069 37.2864 126.17 45.8312 96.0217L59.8136 46.4576H49.9271L51.4101 41.9389H61.0848L62.144 38.1263C69.2765 12.9206 81.8465 0 99.2186 0C111.365 0 120.687 6.42499 120.687 14.8975C120.687 19.8398 117.791 23.2994 113.978 23.2994C110.094 23.2994 107.128 19.981 107.128 15.4623C107.128 12.2145 108.54 10.8731 108.54 8.68432C108.54 6.00136 104.868 4.23626 99.4304 4.23626Z" fill="black"/>
<path d="M156.438 117.485C151.919 117.485 149.447 114.873 149.447 110.001C149.447 106.118 151 100.399 153.755 93.9742L169.714 56.3422C170.562 54.3652 171.197 51.6823 171.197 49.6348C171.197 46.9518 169.785 45.3985 167.455 45.3985C159.404 45.3985 146.198 63.8968 136.1 88.9613L125.154 116.003H113.785L136.312 53.6592C137.159 51.2587 137.654 49.8466 137.654 48.9287C137.654 47.6578 137.159 46.8106 135.959 46.8106C133.275 46.8106 128.332 51.6117 123.601 58.6721L121.2 56.4834C127.202 46.6694 135.888 40.5268 143.444 40.5268C147.399 40.5268 149.023 42.2919 149.023 46.1752C149.023 49.9172 147.54 54.3652 143.868 62.6965L144.362 62.9084C154.39 47.093 162.017 40.668 170.703 40.668C177.835 40.668 181.366 44.8337 181.366 52.812C181.366 56.907 180.519 60.9314 178.542 65.6619L164.7 99.0577C163.359 102.447 162.37 105.695 162.37 107.248C162.37 108.589 162.864 109.154 163.853 109.154C166.537 109.154 171.55 104.565 177.553 96.5866L180.025 98.7047C171.692 111.06 163.712 117.485 156.438 117.485Z" fill="black"/>
<path d="M199.131 117.485C190.728 117.485 186.42 111.343 186.42 99.2695C186.42 73.2166 208.947 40.5268 228.508 40.5268C233.028 40.5268 235.641 42.3625 238.607 47.093L252.165 5.22471L243.126 3.45961L242.561 1.48269H264.947L233.452 100.752C231.616 106.683 231.898 109.154 234.299 109.154C236.7 109.154 240.16 105.341 246.657 96.7278L248.988 98.7047C241.361 110.99 234.087 117.485 227.449 117.485C222.365 117.485 220.317 114.026 220.317 107.389C220.317 104.071 221.588 100.399 223.777 95.1745L223.495 94.6803C214.173 111.202 207.605 117.485 199.131 117.485ZM201.32 112.473C209.3 112.473 224.13 90.1616 233.169 63.9674C235.288 57.5424 235.923 54.7889 236.065 52.0353C235.5 47.6578 233.593 45.0455 230.556 45.0455C218.763 45.0455 196.942 84.372 196.942 104.635C196.942 110.143 198.708 112.473 201.32 112.473Z" fill="black"/>
<path d="M303.947 151.799V149.681L313.34 147.987L349.708 46.5989C344.2 47.6579 340.104 49.5642 337.35 51.753L336.502 48.9288C340.245 45.681 345.541 43.3511 350.979 42.3626L355.075 30.4305L366.868 28.8066L362.702 41.3742C378.732 43.3511 387.63 54.1535 387.63 68.2038C387.63 93.6919 365.668 115.367 342.999 115.367C341.304 115.367 339.115 115.297 336.926 115.085L325.557 147.563L337.491 149.187V151.799H303.947ZM341.304 111.414C358.677 111.414 375.413 89.032 375.413 65.309C375.413 52.6708 370.258 45.8928 363.196 45.8928C361.713 45.8928 360.936 46.1046 360.513 47.4461L338.197 111.343C339.68 111.414 340.245 111.414 341.304 111.414Z" fill="black"/>
<path d="M413.521 118.333C402.364 118.333 396.149 109.437 396.149 95.1746C396.149 70.3219 418.182 41.3742 437.602 41.3742C448.76 41.3742 455.116 50.1997 455.116 64.3205C455.116 89.4556 433.012 118.333 413.521 118.333ZM412.18 113.32C423.902 113.32 444.664 76.4645 444.664 55.7774C444.664 49.5642 443.04 46.2459 439.015 46.2459C426.656 46.2459 406.883 81.3361 406.883 103.223C406.883 109.86 408.437 113.32 412.18 113.32Z" fill="black"/>
<path d="M475.294 118.333C465.548 118.333 460.04 111.414 460.04 99.3402C460.04 74.2051 484.968 42.5744 505.518 41.3742C501.422 36.6437 499.233 31.3484 499.233 25.7C499.233 17.7217 503.612 12.9207 510.956 12.9207C522.678 12.9207 531.435 25.2764 543.158 25.2764C546.265 25.2764 549.372 24.4997 551.632 23.0877C551.773 22.5228 551.773 21.958 551.773 21.3932V16.0978C551.773 10.7319 553.68 7.83716 556.928 7.83716C559.471 7.83716 560.954 9.88467 560.954 13.2031C560.954 15.9566 560.106 18.7102 558.411 21.3932L552.126 42.7862H562.578L561.307 47.3049H550.643L540.969 74.2757C530.941 102.306 530.023 104.706 530.023 106.683C530.023 108.731 530.8 110.001 532.565 110.001C534.895 110.001 538.426 106.683 544.782 98.7754L547.112 100.54C539.556 111.837 531.223 118.333 524.515 118.333C519.713 118.333 518.23 115.579 518.23 109.437C518.23 105.483 519.289 100.823 526.351 81.2655L538.568 47.3049H528.893L530.164 42.7862H540.262C545.276 37.5615 548.878 32.6192 550.643 27.8181C547.96 28.9478 544.923 29.5126 541.604 29.5126C530.164 29.5126 524.938 21.8168 515.899 21.8168C509.332 21.8168 505.73 25.2764 505.73 31.5602C505.73 35.514 507.142 38.2676 510.744 41.8684C515.264 42.9981 517.947 46.2459 517.947 50.9763C517.947 62.7672 501.564 74.4169 478.118 79.2886C473.599 89.1732 471.41 97.5751 471.41 104C471.41 110.425 473.599 113.32 478.189 113.32C485.463 113.32 495.49 105.624 502.34 94.6803L504.883 96.5867C495.349 110.99 485.251 118.333 475.294 118.333ZM480.731 74.5581C495.208 71.2397 508.625 59.5194 508.625 49.9173C508.625 47.1637 507.425 45.681 504.812 45.681C498.456 45.681 489.7 54.5065 484.403 66.4387L480.731 74.5581Z" fill="black"/>
<path d="M620.574 118.333C609.063 118.333 601.578 112.19 601.578 104.565C601.578 101.247 603.767 98.493 606.874 98.493C610.97 98.493 611.888 101.811 612.806 105.412C613.865 109.507 614.995 113.955 621.28 113.955C627.848 113.955 632.155 108.378 632.155 100.54C632.155 96.516 630.461 92.5622 625.376 84.4427C619.162 74.4169 616.831 68.4862 616.831 62.3436C616.831 50.7645 626.577 41.3742 638.582 41.3742C639.5 41.3742 640.418 41.4448 641.336 41.5154C637.169 36.7849 634.91 31.419 634.91 25.7C634.91 17.7217 639.429 12.9207 646.632 12.9207C658.355 12.9207 667.182 25.2764 678.975 25.2764C682.012 25.2764 685.048 24.4997 687.379 23.0877C687.591 22.5228 687.591 21.958 687.591 21.3932V16.0978C687.591 10.7319 689.427 7.83716 692.675 7.83716C695.288 7.83716 696.7 9.88467 696.7 13.2031C696.7 15.9566 695.853 18.7102 694.088 21.3932L687.732 41.3742C703.762 43.4923 712.801 53.5887 712.801 69.051C712.801 93.127 691.192 115.367 668.03 115.367C666.052 115.367 663.792 115.297 662.027 115.085L650.657 147.563L662.663 149.187V151.799H629.048V149.681L638.44 147.987L674.809 46.5989C669.301 47.7991 665.205 49.5642 662.521 51.753L661.603 48.9288C665.628 45.8928 670.713 43.4923 676.151 42.3626C681.306 37.2791 684.695 32.478 686.32 27.8181C683.636 28.9478 680.6 29.5126 677.351 29.5126C665.982 29.5126 660.756 21.8168 651.646 21.8168C645.149 21.8168 641.548 25.2764 641.548 31.5602C641.548 36.0788 643.172 39.0442 648.186 43.4923C653.27 45.8222 656.66 49.8467 656.66 54.2241C656.66 57.6131 654.4 60.0137 651.293 60.0137C648.186 60.0137 646.562 57.8249 646.067 53.8711C645.29 47.0225 644.16 45.4692 639.288 45.4692C632.367 45.4692 628.695 50.3409 628.695 57.9661C628.695 62.7672 630.531 67.3565 635.757 76.2526C641.548 85.9254 643.525 91.1501 643.525 96.8691C643.525 109.295 633.497 118.333 620.574 118.333ZM666.405 111.414C683.707 111.414 700.514 88.8908 700.514 65.7326C700.514 53.5887 695.853 45.8928 688.509 45.8928C686.673 45.8928 685.966 46.2459 685.755 47.4461L663.298 111.343C664.075 111.414 664.357 111.414 666.405 111.414Z" fill="black"/>
<path d="M729.654 118.333C721.603 118.333 716.731 111.414 716.731 99.7638C716.731 74.4875 740.882 41.3742 760.302 41.3742C764.61 41.3742 767.223 43.2099 770.047 47.9403L771.954 42.7862H783.818L763.762 101.6C761.573 107.813 762.138 110.001 764.398 110.001C766.728 110.001 770.824 106.189 777.462 97.5751L779.722 99.552C771.601 111.837 763.974 118.333 757.477 118.333C753.099 118.333 750.557 115.579 750.557 110.213C750.557 106.048 751.334 101.953 754.511 96.0218L753.805 95.5276C744.695 111.555 737.563 118.333 729.654 118.333ZM731.914 113.32C739.893 113.32 754.935 91.2913 764.398 64.8148C766.728 58.3898 766.94 55.495 766.94 52.8826C766.94 48.5052 764.61 45.8928 761.573 45.8928C749.78 45.8928 727.465 85.0076 727.465 105.2C727.465 110.849 728.736 113.32 731.914 113.32Z" fill="black"/>
<path d="M799.241 118.333C789.214 118.333 784.129 110.849 784.129 96.8691C784.129 81.548 791.332 65.309 803.69 53.8711C812.094 46.034 821.91 41.3742 829.749 41.3742C837.87 41.3742 843.943 47.1637 843.943 54.1535C843.943 57.4719 841.824 59.6606 838.788 59.6606C835.68 59.6606 833.986 57.6131 833.35 53.0239C832.644 47.7991 831.231 45.681 828.336 45.681C814.212 45.681 795.711 81.4773 795.711 103.012C795.711 110.001 797.547 113.32 802.631 113.32C809.128 113.32 817.743 107.107 827.983 94.6803L830.596 96.4454C820.286 110.778 809.552 118.333 799.241 118.333Z" fill="black"/>
<path d="M853.282 118.333C843.537 118.333 838.028 111.414 838.028 99.3402C838.028 73.7109 863.945 41.3742 884.707 41.3742C891.628 41.3742 895.935 44.975 895.935 50.9763C895.935 62.7672 879.552 74.4169 856.107 79.2886C851.587 89.1732 849.398 97.5751 849.398 104C849.398 110.425 851.587 113.32 856.177 113.32C863.451 113.32 873.479 105.624 880.329 94.6803L882.871 96.5867C873.338 110.99 863.239 118.333 853.282 118.333ZM858.72 74.5581C873.196 71.2397 886.614 59.5194 886.614 49.9173C886.614 47.1637 885.413 45.681 882.8 45.681C876.445 45.681 867.688 54.5065 862.392 66.4387L858.72 74.5581Z" fill="black"/>
</g>
<defs>
<clipPath id="clip0_200_69">
<rect width="895" height="325" fill="white"/>
</clipPath>
</defs>
</svg>
