<svg width="895" height="325" viewBox="0 0 895 325" fill="none" xmlns="http://www.w3.org/2000/svg">
<g clip-path="url(#clip0_130_6)">
<path d="M0 138.641V134.59L11.4712 131.215V17.3828L0 14.1763V10.1259H39.3902V14.1763L26.6537 17.3828V131.637H64.5257C69.4178 121.427 72.623 111.638 75.8282 98.8122H79.8769L74.816 138.641H0Z" fill="black"/>
<path d="M103.227 30.7153C97.744 30.7153 94.2858 25.6523 94.2858 19.7456C94.2858 13.3325 97.744 8.3539 103.227 8.3539C108.878 8.3539 112.336 13.3325 112.336 19.7456C112.336 25.6523 108.878 30.7153 103.227 30.7153ZM86.1884 138.641V134.928L96.4788 132.312V63.5402L86.3571 59.0679V56.452L108.794 48.4357H110.312V132.312L120.433 134.928V138.641H86.1884Z" fill="black"/>
<path d="M163.141 140.413C156.393 140.413 149.898 137.544 144.584 132.65H143.825L136.993 138.641H134.631V15.1045L124.678 10.5478V8.18512L146.946 0H148.464V59.8273C154.116 52.3173 161.116 48.4357 169.129 48.4357C186.589 48.4357 198.567 65.6497 198.567 90.7114C198.567 118.895 183.3 140.413 163.141 140.413ZM162.803 134.169C175.118 134.169 183.131 118.642 183.131 95.4368C183.131 72.1472 175.54 58.0553 163.056 58.0553C157.068 58.0553 152.007 61.4306 148.464 66.8311V113.157C148.464 125.815 154.116 134.169 162.803 134.169Z" fill="black"/>
<path d="M208.924 138.641V134.928L219.046 132.312V63.5402L209.177 58.8991V56.452L230.77 48.3513H232.204V66.2404C238.614 54.7644 245.109 48.2669 250.761 48.2669C255.653 48.2669 259.533 53.0767 259.533 59.0679C259.533 64.6372 256.159 68.8563 251.773 68.8563C249.748 68.8563 247.808 67.8437 246.543 65.7341C244.688 63.1183 243.675 62.3588 242.073 62.3588C239.711 62.3588 235.915 66.156 232.795 72.2316V132.312L246.712 134.928V138.641H208.924Z" fill="black"/>
<path d="M298.201 140.413C278.548 140.413 265.474 122.355 265.474 95.7744C265.474 67.6749 280.15 48.4357 301.743 48.4357C319.625 48.4357 329.24 61.5994 329.662 86.5767L328.734 87.5893H280.15C280.066 88.6018 280.066 89.6988 280.066 90.7958C280.066 114.929 287.742 127.502 302.84 127.502C312.455 127.502 320.468 122.777 325.613 114.001L328.06 115.942C323.336 131.468 312.371 140.413 298.201 140.413ZM300.394 54.0893C289.007 54.0893 282.006 64.2996 280.403 82.5263L314.227 81.0074C314.48 79.7417 314.648 76.957 314.648 74.3412C314.648 60.8399 309.841 54.0893 300.394 54.0893Z" fill="black"/>
<path d="M49.8492 325C20.8338 325 0.92782 298.335 0.92782 259.772C0.92782 220.619 21.4242 192.941 50.271 192.941C60.8987 192.941 71.2735 196.654 79.3708 203.236H79.8769L86.3716 194.713H88.9864V233.445H84.6003C83.0821 227.285 81.2264 222.475 79.2021 218.256C72.7917 205.683 64.61 200.704 52.8014 200.704C30.9555 200.704 18.8094 221.294 18.8094 258.506C18.8094 295.719 31.2085 316.984 52.8014 316.984C63.5135 316.984 72.2856 311.583 78.1056 301.204C81.3951 295.382 83.8412 287.872 85.1064 279.096H88.9864V323.228H85.6125L79.5395 312.258C70.0082 321.118 60.8987 325 49.8492 325Z" fill="black"/>
<path d="M139.12 325C118.371 325 103.61 305.254 103.61 279.011C103.61 252.768 118.371 233.023 139.12 233.023C159.87 233.023 174.715 252.768 174.715 279.011C174.715 305.254 159.87 325 139.12 325ZM139.036 317.237C152.11 317.237 159.364 301.795 159.364 278.843C159.364 256.059 152.278 240.702 139.12 240.702C126.046 240.702 118.877 256.059 118.877 279.011C118.877 301.879 126.046 317.237 139.036 317.237Z" fill="black"/>
<path d="M184.623 323.228V319.515L194.745 316.899V248.296L184.707 243.655V241.208L206.3 233.023H207.819V247.115C215.241 238.255 224.351 233.023 232.954 233.023C245.69 233.023 252.185 240.702 252.185 255.722V317.068L262.138 319.515V323.228H228.568V319.515L238.352 317.068V262.894C238.352 249.562 234.304 242.98 224.688 242.98C218.531 242.98 212.879 246.44 208.493 252.768V316.899L218.446 319.515V323.228H184.623Z" fill="black"/>
<path d="M299.163 325C283.137 325 271.159 306.014 271.159 280.446C271.159 252.431 285.414 233.023 306.417 233.023C311.056 233.023 316.201 233.951 321.009 235.807V199.945L311.056 195.135V192.772L333.07 184.587H334.673V309.811L343.867 312.427V314.452L323.033 325H321.936V311.077L321.346 310.824C315.779 320.19 307.935 325 299.163 325ZM305.067 313.861C311.73 313.861 317.803 310.149 321.009 304.157V257.241C321.009 245.174 315.863 238.592 306.501 238.592C294.439 238.592 286.342 254.119 286.342 277.746C286.342 300.023 293.343 313.861 305.067 313.861Z" fill="black"/>
<path d="M386.007 325C366.355 325 353.281 306.942 353.281 280.362C353.281 252.262 367.957 233.023 389.55 233.023C407.432 233.023 417.047 246.187 417.469 271.164L416.541 272.176H367.957C367.873 273.189 367.873 274.286 367.873 275.383C367.873 299.516 375.548 312.089 390.647 312.089C400.262 312.089 408.275 307.364 413.42 298.588L415.866 300.529C411.143 316.055 400.178 325 386.007 325ZM388.2 238.676C376.814 238.676 369.813 248.887 368.21 267.113L402.033 265.595C402.286 264.329 402.455 261.544 402.455 258.928C402.455 245.427 397.647 238.676 388.2 238.676Z" fill="black"/>
<path d="M426.957 323.228V319.515L437.078 316.899V248.296L427.041 243.655V241.208L448.634 233.023H450.152V247.115C457.575 238.255 466.684 233.023 475.288 233.023C488.024 233.023 494.519 240.702 494.519 255.722V317.068L504.472 319.515V323.228H470.902V319.515L480.686 317.068V262.894C480.686 249.562 476.637 242.98 467.022 242.98C460.864 242.98 455.213 246.44 450.827 252.768V316.899L460.78 319.515V323.228H426.957Z" fill="black"/>
<path d="M534.496 325C528.76 325 521 323.397 515.855 321.287L514.927 294.2H518.47C519.65 310.824 525.386 319.431 535.423 319.431C543.268 319.431 548.329 313.524 548.329 304.579C548.329 297.154 545.292 292.428 536.604 286.859L531.037 283.399C519.482 276.227 514.927 268.97 514.927 257.663C514.927 241.883 524.036 233.023 540.315 233.023C546.642 233.023 553.052 234.204 556.426 235.976V259.097H553.305C552.04 245.511 546.895 238.508 537.954 238.508C531.037 238.508 526.483 243.571 526.483 251.503C526.483 258.506 529.772 262.894 538.544 268.126L544.617 271.839C555.245 278.336 559.631 285.509 559.631 297.576C559.631 314.368 550.015 325 534.496 325Z" fill="black"/>
<path d="M604.948 325C585.295 325 572.221 306.942 572.221 280.362C572.221 252.262 586.898 233.023 608.491 233.023C626.372 233.023 635.988 246.187 636.409 271.164L635.482 272.176H586.898C586.813 273.189 586.813 274.286 586.813 275.383C586.813 299.516 594.489 312.089 609.587 312.089C619.203 312.089 627.216 307.364 632.361 298.588L634.807 300.529C630.083 316.055 619.118 325 604.948 325ZM607.141 238.676C595.754 238.676 588.753 248.887 587.151 267.113L620.974 265.595C621.227 264.329 621.396 261.544 621.396 258.928C621.396 245.427 616.588 238.676 607.141 238.676Z" fill="black"/>
<path d="M675.925 325C659.899 325 647.922 306.014 647.922 280.446C647.922 252.431 662.176 233.023 683.179 233.023C687.818 233.023 692.963 233.951 697.771 235.807V199.945L687.818 195.135V192.772L709.833 184.587H711.435V309.811L720.629 312.427V314.452L699.795 325H698.699V311.077L698.108 310.824C692.541 320.19 684.697 325 675.925 325ZM681.829 313.861C688.493 313.861 694.566 310.149 697.771 304.157V257.241C697.771 245.174 692.626 238.592 683.263 238.592C671.201 238.592 663.104 254.119 663.104 277.746C663.104 300.023 670.105 313.861 681.829 313.861Z" fill="black"/>
<path d="M495.98 140.413C473.881 140.413 463 127.84 463 103.116C463 55.7769 502.981 8.35383 542.793 8.35383C551.733 8.35383 559.746 11.0541 564.807 15.5264L569.868 10.1259H572.989L559.409 48.4356H555.276C556.71 42.2757 557.385 37.1283 557.385 32.7404C557.385 20.8425 552.324 15.6951 541.359 15.6951C509.897 15.6951 478.351 58.9834 478.351 102.103C478.351 122.355 485.605 132.481 499.775 132.481C517.741 132.481 534.442 116.279 544.058 89.6988H548.106L532.587 138.641H528.791L529.887 125.73H529.297C518.163 136.194 508.548 140.413 495.98 140.413Z" fill="black"/>
<path d="M574.876 140.413C565.261 140.413 559.441 132.143 559.441 118.22C559.441 88.0111 588.287 48.4356 611.483 48.4356C616.628 48.4356 619.749 50.6296 623.123 56.2832L625.4 50.1233H639.571L615.616 120.414C613.001 127.84 613.676 130.456 616.375 130.456C619.158 130.456 624.051 125.899 631.979 115.604L634.678 117.967C624.978 132.65 615.869 140.413 608.109 140.413C602.879 140.413 599.843 137.122 599.843 130.709C599.843 125.73 600.771 120.836 604.566 113.748L603.723 113.157C592.842 132.312 584.323 140.413 574.876 140.413ZM577.575 134.422C587.106 134.422 605.072 108.094 616.375 76.4507C619.158 68.7718 619.411 65.3122 619.411 62.19C619.411 56.9583 616.628 53.8361 613.001 53.8361C598.915 53.8361 572.261 100.584 572.261 124.718C572.261 131.468 573.78 134.422 577.575 134.422Z" fill="black"/>
<path d="M658.259 140.413C644.51 140.413 635.569 133.071 635.569 123.958C635.569 119.992 638.184 116.701 641.895 116.701C646.787 116.701 647.884 120.667 648.98 124.971C650.246 129.865 651.595 135.181 659.102 135.181C666.947 135.181 672.092 128.515 672.092 119.148C672.092 114.339 670.067 109.613 663.994 99.9091C656.572 87.9267 653.788 80.8386 653.788 73.4973C653.788 59.6585 665.428 48.4356 679.767 48.4356C691.492 48.4356 701.36 55.6925 701.36 63.7933C701.36 67.8436 698.661 70.7126 694.95 70.7126C691.238 70.7126 689.298 68.0968 688.708 63.3714C687.78 55.1862 686.431 53.3298 680.611 53.3298C672.345 53.3298 667.959 59.1522 667.959 68.2655C667.959 74.0036 670.152 79.4884 676.393 90.1207C683.31 101.681 685.672 107.925 685.672 114.76C685.672 129.612 673.694 140.413 658.259 140.413Z" fill="black"/>
<path d="M703.547 140.413C699.076 140.413 696.377 136.278 696.377 129.865C696.377 123.958 698.908 116.617 718.476 60.8399L737.707 6.24425L726.995 4.13469L726.658 1.77197H754.492L723.453 87.7579C712.909 117.039 710.379 123.705 710.379 127.502C710.379 129.19 711.981 130.456 713.331 130.456C715.608 130.456 719.067 128.515 728.092 117.039L731.213 119.148C721.766 132.734 711.138 140.413 703.547 140.413Z" fill="black"/>
<path d="M762.264 140.413C748.937 140.413 741.515 129.781 741.515 112.735C741.515 83.0325 767.831 48.4356 791.027 48.4356C804.353 48.4356 811.945 58.9834 811.945 75.86C811.945 105.9 785.544 140.413 762.264 140.413ZM760.662 134.422C774.663 134.422 799.461 90.3738 799.461 65.6497C799.461 58.224 797.521 54.258 792.714 54.258C777.953 54.258 754.335 96.1962 754.335 122.355C754.335 130.287 756.191 134.422 760.662 134.422Z" fill="black"/>
<path d="M865.146 140.413C859.747 140.413 856.795 137.291 856.795 131.468C856.795 126.827 858.651 119.992 861.94 112.313L881.003 67.3373C882.015 64.9746 882.774 61.7681 882.774 59.321C882.774 56.1144 881.087 54.258 878.304 54.258C868.688 54.258 852.915 76.3663 840.853 106.322L827.78 138.641H814.2L841.107 64.1308C842.119 61.2618 842.709 59.5741 842.709 58.4772C842.709 56.9583 842.119 55.9457 840.685 55.9457C837.48 55.9457 831.575 61.6837 825.924 70.122L823.056 67.5061C830.226 55.7769 840.6 48.4356 849.626 48.4356C854.349 48.4356 856.289 50.5452 856.289 55.1862C856.289 59.6585 854.518 64.9746 850.132 74.9318L850.722 75.1849C862.699 56.2832 871.809 48.6044 882.184 48.6044C890.703 48.6044 894.92 53.583 894.92 63.1182C894.92 68.0124 893.908 72.8222 891.546 78.4759L875.014 118.389C873.411 122.439 872.231 126.321 872.231 128.177C872.231 129.781 872.821 130.456 874.002 130.456C877.207 130.456 883.196 124.971 890.365 115.435L893.317 117.967C883.364 132.734 873.833 140.413 865.146 140.413Z" fill="black"/>
</g>
<defs>
<clipPath id="clip0_130_6">
<rect width="895" height="325" fill="white"/>
</clipPath>
</defs>
</svg>
