<svg width="774" height="774" viewBox="0 0 774 774" fill="none" xmlns="http://www.w3.org/2000/svg">
<path d="M5.92505 369.797V366.005L16.669 362.845V256.274L5.92505 253.272V249.48H42.8181V253.272L30.8891 256.274V363.24H66.3601C70.9421 353.681 73.9441 344.517 76.9461 332.509H80.7381L75.9981 369.797H5.92505Z" fill="black"/>
<path d="M102.607 268.756C97.4725 268.756 94.2335 264.016 94.2335 258.486C94.2335 252.482 97.4725 247.821 102.607 247.821C107.9 247.821 111.139 252.482 111.139 258.486C111.139 264.016 107.9 268.756 102.607 268.756ZM86.6495 369.797V366.321L96.2875 363.872V299.487L86.8075 295.3V292.851L107.821 285.346H109.243V363.872L118.723 366.321V369.797H86.6495Z" fill="black"/>
<path d="M158.723 371.456C152.403 371.456 146.32 368.77 141.343 364.188H140.632L134.233 369.797H132.021V254.141L122.699 249.875V247.663L143.555 240H144.977V296.011C150.27 288.98 156.827 285.346 164.332 285.346C180.685 285.346 191.903 301.462 191.903 324.925C191.903 351.311 177.604 371.456 158.723 371.456ZM158.407 365.61C169.941 365.61 177.446 351.074 177.446 329.349C177.446 307.545 170.336 294.352 158.644 294.352C153.035 294.352 148.295 297.512 144.977 302.568V345.939C144.977 357.789 150.27 365.61 158.407 365.61Z" fill="black"/>
<path d="M201.604 369.797V366.321L211.084 363.872V299.487L201.841 295.142V292.851L222.065 285.267H223.408V302.015C229.412 291.271 235.495 285.188 240.788 285.188C245.37 285.188 249.004 289.691 249.004 295.3C249.004 300.514 245.844 304.464 241.736 304.464C239.84 304.464 238.023 303.516 236.838 301.541C235.1 299.092 234.152 298.381 232.651 298.381C230.439 298.381 226.884 301.936 223.961 307.624V363.872L236.996 366.321V369.797H201.604Z" fill="black"/>
<path d="M285.221 371.456C266.814 371.456 254.569 354.55 254.569 329.665C254.569 303.358 268.315 285.346 288.539 285.346C305.287 285.346 314.293 297.67 314.688 321.054L313.819 322.002H268.315C268.236 322.95 268.236 323.977 268.236 325.004C268.236 347.598 275.425 359.369 289.566 359.369C298.572 359.369 306.077 354.945 310.896 346.729L313.187 348.546C308.763 363.082 298.493 371.456 285.221 371.456ZM287.275 290.639C276.61 290.639 270.053 300.198 268.552 317.262L300.231 315.84C300.468 314.655 300.626 312.048 300.626 309.599C300.626 296.959 296.123 290.639 287.275 290.639Z" fill="black"/>
<path d="M394.527 371.456C373.829 371.456 363.638 359.685 363.638 336.538C363.638 292.219 401.084 247.821 438.372 247.821C446.746 247.821 454.251 250.349 458.991 254.536L463.731 249.48H466.654L453.935 285.346H450.064C451.407 279.579 452.039 274.76 452.039 270.652C452.039 259.513 447.299 254.694 437.029 254.694C407.562 254.694 378.016 295.221 378.016 335.59C378.016 354.55 384.81 364.03 398.082 364.03C414.909 364.03 430.551 348.862 439.557 323.977H443.349L428.813 369.797H425.258L426.285 357.71H425.732C415.304 367.506 406.298 371.456 394.527 371.456Z" fill="black"/>
<path d="M468.422 371.456C459.416 371.456 453.965 363.714 453.965 350.679C453.965 322.397 480.983 285.346 502.708 285.346C507.527 285.346 510.45 287.4 513.61 292.693L515.743 286.926H529.015L506.579 352.733C504.13 359.685 504.762 362.134 507.29 362.134C509.897 362.134 514.479 357.868 521.905 348.23L524.433 350.442C515.348 364.188 506.816 371.456 499.548 371.456C494.65 371.456 491.806 368.375 491.806 362.371C491.806 357.71 492.675 353.128 496.23 346.492L495.44 345.939C485.249 363.872 477.27 371.456 468.422 371.456ZM470.95 365.847C479.877 365.847 496.704 341.199 507.29 311.574C509.897 304.385 510.134 301.146 510.134 298.223C510.134 293.325 507.527 290.402 504.13 290.402C490.937 290.402 465.973 334.168 465.973 356.762C465.973 363.082 467.395 365.847 470.95 365.847Z" fill="black"/>
<path d="M546.518 371.456C533.641 371.456 525.267 364.583 525.267 356.051C525.267 352.338 527.716 349.257 531.192 349.257C535.774 349.257 536.801 352.97 537.828 356.999C539.013 361.581 540.277 366.558 547.308 366.558C554.655 366.558 559.474 360.317 559.474 351.548C559.474 347.045 557.578 342.621 551.89 333.536C544.938 322.318 542.331 315.682 542.331 308.809C542.331 295.853 553.233 285.346 566.663 285.346C577.644 285.346 586.887 292.14 586.887 299.724C586.887 303.516 584.359 306.202 580.883 306.202C577.407 306.202 575.59 303.753 575.037 299.329C574.168 291.666 572.904 289.928 567.453 289.928C559.711 289.928 555.603 295.379 555.603 303.911C555.603 309.283 557.657 314.418 563.503 324.372C569.981 335.195 572.193 341.041 572.193 347.44C572.193 361.344 560.975 371.456 546.518 371.456Z" fill="black"/>
<path d="M588.935 371.456C584.748 371.456 582.22 367.585 582.22 361.581C582.22 356.051 584.59 349.178 602.918 296.959L620.93 245.846L610.897 243.871L610.581 241.659H636.651L607.579 322.16C597.704 349.573 595.334 355.814 595.334 359.369C595.334 360.949 596.835 362.134 598.099 362.134C600.232 362.134 603.471 360.317 611.924 349.573L614.847 351.548C605.999 364.267 596.045 371.456 588.935 371.456Z" fill="black"/>
<path d="M643.93 371.456C631.448 371.456 624.496 361.502 624.496 345.544C624.496 317.736 649.144 285.346 670.869 285.346C683.351 285.346 690.461 295.221 690.461 311.021C690.461 339.145 665.734 371.456 643.93 371.456ZM642.429 365.847C655.543 365.847 678.769 324.609 678.769 301.462C678.769 294.51 676.952 290.797 672.449 290.797C658.624 290.797 636.504 330.06 636.504 354.55C636.504 361.976 638.242 365.847 642.429 365.847Z" fill="black"/>
<path d="M740.289 371.456C735.233 371.456 732.468 368.533 732.468 363.082C732.468 358.737 734.206 352.338 737.287 345.149L755.141 303.042C756.089 300.83 756.8 297.828 756.8 295.537C756.8 292.535 755.22 290.797 752.613 290.797C743.607 290.797 728.834 311.495 717.537 339.54L705.292 369.797H692.573L717.774 300.04C718.722 297.354 719.275 295.774 719.275 294.747C719.275 293.325 718.722 292.377 717.379 292.377C714.377 292.377 708.847 297.749 703.554 305.649L700.868 303.2C707.583 292.219 717.3 285.346 725.753 285.346C730.177 285.346 731.994 287.321 731.994 291.666C731.994 295.853 730.335 300.83 726.227 310.152L726.78 310.389C737.998 292.693 746.53 285.504 756.247 285.504C764.226 285.504 768.176 290.165 768.176 299.092C768.176 303.674 767.228 308.177 765.016 313.47L749.532 350.837C748.031 354.629 746.925 358.263 746.925 360.001C746.925 361.502 747.478 362.134 748.584 362.134C751.586 362.134 757.195 356.999 763.91 348.072L766.675 350.442C757.353 364.267 748.426 371.456 740.289 371.456Z" fill="black"/>
<path d="M52.614 533.456C25.438 533.456 6.79405 508.492 6.79405 472.389C6.79405 435.733 25.9911 409.821 53.009 409.821C62.9631 409.821 72.6801 413.297 80.2641 419.459H80.7381L86.8211 411.48H89.2701V447.741H85.1621C83.7401 441.974 82.0021 437.471 80.1061 433.521C74.1021 421.75 66.439 417.089 55.3791 417.089C34.9181 417.089 23.542 436.365 23.542 471.204C23.542 506.043 35.1551 525.951 55.3791 525.951C65.4121 525.951 73.6281 520.895 79.0791 511.178C82.1601 505.727 84.451 498.696 85.6361 490.48H89.2701V531.797H86.1101L80.4221 521.527C71.4951 529.822 62.9631 533.456 52.614 533.456Z" fill="black"/>
<path d="M136.226 533.456C116.792 533.456 102.967 514.97 102.967 490.401C102.967 465.832 116.792 447.346 136.226 447.346C155.66 447.346 169.564 465.832 169.564 490.401C169.564 514.97 155.66 533.456 136.226 533.456ZM136.147 526.188C148.392 526.188 155.186 511.731 155.186 490.243C155.186 468.913 148.55 454.535 136.226 454.535C123.981 454.535 117.266 468.913 117.266 490.401C117.266 511.81 123.981 526.188 136.147 526.188Z" fill="black"/>
<path d="M178.844 531.797V528.321L188.324 525.872V461.645L178.923 457.3V455.009L199.147 447.346H200.569V460.539C207.521 452.244 216.053 447.346 224.111 447.346C236.04 447.346 242.123 454.535 242.123 468.597V526.03L251.445 528.321V531.797H220.003V528.321L229.167 526.03V475.312C229.167 462.83 225.375 456.668 216.369 456.668C210.602 456.668 205.309 459.907 201.201 465.832V525.872L210.523 528.321V531.797H178.844Z" fill="black"/>
<path d="M286.122 533.456C271.112 533.456 259.894 515.681 259.894 491.744C259.894 465.516 273.245 447.346 292.916 447.346C297.261 447.346 302.08 448.215 306.583 449.953V416.378L297.261 411.875V409.663L317.88 402H319.381V519.236L327.992 521.685V523.581L308.479 533.456H307.452V520.421L306.899 520.184C301.685 528.953 294.338 533.456 286.122 533.456ZM291.652 523.028C297.893 523.028 303.581 519.552 306.583 513.943V470.019C306.583 458.722 301.764 452.56 292.995 452.56C281.698 452.56 274.114 467.096 274.114 489.216C274.114 510.072 280.671 523.028 291.652 523.028Z" fill="black"/>
<path d="M367.461 533.456C349.054 533.456 336.809 516.55 336.809 491.665C336.809 465.358 350.555 447.346 370.779 447.346C387.527 447.346 396.533 459.67 396.928 483.054L396.059 484.002H350.555C350.476 484.95 350.476 485.977 350.476 487.004C350.476 509.598 357.665 521.369 371.806 521.369C380.812 521.369 388.317 516.945 393.136 508.729L395.427 510.546C391.003 525.082 380.733 533.456 367.461 533.456ZM369.515 452.639C358.85 452.639 352.293 462.198 350.792 479.262L382.471 477.84C382.708 476.655 382.866 474.048 382.866 471.599C382.866 458.959 378.363 452.639 369.515 452.639Z" fill="black"/>
<path d="M405.814 531.797V528.321L415.294 525.872V461.645L405.893 457.3V455.009L426.117 447.346H427.539V460.539C434.491 452.244 443.023 447.346 451.081 447.346C463.01 447.346 469.093 454.535 469.093 468.597V526.03L478.415 528.321V531.797H446.973V528.321L456.137 526.03V475.312C456.137 462.83 452.345 456.668 443.339 456.668C437.572 456.668 432.279 459.907 428.171 465.832V525.872L437.493 528.321V531.797H405.814Z" fill="black"/>
<path d="M506.536 533.456C501.164 533.456 493.896 531.955 489.077 529.98L488.208 504.621H491.526C492.632 520.184 498.004 528.242 507.405 528.242C514.752 528.242 519.492 522.712 519.492 514.338C519.492 507.386 516.648 502.962 508.511 497.748L503.297 494.509C492.474 487.794 488.208 481 488.208 470.414C488.208 455.641 496.74 447.346 511.987 447.346C517.912 447.346 523.916 448.452 527.076 450.111V471.757H524.153C522.968 459.038 518.149 452.481 509.775 452.481C503.297 452.481 499.031 457.221 499.031 464.647C499.031 471.204 502.112 475.312 510.328 480.21L516.016 483.686C525.97 489.769 530.078 496.484 530.078 507.781C530.078 523.502 521.072 533.456 506.536 533.456Z" fill="black"/>
<path d="M572.522 533.456C554.115 533.456 541.87 516.55 541.87 491.665C541.87 465.358 555.616 447.346 575.84 447.346C592.588 447.346 601.594 459.67 601.989 483.054L601.12 484.002H555.616C555.537 484.95 555.537 485.977 555.537 487.004C555.537 509.598 562.726 521.369 576.867 521.369C585.873 521.369 593.378 516.945 598.197 508.729L600.488 510.546C596.064 525.082 585.794 533.456 572.522 533.456ZM574.576 452.639C563.911 452.639 557.354 462.198 555.853 479.262L587.532 477.84C587.769 476.655 587.927 474.048 587.927 471.599C587.927 458.959 583.424 452.639 574.576 452.639Z" fill="black"/>
<path d="M638.999 533.456C623.989 533.456 612.771 515.681 612.771 491.744C612.771 465.516 626.122 447.346 645.793 447.346C650.138 447.346 654.957 448.215 659.46 449.953V416.378L650.138 411.875V409.663L670.757 402H672.258V519.236L680.869 521.685V523.581L661.356 533.456H660.329V520.421L659.776 520.184C654.562 528.953 647.215 533.456 638.999 533.456ZM644.529 523.028C650.77 523.028 656.458 519.552 659.46 513.943V470.019C659.46 458.722 654.641 452.56 645.872 452.56C634.575 452.56 626.991 467.096 626.991 489.216C626.991 510.072 633.548 523.028 644.529 523.028Z" fill="black"/>
</svg>
