<svg width="760" height="473" viewBox="0 0 760 473" fill="none" xmlns="http://www.w3.org/2000/svg">
<path d="M204.589 147V142.728L216.693 139.168V19.107L204.589 15.725V11.4529H246.152V15.725L232.713 19.107V139.613H272.674C277.836 128.844 281.218 118.52 284.6 104.992H288.872L283.532 147H204.589Z" fill="black"/>
<path d="M313.51 33.169C307.725 33.169 304.076 27.829 304.076 21.599C304.076 14.835 307.725 9.58396 313.51 9.58396C319.473 9.58396 323.122 14.835 323.122 21.599C323.122 27.829 319.473 33.169 313.51 33.169ZM295.532 147V143.084L306.39 140.325V67.79L295.71 63.073V60.314L319.384 51.859H320.986V140.325L331.666 143.084V147H295.532Z" fill="black"/>
<path d="M376.729 148.869C369.609 148.869 362.756 145.843 357.149 140.681H356.348L349.139 147H346.647V16.704L336.145 11.8979V9.40595L359.641 0.772949H361.243V63.874C367.206 55.953 374.593 51.859 383.048 51.859C401.471 51.859 414.109 70.015 414.109 96.448C414.109 126.174 398 148.869 376.729 148.869ZM376.373 142.283C389.367 142.283 397.822 125.907 397.822 101.432C397.822 76.868 389.812 62.005 376.64 62.005C370.321 62.005 364.981 65.565 361.243 71.261V120.122C361.243 133.472 367.206 142.283 376.373 142.283Z" fill="black"/>
<path d="M425.038 147V143.084L435.718 140.325V67.79L425.305 62.895V60.314L448.089 51.77H449.602V70.638C456.366 58.534 463.219 51.681 469.182 51.681C474.344 51.681 478.438 56.754 478.438 63.073C478.438 68.947 474.878 73.397 470.25 73.397C468.114 73.397 466.067 72.329 464.732 70.104C462.774 67.345 461.706 66.544 460.015 66.544C457.523 66.544 453.518 70.549 450.225 76.957V140.325L464.91 143.084V147H425.038Z" fill="black"/>
<path d="M519.239 148.869C498.502 148.869 484.707 129.823 484.707 101.788C484.707 72.151 500.193 51.859 522.977 51.859C541.845 51.859 551.991 65.743 552.436 92.087L551.457 93.155H500.193C500.104 94.223 500.104 95.38 500.104 96.537C500.104 121.991 508.203 135.252 524.134 135.252C534.28 135.252 542.735 130.268 548.164 121.012L550.745 123.059C545.761 139.435 534.191 148.869 519.239 148.869ZM521.553 57.822C509.538 57.822 502.151 68.591 500.46 87.815L536.149 86.213C536.416 84.878 536.594 81.941 536.594 79.182C536.594 64.942 531.521 57.822 521.553 57.822Z" fill="black"/>
<path d="M186.986 310.869C163.668 310.869 152.187 297.608 152.187 271.531C152.187 221.602 194.373 171.584 236.381 171.584C245.815 171.584 254.27 174.432 259.61 179.149L264.95 173.453H268.243L253.914 213.859H249.553C251.066 207.362 251.778 201.933 251.778 197.305C251.778 184.756 246.438 179.327 234.868 179.327C201.671 179.327 168.385 224.984 168.385 270.463C168.385 291.823 176.039 302.503 190.991 302.503C209.948 302.503 227.57 285.415 237.716 257.38H241.988L225.612 309H221.607L222.764 295.383H222.141C210.393 306.419 200.247 310.869 186.986 310.869Z" fill="black"/>
<path d="M270.234 310.869C260.088 310.869 253.947 302.147 253.947 287.462C253.947 255.6 284.385 213.859 308.86 213.859C314.289 213.859 317.582 216.173 321.142 222.136L323.545 215.639H338.497L313.221 289.776C310.462 297.608 311.174 300.367 314.022 300.367C316.959 300.367 322.121 295.561 330.487 284.703L333.335 287.195C323.1 302.681 313.488 310.869 305.3 310.869C299.782 310.869 296.578 307.398 296.578 300.634C296.578 295.383 297.557 290.221 301.562 282.745L300.672 282.122C289.191 302.325 280.202 310.869 270.234 310.869ZM273.082 304.55C283.139 304.55 302.096 276.782 314.022 243.407C316.959 235.308 317.226 231.659 317.226 228.366C317.226 222.848 314.289 219.555 310.462 219.555C295.599 219.555 267.475 268.861 267.475 294.315C267.475 301.435 269.077 304.55 273.082 304.55Z" fill="black"/>
<path d="M358.216 310.869C343.709 310.869 334.275 303.126 334.275 293.514C334.275 289.331 337.034 285.86 340.95 285.86C346.112 285.86 347.269 290.043 348.426 294.582C349.761 299.744 351.185 305.351 359.106 305.351C367.383 305.351 372.812 298.32 372.812 288.441C372.812 283.368 370.676 278.384 364.268 268.149C356.436 255.511 353.499 248.035 353.499 240.292C353.499 225.696 365.781 213.859 380.911 213.859C393.282 213.859 403.695 221.513 403.695 230.057C403.695 234.329 400.847 237.355 396.931 237.355C393.015 237.355 390.968 234.596 390.345 229.612C389.366 220.979 387.942 219.021 381.801 219.021C373.079 219.021 368.451 225.162 368.451 234.774C368.451 240.826 370.765 246.611 377.351 257.825C384.649 270.018 387.141 276.604 387.141 283.813C387.141 299.477 374.503 310.869 358.216 310.869Z" fill="black"/>
<path d="M406.002 310.869C401.285 310.869 398.437 306.508 398.437 299.744C398.437 293.514 401.107 285.771 421.755 226.942L442.047 169.359L430.744 167.134L430.388 164.642H459.758L427.006 255.333C415.881 286.216 413.211 293.247 413.211 297.252C413.211 299.032 414.902 300.367 416.326 300.367C418.729 300.367 422.378 298.32 431.901 286.216L435.194 288.441C425.226 302.77 414.012 310.869 406.002 310.869Z" fill="black"/>
<path d="M467.959 310.869C453.897 310.869 446.065 299.655 446.065 281.677C446.065 250.349 473.833 213.859 498.308 213.859C512.37 213.859 520.38 224.984 520.38 242.784C520.38 274.468 492.523 310.869 467.959 310.869ZM466.268 304.55C481.042 304.55 507.208 258.092 507.208 232.015C507.208 224.183 505.161 220 500.088 220C484.513 220 459.593 264.233 459.593 291.823C459.593 300.189 461.551 304.55 466.268 304.55Z" fill="black"/>
<path d="M576.515 310.869C570.819 310.869 567.704 307.576 567.704 301.435C567.704 296.54 569.662 289.331 573.133 281.232L593.247 233.795C594.315 231.303 595.116 227.921 595.116 225.34C595.116 221.958 593.336 220 590.399 220C580.253 220 563.61 243.318 550.883 274.913L537.088 309H522.759L551.15 230.413C552.218 227.387 552.841 225.607 552.841 224.45C552.841 222.848 552.218 221.78 550.705 221.78C547.323 221.78 541.093 227.832 535.13 236.732L532.104 233.973C539.669 221.602 550.616 213.859 560.139 213.859C565.123 213.859 567.17 216.084 567.17 220.979C567.17 225.696 565.301 231.303 560.673 241.805L561.296 242.072C573.934 222.136 583.546 214.037 594.493 214.037C603.482 214.037 607.932 219.288 607.932 229.345C607.932 234.507 606.864 239.58 604.372 245.543L586.928 287.64C585.237 291.912 583.991 296.006 583.991 297.964C583.991 299.655 584.614 300.367 585.86 300.367C589.242 300.367 595.561 294.582 603.126 284.525L606.241 287.195C595.739 302.77 585.682 310.869 576.515 310.869Z" fill="black"/>
<path d="M51.984 472.869C21.368 472.869 0.364014 444.745 0.364014 404.072C0.364014 362.776 21.991 333.584 52.429 333.584C63.643 333.584 74.59 337.5 83.134 344.442H83.668L90.521 335.453H93.28V376.304H88.652C87.05 369.807 85.092 364.734 82.956 360.284C76.192 347.023 67.559 341.772 55.099 341.772C32.048 341.772 19.232 363.488 19.232 402.737C19.232 441.986 32.315 464.414 55.099 464.414C66.402 464.414 75.658 458.718 81.799 447.771C85.27 441.63 87.851 433.709 89.186 424.453H93.28V471H89.72L83.312 459.43C73.255 468.775 63.643 472.869 51.984 472.869Z" fill="black"/>
<path d="M146.179 472.869C124.285 472.869 108.71 452.043 108.71 424.364C108.71 396.685 124.285 375.859 146.179 375.859C168.073 375.859 183.737 396.685 183.737 424.364C183.737 452.043 168.073 472.869 146.179 472.869ZM146.09 464.681C159.885 464.681 167.539 448.394 167.539 424.186C167.539 400.156 160.063 383.958 146.179 383.958C132.384 383.958 124.819 400.156 124.819 424.364C124.819 448.483 132.384 464.681 146.09 464.681Z" fill="black"/>
<path d="M194.192 471V467.084L204.872 464.325V391.968L194.281 387.073V384.492L217.065 375.859H218.667V390.722C226.499 381.377 236.111 375.859 245.189 375.859C258.628 375.859 265.481 383.958 265.481 399.8V464.503L275.983 467.084V471H240.561V467.084L250.885 464.503V407.365C250.885 393.303 246.613 386.361 236.467 386.361C229.97 386.361 224.007 390.01 219.379 396.685V464.325L229.881 467.084V471H194.192Z" fill="black"/>
<path d="M315.05 472.869C298.14 472.869 285.502 452.844 285.502 425.877C285.502 396.329 300.543 375.859 322.704 375.859C327.599 375.859 333.028 376.838 338.101 378.796V340.971L327.599 335.898V333.406L350.828 324.773H352.519V456.849L362.22 459.608V461.744L340.237 472.869H339.08V458.184L338.457 457.917C332.583 467.796 324.306 472.869 315.05 472.869ZM321.28 461.121C328.311 461.121 334.719 457.205 338.101 450.886V401.402C338.101 388.675 332.672 381.733 322.793 381.733C310.066 381.733 301.522 398.109 301.522 423.029C301.522 446.525 308.909 461.121 321.28 461.121Z" fill="black"/>
<path d="M406.685 472.869C385.948 472.869 372.153 453.823 372.153 425.788C372.153 396.151 387.639 375.859 410.423 375.859C429.291 375.859 439.437 389.743 439.882 416.087L438.903 417.155H387.639C387.55 418.223 387.55 419.38 387.55 420.537C387.55 445.991 395.649 459.252 411.58 459.252C421.726 459.252 430.181 454.268 435.61 445.012L438.191 447.059C433.207 463.435 421.637 472.869 406.685 472.869ZM408.999 381.822C396.984 381.822 389.597 392.591 387.906 411.815L423.595 410.213C423.862 408.878 424.04 405.941 424.04 403.182C424.04 388.942 418.967 381.822 408.999 381.822Z" fill="black"/>
<path d="M449.893 471V467.084L460.573 464.325V391.968L449.982 387.073V384.492L472.766 375.859H474.368V390.722C482.2 381.377 491.812 375.859 500.89 375.859C514.329 375.859 521.182 383.958 521.182 399.8V464.503L531.684 467.084V471H496.262V467.084L506.586 464.503V407.365C506.586 393.303 502.314 386.361 492.168 386.361C485.671 386.361 479.708 390.01 475.08 396.685V464.325L485.582 467.084V471H449.893Z" fill="black"/>
<path d="M563.364 472.869C557.312 472.869 549.124 471.178 543.695 468.953L542.716 440.384H546.454C547.7 457.917 553.752 466.995 564.343 466.995C572.62 466.995 577.96 460.765 577.96 451.331C577.96 443.499 574.756 438.515 565.589 432.641L559.715 428.992C547.522 421.427 542.716 413.773 542.716 401.847C542.716 385.204 552.328 375.859 569.505 375.859C576.18 375.859 582.944 377.105 586.504 378.974V403.36H583.211C581.876 389.031 576.447 381.644 567.013 381.644C559.715 381.644 554.909 386.984 554.909 395.35C554.909 402.737 558.38 407.365 567.636 412.883L574.044 416.799C585.258 423.652 589.886 431.217 589.886 443.944C589.886 461.655 579.74 472.869 563.364 472.869Z" fill="black"/>
<path d="M637.703 472.869C616.966 472.869 603.171 453.823 603.171 425.788C603.171 396.151 618.657 375.859 641.441 375.859C660.309 375.859 670.455 389.743 670.9 416.087L669.921 417.155H618.657C618.568 418.223 618.568 419.38 618.568 420.537C618.568 445.991 626.667 459.252 642.598 459.252C652.744 459.252 661.199 454.268 666.628 445.012L669.209 447.059C664.225 463.435 652.655 472.869 637.703 472.869ZM640.017 381.822C628.002 381.822 620.615 392.591 618.924 411.815L654.613 410.213C654.88 408.878 655.058 405.941 655.058 403.182C655.058 388.942 649.985 381.822 640.017 381.822Z" fill="black"/>
<path d="M712.595 472.869C695.685 472.869 683.047 452.844 683.047 425.877C683.047 396.329 698.088 375.859 720.249 375.859C725.144 375.859 730.573 376.838 735.646 378.796V340.971L725.144 335.898V333.406L748.373 324.773H750.064V456.849L759.765 459.608V461.744L737.782 472.869H736.625V458.184L736.002 457.917C730.128 467.796 721.851 472.869 712.595 472.869ZM718.825 461.121C725.856 461.121 732.264 457.205 735.646 450.886V401.402C735.646 388.675 730.217 381.733 720.338 381.733C707.611 381.733 699.067 398.109 699.067 423.029C699.067 446.525 706.454 461.121 718.825 461.121Z" fill="black"/>
</svg>
