<svg width="895" height="325" viewBox="0 0 895 325" fill="none" xmlns="http://www.w3.org/2000/svg">
<style>
path {
    fill: #0c0d0d;
}

@media (prefers-color-scheme: dark) {
    path {
        fill: white;
    }
}
</style>
<g clip-path="url(#clip0_203_162)">
<path d="M100.464 134.59L98.4248 104.557L100.464 107.894C99.3516 113.58 96.7566 118.709 92.6787 123.281C88.7244 127.731 83.7816 131.253 77.8501 133.848C72.0423 136.32 65.9255 137.556 59.4997 137.556C47.1426 137.556 36.5154 134.59 27.6183 128.658C18.7211 122.602 11.8629 114.383 7.04358 104.001C2.34786 93.6197 0 81.9404 0 68.9634C0 55.9864 2.34786 44.2453 7.04358 33.7402C11.7393 23.235 18.5357 15.0162 27.4329 9.08388C36.4536 3.02796 47.1426 0 59.4997 0C72.9691 0 84.2141 3.8313 93.2348 11.4939C102.379 19.0329 108.434 29.0437 111.4 41.5263L95.0884 42.6387C92.7405 34.2345 88.4773 27.5606 82.2987 22.617C76.2437 17.6734 68.6441 15.2016 59.4997 15.2016C49.8612 15.2016 41.7672 17.6116 35.2179 22.4316C28.7922 27.2517 24.0347 33.7402 20.9454 41.8971C17.8561 49.9305 16.3115 58.9526 16.3115 68.9634C16.3115 78.9742 17.8561 87.9963 20.9454 96.0297C24.0347 103.939 28.854 110.304 35.4033 115.124C41.9526 119.944 49.9847 122.354 59.4997 122.354C66.914 122.354 73.3398 120.686 78.7769 117.349C84.2141 114.012 88.4155 109.377 91.3812 103.445C94.4705 97.5128 96.2623 90.8389 96.7566 83.4235H59.4997V68.2219H111.956V134.59H100.464Z" fill="black"/>
<path d="M243.38 68.2219V76.3788C243.38 89.1086 241.279 100.046 237.078 109.192C233 118.338 226.945 125.382 218.913 130.326C211.004 135.146 201.551 137.556 190.553 137.556C178.196 137.556 167.569 134.59 158.672 128.658C149.775 122.602 142.916 114.383 138.097 104.001C133.401 93.6197 131.054 81.9404 131.054 68.9634C131.054 55.9864 133.401 44.2453 138.097 33.7402C142.793 23.235 149.589 15.0162 158.486 9.08388C167.507 3.02796 178.196 0 190.553 0C204.023 0 215.268 3.8313 224.288 11.4939C233.433 19.0329 239.488 29.0437 242.453 41.5263L226.142 42.6387C223.794 34.2345 219.531 27.5606 213.352 22.617C207.297 17.6734 199.698 15.2016 190.553 15.2016C180.915 15.2016 172.821 17.6116 166.271 22.4316C159.846 27.2517 155.088 33.7402 151.999 41.8971C148.91 49.9305 147.365 58.9526 147.365 68.9634C147.365 78.9742 148.91 87.9963 151.999 96.0297C155.088 103.939 159.908 110.304 166.457 115.124C173.006 119.944 181.038 122.354 190.553 122.354C198.215 122.354 204.826 120.686 210.387 117.349C215.947 114.012 220.149 109.377 222.991 103.445C225.957 97.5128 227.563 90.8389 227.81 83.4235H190.553V68.2219H243.38Z" fill="black"/>
<path d="M260.288 85.4627C260.288 75.0811 262.142 66.059 265.849 58.3964C269.556 50.6102 274.746 44.6161 281.419 40.414C288.215 36.212 296.124 34.1109 305.145 34.1109C312.806 34.1109 319.726 35.8412 325.905 39.3017C332.207 42.7623 337.273 48.2002 341.104 55.6156C345.058 63.0311 347.283 72.3003 347.777 83.4235L347.962 90.2827H276.414C277.156 100.417 279.998 108.327 284.941 114.012C290.007 119.574 296.742 122.354 305.145 122.354C310.582 122.354 315.525 120.871 319.973 117.905C324.422 114.939 327.758 110.861 329.983 105.67L346.294 106.782C343.452 115.928 338.262 123.22 330.724 128.658C323.186 134.096 314.66 136.814 305.145 136.814C296.124 136.814 288.215 134.713 281.419 130.511C274.746 126.309 269.556 120.377 265.849 112.714C262.142 104.928 260.288 95.8443 260.288 85.4627ZM331.28 76.7496C329.921 66.986 326.893 59.8795 322.198 55.4303C317.502 50.8574 311.818 48.571 305.145 48.571C297.236 48.571 290.872 51.0428 286.053 55.9864C281.234 60.8064 278.144 67.7275 276.785 76.7496H331.28Z" fill="black"/>
<path d="M386.614 36.3356V134.59H371.414V36.3356H386.614ZM386.984 3.33694V20.9486H371.044V3.33694H386.984Z" fill="black"/>
<path d="M433.315 36.3356V134.59H418.116V36.3356H433.315ZM425.901 21.8755C423.059 21.8755 420.711 21.0104 418.857 19.2801C417.127 17.5498 416.262 15.3252 416.262 12.6062C416.262 9.88722 417.127 7.6626 418.857 5.93234C420.711 4.20207 423.059 3.33694 425.901 3.33694C428.619 3.33694 430.844 4.20207 432.574 5.93234C434.427 7.6626 435.354 9.88722 435.354 12.6062C435.354 15.3252 434.427 17.5498 432.574 19.2801C430.844 21.0104 428.619 21.8755 425.901 21.8755Z" fill="black"/>
<path d="M520.61 66.5534C519.498 61.1154 516.594 56.7898 511.898 53.5764C507.202 50.2395 501.95 48.571 496.143 48.571C490.458 48.571 485.701 49.9923 481.87 52.8349C478.039 55.5539 476.124 59.1998 476.124 63.7726C476.248 68.2219 478.472 71.6824 482.797 74.1542C487.245 76.5024 492.93 78.4181 499.85 79.9011C508.253 81.5078 515.173 83.4235 520.61 85.6481C526.17 87.7491 530.495 90.7153 533.585 94.5466C536.798 98.3779 538.404 103.383 538.404 109.563C538.404 115.619 536.551 120.686 532.843 124.764C529.26 128.843 524.564 131.871 518.756 133.848C512.948 135.826 506.77 136.814 500.22 136.814C492.435 136.814 485.392 135.455 479.09 132.736C472.911 130.017 467.906 126.186 464.076 121.242C460.369 116.175 458.268 110.366 457.774 103.816L473.714 102.704C474.456 106.658 475.939 110.119 478.163 113.085C480.387 116.051 483.353 118.338 487.06 119.944C490.891 121.551 495.278 122.354 500.22 122.354C506.152 122.354 511.342 121.304 515.79 119.203C520.239 116.978 522.463 113.518 522.463 108.821C522.463 105.484 521.475 102.889 519.498 101.035C517.644 99.1812 515.358 97.8218 512.639 96.9566C510.044 95.9679 506.399 94.9792 501.703 93.9904C500.591 93.7433 499.047 93.3725 497.069 92.8781C489.408 91.1479 483.044 89.294 477.978 87.3166C472.911 85.3391 468.71 82.5583 465.373 78.9742C462.037 75.2665 460.369 70.5083 460.369 64.6995C460.245 58.52 461.728 53.1438 464.817 48.571C468.03 43.9982 472.479 40.4758 478.163 38.004C483.847 35.4086 490.396 34.1109 497.811 34.1109C507.697 34.1109 516.223 37.0153 523.39 42.824C530.557 48.5092 534.944 56.0482 536.551 65.4411L520.61 66.5534Z" fill="black"/>
<path d="M582.338 14.0893V108.636C582.338 112.838 583.327 115.99 585.304 118.091C587.405 120.068 590.37 121.057 594.201 121.057H608.288V134.59H594.201C585.551 134.59 578.878 132.365 574.182 127.916C569.487 123.343 567.139 116.916 567.139 108.636V14.0893H582.338ZM608.474 36.3356V49.8687H552.681V36.3356H608.474Z" fill="black"/>
<path d="M705.268 75.8227V61.7334H895.445V75.8227H705.268ZM753.646 126.433L696 68.7781L753.461 11.1232H773.479L716.019 68.5927L773.665 126.433H753.646Z" fill="black"/>
<path d="M286.97 279.58C288.082 285.513 290.182 290.765 293.272 295.338C296.485 299.911 300.686 303.433 305.876 305.905C311.066 308.377 317.059 309.613 323.856 309.613C329.664 309.613 334.668 308.871 338.87 307.388C343.195 305.782 346.531 303.495 348.879 300.529C351.227 297.439 352.401 293.732 352.401 289.406C352.401 282.856 349.373 277.356 343.318 272.907C337.387 268.457 327.748 264.502 314.402 261.042C302.045 257.952 292.098 253.441 284.56 247.509C277.146 241.576 273.438 233.728 273.438 223.965C273.438 216.797 275.23 210.493 278.814 205.055C282.521 199.617 287.587 195.415 294.013 192.449C300.562 189.483 308.039 188 316.441 188C325.709 188 333.927 189.792 341.094 193.376C348.261 196.96 353.945 201.904 358.147 208.207C362.472 214.51 365.067 221.678 365.932 229.712L349.62 230.824C348.879 225.262 347.025 220.442 344.06 216.364C341.094 212.162 337.201 208.949 332.382 206.724C327.686 204.376 322.311 203.202 316.256 203.202C308.471 203.202 302.107 205.117 297.164 208.949C292.221 212.656 289.75 217.662 289.75 223.965C289.75 228.661 291.233 232.554 294.198 235.644C297.288 238.734 300.995 241.144 305.32 242.874C309.645 244.604 315.391 246.458 322.558 248.436L325.709 249.363C338.931 253.07 349.373 258.076 357.035 264.379C364.82 270.558 368.712 278.406 368.712 287.923C368.712 295.585 366.611 302.259 362.41 307.944C358.209 313.506 352.586 317.708 345.543 320.551C338.499 323.393 330.899 324.815 322.744 324.815C313.229 324.815 304.64 323.022 296.979 319.438C289.317 315.731 283.201 310.54 278.628 303.866C274.056 297.068 271.4 289.344 270.658 280.693L286.97 279.58Z" fill="black"/>
<path d="M390.114 253.256C392.091 243.739 396.601 236.2 403.645 230.639C410.812 224.954 419.647 222.111 430.151 222.111C442.879 222.111 452.641 225.695 459.437 232.863C466.234 239.908 469.632 250.042 469.632 263.267V302.754C469.632 304.855 470.126 306.461 471.115 307.574C472.104 308.562 473.648 309.057 475.749 309.057H479.641V322.59H472.227C468.767 322.466 465.74 321.972 463.145 321.107C460.55 320.118 458.449 318.511 456.842 316.287C455.236 313.939 454.495 310.911 454.618 307.203C452.27 312.146 448.378 316.349 442.941 319.809C437.503 323.146 431.078 324.815 423.663 324.815C413.531 324.815 405.128 322.281 398.455 317.214C391.782 312.146 388.446 305.411 388.446 297.007C388.446 290.58 389.928 285.451 392.894 281.62C395.86 277.788 399.938 274.884 405.128 272.907C410.318 270.806 417.052 268.952 425.332 267.345L454.247 261.783C454.247 253.256 452.208 246.953 448.131 242.874C444.176 238.672 438.183 236.571 430.151 236.571C423.972 236.571 418.782 238.116 414.581 241.206C410.503 244.295 407.723 248.745 406.24 254.553L390.114 253.256ZM404.386 297.007C404.386 301.209 406.178 304.669 409.762 307.388C413.469 310.107 418.782 311.405 425.702 311.281C431.263 311.281 436.206 309.984 440.531 307.388C444.98 304.793 448.44 300.962 450.911 295.894C453.506 290.704 454.803 284.4 454.803 276.985L454.618 275.317L431.263 279.395L427.556 279.951C422.119 280.94 417.856 281.929 414.766 282.917C411.677 283.782 409.144 285.327 407.167 287.552C405.313 289.777 404.386 292.928 404.386 297.007Z" fill="black"/>
<path d="M559.756 266.418V261.969C559.756 253.812 557.594 247.571 553.269 243.245C549.067 238.796 543.198 236.571 535.66 236.571C529.605 236.571 524.477 238.239 520.275 241.576C516.074 244.913 513.355 249.239 512.12 254.553L495.623 253.256C497.6 243.863 502.234 236.324 509.525 230.639C516.815 224.954 525.527 222.111 535.66 222.111C547.893 222.111 557.532 225.633 564.576 232.678C571.619 239.723 575.141 249.919 575.141 263.267V322.59H561.425L560.683 300.714H562.537C562.166 304.793 560.498 308.686 557.532 312.394C554.566 315.978 550.612 318.944 545.669 321.292C540.726 323.517 535.227 324.691 529.172 324.815C522.623 324.691 516.692 323.517 511.378 321.292C506.064 318.944 501.801 315.669 498.588 311.467C495.499 307.141 493.954 302.197 493.954 296.636C493.954 290.086 495.437 284.895 498.403 281.064C501.492 277.109 505.57 274.142 510.637 272.165C515.827 270.188 522.561 268.457 530.841 266.974L563.834 261.042L559.756 266.418ZM509.895 296.636C509.895 300.962 511.749 304.731 515.456 307.944C519.163 311.034 524.415 312.394 531.211 312.023C536.772 311.776 541.715 310.416 546.04 307.944C550.488 305.473 553.948 302.012 556.42 297.563C558.891 293.114 560.127 287.923 560.127 281.99V271.609L562.907 274.575L536.772 279.395C534.424 279.889 532.509 280.198 531.026 280.322C525.836 281.187 521.882 282.114 519.163 283.103C516.444 283.968 514.22 285.451 512.49 287.552C510.76 289.653 509.895 292.681 509.895 296.636Z" fill="black"/>
<path d="M685.539 322.59H671.822L671.266 308.13C668.424 313.444 664.346 317.584 659.033 320.551C653.719 323.393 647.355 324.815 639.941 324.815C630.797 324.815 623.135 322.528 616.957 317.955C610.778 313.259 606.144 307.017 603.055 299.231C599.965 291.445 598.421 282.856 598.421 273.463C598.421 264.07 599.965 255.542 603.055 247.88C606.144 240.093 610.778 233.852 616.957 229.156C623.135 224.459 630.797 222.111 639.941 222.111C647.108 222.111 653.225 223.47 658.291 226.189C663.481 228.908 667.497 232.74 670.339 237.683V224.336H685.539V322.59ZM614.362 273.463C614.362 283.844 616.709 292.619 621.405 299.787C626.224 306.832 633.453 310.354 643.092 310.354C649.518 310.354 654.831 308.624 659.033 305.164C663.358 301.703 666.509 297.192 668.486 291.63C670.587 286.069 671.637 280.013 671.637 273.463C671.637 266.665 670.587 260.486 668.486 254.924C666.509 249.239 663.358 244.666 659.033 241.206C654.831 237.745 649.518 236.015 643.092 236.015C633.453 236.015 626.224 239.599 621.405 246.767C616.709 253.812 614.362 262.71 614.362 273.463Z" fill="black"/>
<path d="M729.784 224.336L730.526 249.548L728.487 247.509C730.093 239.105 733.8 232.801 739.608 228.599C745.416 224.274 752.398 222.111 760.553 222.111C771.304 222.111 779.522 225.571 785.206 232.493C790.89 239.414 793.732 248.374 793.732 259.373V322.59H778.533V263.823C778.533 257.643 777.792 252.514 776.309 248.436C774.826 244.234 772.54 241.082 769.451 238.981C766.361 236.756 762.345 235.644 757.402 235.644C749.247 235.644 742.821 238.116 738.125 243.059C733.43 247.88 731.082 254.801 731.082 263.823V322.59H715.882V224.336H729.784Z" fill="black"/>
<path d="M877.206 254.553C876.093 249.115 873.19 244.79 868.494 241.576C863.798 238.239 858.546 236.571 852.738 236.571C847.054 236.571 842.297 237.992 838.466 240.835C834.635 243.554 832.72 247.2 832.72 251.773C832.843 256.222 835.068 259.682 839.393 262.154C843.841 264.502 849.526 266.418 856.446 267.901C864.848 269.508 871.768 271.423 877.206 273.648C882.766 275.749 887.091 278.715 890.181 282.547C893.394 286.378 895 291.383 895 297.563C895 303.619 893.146 308.686 889.439 312.764C885.856 316.843 881.16 319.871 875.352 321.848C869.544 323.826 863.366 324.815 856.816 324.815C849.031 324.815 841.988 323.455 835.686 320.736C829.507 318.017 824.502 314.186 820.672 309.242C816.964 304.175 814.864 298.366 814.369 291.816L830.31 290.704C831.052 294.658 832.534 298.119 834.759 301.085C836.983 304.051 839.949 306.338 843.656 307.944C847.487 309.551 851.874 310.354 856.816 310.354C862.748 310.354 867.938 309.304 872.386 307.203C876.835 304.978 879.059 301.518 879.059 296.821C879.059 293.484 878.071 290.889 876.093 289.035C874.24 287.181 871.954 285.822 869.235 284.957C866.64 283.968 862.995 282.979 858.299 281.99C857.187 281.743 855.642 281.373 853.665 280.878C846.004 279.148 839.64 277.294 834.573 275.317C829.507 273.339 825.306 270.558 821.969 266.974C818.633 263.267 816.964 258.508 816.964 252.7C816.841 246.52 818.324 241.144 821.413 236.571C824.626 231.998 829.074 228.476 834.759 226.004C840.443 223.409 846.992 222.111 854.407 222.111C864.292 222.111 872.819 225.015 879.986 230.824C887.153 236.509 891.54 244.048 893.146 253.441L877.206 254.553Z" fill="black"/>
<path d="M190.177 263.823H0V249.733H190.177V263.823ZM141.798 314.433H121.78L179.426 256.593L121.965 199.123H141.984L199.445 256.778L141.798 314.433Z" fill="black"/>
</g>
<defs>
<clipPath id="clip0_203_162">
<rect width="895" height="325" fill="white"/>
</clipPath>
</defs>
</svg>
