<svg width="895" height="325" viewBox="0 0 895 325" fill="none" xmlns="http://www.w3.org/2000/svg">
<style>
path {
    fill: #0c0d0d;
}

@media (prefers-color-scheme: dark) {
    path {
        fill: white;
    }
}
</style>
<g clip-path="url(#clip0_228_21)">
<path d="M14.0081 2.46267L81.7396 106.819V2.46267H86.6655V111.744H79.4305L11.6991 7.38803V111.744H6.77319V2.46267H14.0081Z" fill="black"/>
<path d="M170.397 111.744L169.935 89.426H170.704C170.191 97.4297 167.267 103.484 161.93 107.588C156.594 111.59 149.974 113.591 142.072 113.591C133.555 113.591 126.936 110.718 122.215 104.972C117.597 99.1228 115.288 91.6834 115.288 82.6536V30.1678H119.906V78.9596C119.906 85.1163 120.676 90.4521 122.215 94.967C123.857 99.3793 126.422 102.817 129.912 105.279C133.401 107.742 137.865 108.973 143.304 108.973C151.719 108.973 158.287 106.203 163.008 100.662C167.728 95.1209 170.089 87.8868 170.089 78.9596V30.1678H174.707V111.744H170.397Z" fill="black"/>
<path d="M206.179 30.1678L206.487 47.8683C207.924 42.2247 211.054 37.5558 215.877 33.8618C220.803 30.1678 226.447 28.3208 232.81 28.3208C238.146 28.3208 242.764 30.3217 246.664 34.3236C250.666 38.2228 253.335 43.5586 254.669 50.331C256.311 43.5586 259.595 38.2228 264.521 34.3236C269.447 30.3217 275.142 28.3208 281.607 28.3208C286.328 28.3208 290.536 29.6547 294.23 32.3226C297.925 34.9905 300.798 38.7359 302.85 43.5586C304.903 48.2787 305.929 53.6658 305.929 59.7199V111.744H301.311V63.4139C301.311 54.0763 299.464 46.6882 295.769 41.2498C292.178 35.7088 287.252 32.9383 280.992 32.9383C276.374 32.9383 272.115 34.3236 268.215 37.0941C264.418 39.8646 261.391 43.6612 259.133 48.484C256.875 53.3067 255.746 58.5912 255.746 64.3374V111.744H251.128V62.9522C251.128 56.7955 250.359 51.4597 248.819 46.9448C247.28 42.4299 245.073 38.9924 242.2 36.6323C239.327 34.1696 235.889 32.9383 231.886 32.9383C227.166 32.9383 222.856 34.2723 218.956 36.9402C215.159 39.6081 212.131 43.2508 209.874 47.8683C207.616 52.3832 206.487 57.4112 206.487 62.9522V111.744H201.869V30.1678H206.179Z" fill="black"/>
<path d="M336.67 2.46267V49.8692C338.826 43.7125 342.52 38.6846 347.754 34.7853C353.09 30.7835 358.837 28.7825 364.995 28.7825C371.87 28.7825 377.874 30.5269 383.005 34.0157C388.136 37.4019 392.087 42.276 394.858 48.6379C397.629 54.9998 399.014 62.4391 399.014 70.9559C399.014 79.5753 397.629 87.1172 394.858 93.5817C392.087 99.9437 388.136 104.869 383.005 108.358C377.874 111.847 371.87 113.591 364.995 113.591C358.837 113.591 353.141 111.641 347.908 107.742C342.674 103.74 338.672 98.4045 335.901 91.7347L335.439 111.744H332.052V2.46267H336.67ZM336.209 70.9559C336.209 77.9335 337.491 84.3467 340.057 90.1955C342.623 96.0444 346.06 100.662 350.371 104.048C354.783 107.434 359.658 109.127 364.995 109.127C373.923 109.127 381.004 105.69 386.238 98.8149C391.471 91.9399 394.088 82.6536 394.088 70.9559C394.088 59.4634 391.471 50.331 386.238 43.5586C381.004 36.7862 373.923 33.4001 364.995 33.4001C359.658 33.4001 354.783 35.0932 350.371 38.4793C346.06 41.7629 342.623 46.2778 340.057 52.0241C337.491 57.7703 336.209 64.0809 336.209 70.9559Z" fill="black"/>
<path d="M414.445 70.9559C414.445 63.0548 415.728 55.872 418.293 49.4075C420.962 42.9429 424.913 37.8124 430.146 34.0157C435.38 30.2191 441.691 28.3208 449.08 28.3208C456.469 28.3208 462.781 30.2191 468.014 34.0157C473.248 37.8124 477.148 42.9429 479.713 49.4075C482.382 55.872 483.716 63.0548 483.716 70.9559V72.0333H419.371C419.473 83.4232 422.193 92.453 427.529 99.1228C432.968 105.69 440.152 108.973 449.08 108.973C455.238 108.973 460.728 107.229 465.551 103.74C470.477 100.251 474.069 95.48 476.327 89.426L481.407 89.7338C479.046 97.0192 474.941 102.817 469.092 107.126C463.242 111.436 456.572 113.591 449.08 113.591C441.691 113.591 435.38 111.693 430.146 107.896C424.913 104.099 420.962 98.9688 418.293 92.5043C415.728 86.0398 414.445 78.857 414.445 70.9559ZM478.636 67.4158C478.123 56.7442 475.198 48.33 469.862 42.1733C464.628 36.0167 457.701 32.9383 449.08 32.9383C440.46 32.9383 433.482 36.0167 428.145 42.1733C422.911 48.33 420.038 56.7442 419.525 67.4158H478.636Z" fill="black"/>
<path d="M508.315 30.1678L509.085 56.3337L507.238 54.7946C509.188 46.7909 512.164 40.6855 516.166 36.4784C520.271 32.2713 525.453 30.1678 531.713 30.1678H536.947V34.3236H531.713C527.403 34.3236 523.555 35.6062 520.168 38.1715C516.782 40.6342 514.165 44.0717 512.318 48.484C510.47 52.8963 509.547 57.7703 509.547 63.1061V111.744H504.929V30.1678H508.315Z" fill="black"/>
<path d="M676.059 106.049C667.336 111.077 657.843 113.591 647.581 113.591C637.318 113.591 627.826 111.077 619.103 106.049C610.38 100.918 603.453 93.9922 598.322 85.2702C593.293 76.5482 590.779 67.0053 590.779 56.6416C590.779 46.3804 593.293 36.9402 598.322 28.3208C603.453 19.5988 610.38 12.7238 619.103 7.69586C627.826 2.56529 637.318 0 647.581 0C657.843 0 667.336 2.56529 676.059 7.69586C684.782 12.7238 691.658 19.5988 696.686 28.3208C701.817 36.9402 704.383 46.3804 704.383 56.6416C704.383 67.0053 701.817 76.5482 696.686 85.2702C691.658 93.9922 684.782 100.918 676.059 106.049ZM657.74 49.2535C654.867 51.511 651.378 52.6397 647.273 52.6397H644.194V56.9494H647.273C651.994 56.9494 655.996 58.3347 659.28 61.1052C662.666 63.7731 664.36 67.0053 664.36 70.802C664.36 74.8038 662.82 78.1387 659.742 80.8066C656.663 83.3719 652.763 84.6545 648.043 84.6545C643.527 84.6545 639.679 83.4232 636.497 80.9605C633.316 78.3952 631.52 75.163 631.11 71.2637L626.338 71.7255C626.543 75.1117 627.569 78.1387 629.416 80.8066C631.366 83.3719 633.932 85.3728 637.113 86.8094C640.397 88.2459 644.04 88.9642 648.043 88.9642C652.045 88.9642 655.637 88.1946 658.818 86.6555C661.999 85.1163 664.462 82.9614 666.207 80.1909C668.054 77.4204 668.978 74.2908 668.978 70.802C668.978 67.108 667.644 63.8244 664.975 60.9513C662.307 57.9755 659.023 55.9233 655.124 54.7946C658.408 53.7685 661.127 51.9727 663.282 49.4075C665.54 46.7396 666.669 43.8664 666.669 40.7881C666.669 36.3758 664.821 32.6305 661.127 29.5521C657.535 26.3712 653.122 24.7807 647.889 24.7807C643.065 24.7807 638.755 26.2173 634.958 29.0904C631.264 31.8609 629.109 35.3497 628.493 39.5568L633.419 40.1724C633.829 37.0941 635.42 34.4775 638.191 32.3226C640.962 30.1678 644.194 29.0904 647.889 29.0904C651.686 29.0904 654.97 30.2704 657.74 32.6305C660.614 34.8879 662.051 37.6071 662.051 40.7881C662.051 44.0717 660.614 46.8935 657.74 49.2535Z" fill="black"/>
<path d="M783.489 111.744H777.793L856.146 2.46267H861.842L783.489 111.744ZM760.552 14.93C765.273 14.93 768.762 13.9039 771.02 11.8516C773.38 9.69679 774.56 6.51583 774.56 2.30876H777.947V62.0287H773.329V18.3162H758.551V14.93H760.552ZM845.678 69.4167C846.397 63.4652 848.603 58.7451 852.298 55.2563C856.095 51.7675 860.815 50.0231 866.46 50.0231C871.899 50.0231 876.311 51.6649 879.698 54.9485C883.085 58.1294 884.778 62.2339 884.778 67.2619C884.778 70.6481 883.598 73.6751 881.237 76.343C878.98 79.0109 875.336 81.9866 870.308 85.2702L865.998 88.0407C861.585 90.8112 857.737 93.9409 854.453 97.4297C851.271 100.816 849.732 104.151 849.835 107.434H885.24V111.744H844.601C844.601 106.613 845.832 102.098 848.295 98.1993C850.758 94.1974 855.582 89.8364 862.765 85.1163L867.691 81.884L867.845 81.7301C871.745 79.1648 874.772 76.856 876.927 74.8038C879.082 72.649 880.16 70.135 880.16 67.2619C880.16 63.26 878.928 60.1304 876.465 57.8729C874.002 55.5128 870.667 54.3328 866.46 54.3328C862.252 54.3328 858.712 55.6668 855.838 58.3347C853.067 61.0026 851.22 64.8505 850.296 69.8785L845.678 69.4167Z" fill="black"/>
<path d="M31.2488 322.744H25.5532L103.906 213.463H109.602L31.2488 322.744ZM126.381 303.812H134.693V308.122H126.381V322.744H121.763V308.122H89.5902V305.351L121.609 263.024H126.381V303.812ZM121.763 303.812V269.796L96.3633 303.812H121.763ZM20.9352 238.859C25.0401 238.859 28.5293 237.73 31.4028 235.473C34.2762 233.113 35.7129 230.291 35.7129 227.007C35.7129 223.826 34.2762 221.107 31.4028 218.85C28.6319 216.49 25.348 215.31 21.5509 215.31C17.8565 215.31 14.6238 216.387 11.853 218.542C9.08217 220.697 7.49151 223.313 7.08101 226.392L2.15509 225.776C2.77083 221.569 4.92592 218.08 8.62036 215.31C12.4174 212.437 16.7276 211 21.5509 211C26.7847 211 31.1975 212.59 34.7893 215.771C38.4838 218.85 40.331 222.595 40.331 227.007C40.331 230.086 39.2021 232.959 36.9444 235.627C34.7893 238.192 32.0698 239.988 28.7859 241.014C32.6855 242.143 35.9695 244.195 38.6377 247.171C41.3059 250.044 42.64 253.327 42.64 257.021C42.64 260.51 41.7164 263.64 39.8692 266.41C38.1246 269.181 35.6616 271.336 32.4803 272.875C29.299 274.414 25.7072 275.184 21.7048 275.184C17.7025 275.184 14.0594 274.465 10.7755 273.029C7.59413 271.592 5.02855 269.591 3.0787 267.026C1.23148 264.358 0.205247 261.331 0 257.945L4.77199 257.483C5.18248 261.382 6.97839 264.615 10.1597 267.18C13.341 269.642 17.1894 270.874 21.7048 270.874C26.4255 270.874 30.3252 269.591 33.4039 267.026C36.4826 264.358 38.022 261.023 38.022 257.021C38.022 253.225 36.3287 249.992 32.9421 247.324C29.6582 244.554 25.6558 243.169 20.9352 243.169H17.8565V238.859H20.9352Z" fill="black"/>
<path d="M268.234 325.207C260.024 325.207 252.841 322.898 246.683 318.28C240.526 313.663 235.805 307.096 232.521 298.579C229.237 289.96 227.595 279.852 227.595 268.257C227.595 256.56 229.237 246.401 232.521 237.782C235.805 229.162 240.526 222.544 246.683 217.926C252.841 213.309 260.024 211 268.234 211C276.444 211 283.628 213.309 289.785 217.926C295.943 222.544 300.663 229.162 303.947 237.782C307.231 246.401 308.873 256.56 308.873 268.257C308.873 279.852 307.231 289.96 303.947 298.579C300.663 307.096 295.943 313.663 289.785 318.28C283.628 322.898 276.444 325.207 268.234 325.207ZM268.234 320.281C275.418 320.281 281.678 318.178 287.014 313.971C292.351 309.764 296.456 303.761 299.329 295.962C302.203 288.061 303.639 278.826 303.639 268.257C303.639 257.586 302.203 248.351 299.329 240.552C296.456 232.651 292.351 226.597 287.014 222.39C281.678 218.08 275.418 215.925 268.234 215.925C261.051 215.925 254.791 218.08 249.454 222.39C244.118 226.597 240.013 232.651 237.139 240.552C234.266 248.351 232.829 257.586 232.829 268.257C232.829 278.826 234.266 288.061 237.139 295.962C240.013 303.761 244.118 309.764 249.454 313.971C254.791 318.178 261.051 320.281 268.234 320.281ZM293.326 222.698L248.377 313.355H243.143L288.246 222.698H293.326Z" fill="black"/>
<path d="M327.012 231.933C332.862 231.933 337.121 230.445 339.789 227.469C342.457 224.493 343.791 219.825 343.791 213.463H347.639V322.744H342.714V235.935H321.317V231.933H327.012ZM369.036 318.126V322.744H321.163V318.126H369.036Z" fill="black"/>
<path d="M383.381 246.401C384.305 239.218 386.46 232.959 389.847 227.623C393.336 222.287 397.8 218.183 403.239 215.31C408.678 212.437 414.784 211 421.557 211C428.022 211 433.769 212.334 438.798 215.002C443.826 217.567 447.726 221.21 450.497 225.93C453.37 230.65 454.807 236.037 454.807 242.091C454.807 245.991 453.678 249.992 451.421 254.097C449.265 258.201 445.982 262.254 441.569 266.256C437.156 270.258 431.717 274.055 425.252 277.646C421.557 279.801 418.478 281.699 416.016 283.341C406.985 289.19 399.904 295.141 394.772 301.196C389.744 307.25 387.127 312.893 386.922 318.126H454.499V322.744H381.38C381.38 317.306 382.612 312.072 385.075 307.044C387.64 301.914 391.437 296.937 396.466 292.114C401.597 287.292 408.062 282.52 415.862 277.8C419.145 275.748 421.301 274.465 422.327 273.952C422.635 273.747 424.738 272.464 428.638 270.104C436.027 265.384 441.363 260.715 444.647 256.098C447.931 251.48 449.573 246.811 449.573 242.091C449.573 237.063 448.393 232.548 446.033 228.547C443.672 224.545 440.337 221.466 436.027 219.312C431.819 217.054 426.996 215.925 421.557 215.925C412.629 215.925 405.291 218.593 399.544 223.929C393.9 229.265 390.257 236.909 388.615 246.863L383.381 246.401Z" fill="black"/>
<path d="M507.307 261.639C513.054 261.639 518.185 260.715 522.701 258.868C527.319 256.919 530.859 254.302 533.322 251.018C535.888 247.632 537.171 243.784 537.171 239.475C537.171 234.857 535.939 230.804 533.476 227.315C531.013 223.724 527.524 220.953 523.009 219.004C518.596 216.951 513.516 215.925 507.769 215.925C500.893 215.925 494.941 217.824 489.913 221.62C484.884 225.417 481.805 230.342 480.677 236.396L475.443 235.935C476.366 231.112 478.368 226.802 481.446 223.006C484.525 219.209 488.322 216.284 492.837 214.232C497.456 212.077 502.433 211 507.769 211C514.542 211 520.546 212.231 525.78 214.694C531.013 217.054 535.067 220.389 537.94 224.699C540.917 229.008 542.405 233.934 542.405 239.475C542.405 246.042 539.788 251.788 534.554 256.713C529.423 261.536 522.598 264.461 514.081 265.487V261.947C520.443 262.768 526.036 264.666 530.859 267.642C535.683 270.515 539.429 274.157 542.097 278.57C544.765 282.879 546.099 287.6 546.099 292.73C546.099 298.989 544.457 304.582 541.173 309.507C537.889 314.432 533.271 318.28 527.319 321.051C521.469 323.821 514.799 325.207 507.307 325.207C500.534 325.207 494.479 323.975 489.143 321.513C483.807 319.05 479.548 315.612 476.366 311.2C473.185 306.788 471.338 301.709 470.825 295.962L475.597 295.501C476.418 302.889 479.702 308.891 485.449 313.509C491.196 318.024 498.482 320.281 507.307 320.281C513.875 320.281 519.674 319.153 524.702 316.895C529.833 314.535 533.784 311.251 536.555 307.044C539.429 302.735 540.865 297.758 540.865 292.114C540.865 287.086 539.429 282.623 536.555 278.724C533.682 274.722 529.679 271.643 524.548 269.489C519.52 267.231 513.773 266.102 507.307 266.102L497.148 266.256V261.485L507.307 261.639Z" fill="black"/>
<path d="M622.713 292.73H635.797V297.348H622.713V322.744H617.787V297.348H558.83V293.346L617.787 213.463H622.713V292.73ZM617.787 292.73V221.62L565.295 292.73H617.787Z" fill="black"/>
<path d="M713.791 218.08H661.915L654.372 271.336L653.294 269.181C655.552 263.845 659.657 259.381 665.609 255.79C671.664 252.096 677.924 250.249 684.389 250.249C691.47 250.249 697.782 251.839 703.323 255.02C708.865 258.201 713.175 262.614 716.254 268.257C719.332 273.901 720.872 280.365 720.872 287.651C720.872 294.936 719.332 301.452 716.254 307.198C713.175 312.842 708.916 317.254 703.477 320.435C698.038 323.616 691.829 325.207 684.851 325.207C678.386 325.207 672.434 323.975 666.995 321.513C661.658 319.05 657.297 315.612 653.91 311.2C650.626 306.788 648.676 301.76 648.061 296.116L652.986 295.655C654.115 303.145 657.656 309.148 663.608 313.663C669.56 318.075 677 320.281 685.929 320.281C691.675 320.281 696.807 318.896 701.322 316.126C705.838 313.355 709.327 309.507 711.79 304.582C714.355 299.554 715.638 293.91 715.638 287.651C715.638 281.392 714.304 275.799 711.636 270.874C708.968 265.948 705.273 262.101 700.552 259.33C695.832 256.56 690.444 255.174 684.389 255.174C678.129 255.174 672.382 256.713 667.148 259.792C661.915 262.87 657.964 267.077 655.295 272.413H649.292L657.604 213.463H713.791V218.08Z" fill="black"/>
<path d="M803.866 236.704C801.711 230.65 798.273 225.673 793.552 221.774C788.934 217.875 784.059 215.925 778.928 215.925C767.127 215.925 757.993 221.107 751.528 231.471C745.165 241.835 741.83 257.278 741.522 277.8L740.137 275.184C742.599 267.488 747.012 261.331 753.375 256.713C759.738 252.096 766.921 249.787 774.926 249.787C781.802 249.787 787.908 251.378 793.244 254.559C798.683 257.637 802.891 261.947 805.867 267.488C808.946 273.029 810.485 279.339 810.485 286.419C810.485 293.91 808.946 300.631 805.867 306.583C802.891 312.432 798.683 316.998 793.244 320.281C787.908 323.565 781.802 325.207 774.926 325.207C769.384 325.207 764.15 324.129 759.225 321.974C754.401 319.82 750.296 316.741 746.91 312.739C743.42 308.532 740.855 303.402 739.213 297.348C737.674 291.294 736.904 283.7 736.904 274.568C736.904 263.588 738.289 253.276 741.06 243.63C743.934 233.985 748.449 226.135 754.606 220.081C760.764 214.027 768.563 211 778.005 211C782.623 211 786.984 212.026 791.089 214.078C795.194 216.131 798.786 219.055 801.865 222.852C804.943 226.546 807.304 230.958 808.946 236.089L803.866 236.704ZM742.6 286.419C742.497 292.679 743.831 298.374 746.602 303.504C749.373 308.635 753.221 312.739 758.147 315.818C763.175 318.793 768.768 320.281 774.926 320.281C780.775 320.281 786.009 318.845 790.627 315.972C795.245 313.098 798.837 309.097 801.403 303.966C803.968 298.835 805.251 292.987 805.251 286.419C805.251 280.263 803.968 274.773 801.403 269.95C798.837 265.128 795.245 261.382 790.627 258.714C786.009 256.046 780.775 254.713 774.926 254.713C768.666 254.713 763.073 256.046 758.147 258.714C753.324 261.382 749.527 265.128 746.756 269.95C743.985 274.773 742.6 280.263 742.6 286.419Z" fill="black"/>
<path d="M895 213.463V219.312C883.198 232.548 873.808 248.505 866.83 267.18C859.852 285.753 856.362 304.274 856.362 322.744H851.129C851.129 304.069 854.618 285.342 861.596 266.564C868.677 247.684 878.17 231.522 890.074 218.08H822.804V213.463H895Z" fill="black"/>
</g>
<defs>
<clipPath id="clip0_228_21">
<rect width="895" height="325" fill="white"/>
</clipPath>
</defs>
</svg>
