<svg width="895" height="325" viewBox="0 0 895 325" fill="none" xmlns="http://www.w3.org/2000/svg">
<style>
path {
    fill: #0c0d0d;
}

@media (prefers-color-scheme: dark) {
    path {
        fill: white;
    }
}
</style>
<g clip-path="url(#clip0_228_2)">
<path d="M3.87806 157.956C12.496 112.949 46.5367 85.253 94.7969 85.253C152.968 85.253 183.992 119.008 183.992 181.325V275.666C183.992 288.649 188.732 293.842 199.935 293.842H208.553V319.807H195.626C173.22 319.807 155.122 311.152 155.984 279.561C144.35 305.526 116.342 324.567 79.7156 325C34.0407 324.567 0 300.333 0 260.952C0 215.513 36.6261 202.53 83.5936 193.442L155.553 179.594C155.122 133.722 135.732 112.517 94.7969 112.517C62.0489 112.517 40.935 129.827 34.0407 160.553L3.87806 157.956ZM29.7318 260.952C29.7318 283.455 48.6911 299.9 84.4554 299.035C125.39 298.602 156.846 268.742 156.415 216.811V205.127L97.3823 215.945C62.0489 222.004 29.7318 226.764 29.7318 260.952ZM52.1383 51.9308V14.281H82.301V51.9308H52.1383ZM111.602 51.9308V14.281H141.764V51.9308H111.602Z" fill="black"/>
<path d="M395.537 258.355C395.537 275.233 409.756 292.543 439.919 291.245C474.821 289.514 501.537 265.712 501.537 224.6V212.051L452.415 221.138C420.959 227.197 395.537 228.063 395.537 258.355ZM349 258.788C349 212.051 383.472 199.068 433.455 189.98L500.675 177.43C500.675 140.646 480.854 122.903 449.829 122.903C423.545 122.903 405.016 138.482 399.846 161.851L352.878 158.822C361.496 113.815 398.984 85.2529 449.829 85.2529C508.431 85.2529 545.488 117.277 545.488 182.19V319.807H504.984L503.691 285.186C494.212 305.959 467.927 324.134 430.87 325C385.626 324.567 349 299.9 349 258.788ZM386.919 56.2583L423.976 4.32751H475.252L512.74 56.2583H476.114L449.829 19.474L423.545 56.2583H386.919Z" fill="black"/>
<path d="M895.22 90.4461V319.807H836.187L834.895 286.917C821.968 311.152 798.269 325 765.52 325C701.748 325 669 272.204 669 205.126C669 138.049 701.748 85.253 765.52 85.253C796.545 85.253 819.813 98.2357 833.171 121.605V90.4461H895.22ZM725.447 0H777.586L804.732 56.2583H764.659L725.447 0ZM732.342 205.126C732.342 243.209 749.146 276.531 784.48 276.531C821.106 276.531 837.049 242.776 837.049 205.126C837.049 165.746 820.675 132.423 784.48 132.423C748.285 132.423 732.342 165.746 732.342 205.126Z" fill="black"/>
</g>
<defs>
<clipPath id="clip0_228_2">
<rect width="895" height="325" fill="white"/>
</clipPath>
</defs>
</svg>
