<svg width="895" height="325" viewBox="0 0 895 325" fill="none" xmlns="http://www.w3.org/2000/svg">
<style>
path {
    fill: #0c0d0d;
}

@media (prefers-color-scheme: dark) {
    path {
        fill: white;
    }
}
</style>
<g clip-path="url(#clip0_239_215)">
<path d="M24.166 263C36.98 263 45.322 269.966 45.322 281.49C45.322 288.8 40.506 294.132 34.916 295.766C41.022 296.626 43.688 299.722 44.29 306.258L45.924 324.06H36.722L35.26 307.376C34.83 301.958 31.39 300.152 23.048 300.152H9.116V324.06H0V263H24.166ZM9.116 291.724H23.65C31.476 291.724 35.862 288.112 35.862 281.662C35.862 275.126 31.476 271.428 23.65 271.428H9.116V291.724Z" fill="black"/>
<path d="M55.6151 292.068C57.4211 282.952 64.6451 277.448 74.9651 277.448C87.3491 277.448 94.0571 284.328 94.0571 296.712V313.912C94.0571 316.062 95.0031 316.836 96.8091 316.836H98.7011V324.06H95.6911C91.5631 324.146 86.1451 323.286 85.8011 317.094C83.8231 321.394 78.7491 325.092 71.2671 325.092C62.1511 325.092 54.8411 320.276 54.8411 312.106C54.8411 302.904 61.6351 300.324 72.0411 298.346L85.1131 295.766C85.0271 288.456 81.6731 284.93 74.9651 284.93C69.6331 284.93 66.1071 287.596 64.8171 292.67L55.6151 292.068ZM64.1291 311.934C64.1291 315.288 66.9671 318.04 72.9871 318.04C79.9531 318.04 85.2851 313.138 85.2851 303.162V302.732L75.4811 304.452C69.1171 305.57 64.1291 306.086 64.1291 311.934Z" fill="black"/>
<path d="M107.822 278.48H115.906L116.164 285.962C118.4 280.544 123.044 277.448 129.15 277.448C135.686 277.448 140.416 280.888 142.394 286.908C144.458 280.716 149.188 277.448 156.068 277.448C165.356 277.448 170.86 283.64 170.86 294.734V324.06H161.916V297.4C161.916 289.402 158.992 285.016 153.832 285.016C147.296 285.016 143.598 289.488 143.598 297.4V324.06H135.084V297.4C135.084 289.574 132.16 285.016 127 285.016C120.55 285.016 116.766 289.574 116.766 297.4V324.06H107.822V278.48Z" fill="black"/>
<path d="M208.962 292.756C208.016 287.94 203.372 285.016 198.642 285.016C193.998 285.016 190.214 287.424 190.3 291.466C190.3 295.594 195.718 297.314 200.362 298.174C211.542 300.238 218.938 303.248 218.938 312.192C218.938 321.136 209.822 325.092 200.448 325.092C188.924 325.092 180.582 319.158 179.894 309.698L189.096 309.096C189.956 314.256 193.998 317.438 200.362 317.438C204.404 317.438 209.65 316.062 209.65 311.848C209.564 306.86 203.802 306.258 198.814 305.14C189.354 303.076 181.012 300.582 181.012 291.81C181.012 282.952 188.15 277.448 199.416 277.448C209.134 277.448 216.702 283.21 218.164 292.24L208.962 292.756Z" fill="black"/>
<path d="M19.522 175.94C38.614 175.94 49.364 186.948 49.364 206.556C49.364 226.078 38.872 237 20.038 237H0V175.94H19.522ZM9.116 228.572H19.522C33.196 228.572 39.904 221.348 39.904 206.556C39.904 191.592 33.196 184.368 19.522 184.368H9.116V228.572Z" fill="black"/>
<path d="M57.1927 214.21C57.1927 199.676 65.7067 190.388 78.7787 190.388C89.4427 190.388 98.7307 197.44 99.2467 213.694L99.3327 216.79H66.5667C67.2547 225.304 71.5547 230.292 78.7787 230.292C83.3367 230.292 87.3787 227.712 89.2707 223.326L98.6447 224.014C95.9787 232.614 87.9807 238.032 78.7787 238.032C65.7067 238.032 57.1927 228.744 57.1927 214.21ZM66.7387 209.91H89.8727C88.6687 201.138 83.9387 198.128 78.7787 198.128C72.0707 198.128 67.8567 202.514 66.7387 209.91Z" fill="black"/>
<path d="M136.147 205.696C135.201 200.88 130.557 197.956 125.827 197.956C121.183 197.956 117.399 200.364 117.485 204.406C117.485 208.534 122.903 210.254 127.547 211.114C138.727 213.178 146.123 216.188 146.123 225.132C146.123 234.076 137.007 238.032 127.633 238.032C116.109 238.032 107.767 232.098 107.079 222.638L116.281 222.036C117.141 227.196 121.183 230.378 127.547 230.378C131.589 230.378 136.835 229.002 136.835 224.788C136.749 219.8 130.987 219.198 125.999 218.08C116.539 216.016 108.197 213.522 108.197 204.75C108.197 195.892 115.335 190.388 126.601 190.388C136.319 190.388 143.887 196.15 145.349 205.18L136.147 205.696Z" fill="black"/>
<path d="M156.365 191.42H165.309V237H156.365V191.42ZM156.279 184.626V175.94H165.567V184.626H156.279Z" fill="black"/>
<path d="M196.413 234.678C183.943 234.678 176.031 225.562 176.031 212.662C176.031 199.676 184.201 190.388 196.413 190.388C202.347 190.388 207.249 193.57 209.313 198.472V191.42H217.913V232.27C217.913 244.31 209.399 250.932 197.015 250.932C187.039 250.932 179.557 245.686 177.235 237.774L186.523 237.172C188.243 241.042 191.855 243.364 197.101 243.364C204.497 243.364 208.969 240.096 208.969 233.818V227.11C206.303 232.098 201.229 234.678 196.413 234.678ZM185.319 212.662C185.319 221.09 189.877 227.11 197.273 227.11C204.583 227.11 209.141 221.09 209.227 212.662C209.313 204.234 204.755 198.214 197.273 198.214C189.791 198.214 185.319 204.234 185.319 212.662Z" fill="black"/>
<path d="M231.783 191.42H239.867L240.125 199.16C242.533 193.054 247.779 190.388 254.057 190.388C264.291 190.388 269.451 197.784 269.451 207.674V237H260.507V210.34C260.507 202.342 258.099 197.956 251.735 197.956C244.941 197.956 240.727 202.342 240.727 210.34V237H231.783V191.42Z" fill="black"/>
<path d="M9.374 129.79C10.836 137.444 16.254 142.604 25.284 142.604C32.508 142.604 37.324 139.852 37.324 134.262C37.324 128.5 32.422 125.146 20.984 122.308C10.148 119.642 1.204 114.568 1.204 104.678C1.204 94.186 9.804 87.564 22.102 87.564C35.346 87.564 44.204 95.82 45.58 107.344L36.206 107.86C35.174 100.636 29.756 95.906 21.93 95.906C15.394 95.906 10.578 99.346 10.664 104.764C10.75 111.558 19.006 113.45 26.144 115.428C37.84 118.438 46.784 124.114 46.784 133.574C46.784 145.012 36.378 151.032 24.768 151.032C10.922 151.032 0.946 142.862 0 130.306L9.374 129.79Z" fill="black"/>
<path d="M56.9038 88.94H65.8478V110.526C68.5138 105.538 73.6738 103.388 79.2638 103.388C89.4978 103.388 94.5718 110.956 94.5718 120.674V150H85.6278V123.77C85.6278 115.772 83.2198 111.386 76.8558 111.386C70.0618 111.386 65.8478 115.772 65.8478 123.77V150H56.9038V88.94Z" fill="black"/>
<path d="M103.697 127.21C103.697 112.676 112.211 103.388 125.283 103.388C135.947 103.388 145.235 110.44 145.751 126.694L145.837 129.79H113.071C113.759 138.304 118.059 143.292 125.283 143.292C129.841 143.292 133.883 140.712 135.775 136.326L145.149 137.014C142.483 145.614 134.485 151.032 125.283 151.032C112.211 151.032 103.697 141.744 103.697 127.21ZM113.243 122.91H136.377C135.173 114.138 130.443 111.128 125.283 111.128C118.575 111.128 114.361 115.514 113.243 122.91Z" fill="black"/>
<path d="M155.684 88.94H164.628V150H155.684V88.94Z" fill="black"/>
<path d="M217.803 104.42L201.119 150H190.713L174.029 104.42H183.231L195.959 140.798L208.601 104.42H217.803Z" fill="black"/>
<path d="M226.552 104.42H235.496V150H226.552V104.42ZM226.466 97.626V88.94H235.754V97.626H226.466Z" fill="black"/>
<path d="M248.136 104.42H256.22L256.478 112.16C258.886 106.054 264.132 103.388 270.41 103.388C280.644 103.388 285.804 110.784 285.804 120.674V150H276.86V123.34C276.86 115.342 274.452 110.956 268.088 110.956C261.294 110.956 257.08 115.342 257.08 123.34V150H248.136V104.42Z" fill="black"/>
<path d="M315.311 147.678C302.841 147.678 294.929 138.562 294.929 125.662C294.929 112.676 303.099 103.388 315.311 103.388C321.245 103.388 326.147 106.57 328.211 111.472V104.42H336.811V145.27C336.811 157.31 328.297 163.932 315.913 163.932C305.937 163.932 298.455 158.686 296.133 150.774L305.421 150.172C307.141 154.042 310.753 156.364 315.999 156.364C323.395 156.364 327.867 153.096 327.867 146.818V140.11C325.201 145.098 320.127 147.678 315.311 147.678ZM304.217 125.662C304.217 134.09 308.775 140.11 316.171 140.11C323.481 140.11 328.039 134.09 328.125 125.662C328.211 117.234 323.653 111.214 316.171 111.214C308.689 111.214 304.217 117.234 304.217 125.662Z" fill="black"/>
<path d="M703.816 272.916C710.696 272.916 713.706 269.906 713.706 262.94H720.844V315.83H734.088V324H699.172V315.83H711.814V280.226H699V272.916H703.816Z" fill="black"/>
<path d="M740.279 283.322C740.279 269.906 749.567 261.564 762.467 261.564C768.143 261.564 773.819 263.628 778.377 268.53C782.591 273.174 784.741 280.828 784.741 290.288C784.741 308.692 778.721 325.376 760.919 325.376C751.545 325.376 744.063 320.474 741.053 311.616L750.255 310.928C752.147 314.884 755.931 317.034 760.833 317.034C769.691 317.034 774.937 309.38 775.883 296.05C772.787 301.382 767.455 304.478 760.575 304.478C748.621 304.478 740.279 295.878 740.279 283.322ZM749.567 283.322C749.567 290.976 754.555 296.566 761.693 296.566C769.519 296.566 774.937 290.976 775.023 283.322C775.195 275.41 769.949 269.734 762.209 269.734C754.813 269.734 749.567 275.41 749.567 283.322Z" fill="black"/>
<path d="M827.941 277.044C826.135 272.486 822.179 269.906 816.847 269.906C807.989 269.906 802.743 277.646 801.797 291.234C805.065 285.73 810.397 282.72 816.933 282.72C829.059 282.72 837.229 291.406 837.229 303.79C837.229 317.206 828.027 325.376 815.041 325.376C809.365 325.376 803.775 323.312 799.303 318.496C795.003 313.938 792.853 306.284 792.853 296.996C792.853 278.506 799.131 261.564 816.933 261.564C826.479 261.564 834.305 266.81 836.971 276.442L827.941 277.044ZM802.485 303.79C802.313 311.616 807.645 317.206 815.299 317.206C822.695 317.206 827.941 311.616 827.941 303.79C827.941 296.136 822.953 290.718 815.815 290.718C808.075 290.718 802.571 296.136 802.485 303.79Z" fill="black"/>
<path d="M870.025 325.376C854.717 325.376 845.343 312.992 845.343 293.556C845.343 273.948 854.717 261.564 870.025 261.564C885.419 261.564 894.793 273.948 894.793 293.556C894.793 312.992 885.419 325.376 870.025 325.376ZM854.803 293.556C854.803 299.92 855.749 305.08 857.641 308.95L877.593 272.142C875.529 270.766 872.949 269.992 870.025 269.992C860.221 269.992 854.803 278.42 854.803 293.556ZM862.285 314.712C864.435 316.174 867.015 316.948 870.025 316.948C879.915 316.948 885.333 308.606 885.333 293.556C885.333 287.02 884.301 281.688 882.323 277.732L862.285 314.712Z" fill="black"/>
<path d="M678.522 175.94C697.614 175.94 708.364 186.948 708.364 206.556C708.364 226.078 697.872 237 679.038 237H659V175.94H678.522ZM668.116 228.572H678.522C692.196 228.572 698.904 221.348 698.904 206.556C698.904 191.592 692.196 184.368 678.522 184.368H668.116V228.572Z" fill="black"/>
<path d="M717.607 191.42H726.551V237H717.607V191.42ZM717.521 184.626V175.94H726.809V184.626H717.521Z" fill="black"/>
<path d="M737.273 214.21C737.273 199.676 745.787 190.388 758.859 190.388C769.523 190.388 778.811 197.44 779.327 213.694L779.413 216.79H746.647C747.335 225.304 751.635 230.292 758.859 230.292C763.417 230.292 767.459 227.712 769.351 223.326L778.725 224.014C776.059 232.614 768.061 238.032 758.859 238.032C745.787 238.032 737.273 228.744 737.273 214.21ZM746.819 209.91H769.953C768.749 201.138 764.019 198.128 758.859 198.128C752.151 198.128 747.937 202.514 746.819 209.91Z" fill="black"/>
<path d="M792.38 181.1H801.324V191.42H813.45V198.816H801.324V224.014C801.324 227.712 803.13 229.604 806.656 229.604H813.364V237H805.882C797.11 237 792.38 232.442 792.38 224.014V198.816H785.5V191.42H792.38V181.1Z" fill="black"/>
<path d="M818.822 214.21C818.822 199.676 827.336 190.388 840.408 190.388C851.072 190.388 860.36 197.44 860.876 213.694L860.962 216.79H828.196C828.884 225.304 833.184 230.292 840.408 230.292C844.966 230.292 849.008 227.712 850.9 223.326L860.274 224.014C857.608 232.614 849.61 238.032 840.408 238.032C827.336 238.032 818.822 228.744 818.822 214.21ZM828.368 209.91H851.502C850.298 201.138 845.568 198.128 840.408 198.128C833.7 198.128 829.486 202.514 828.368 209.91Z" fill="black"/>
<path d="M871.214 191.42H879.384L879.642 200.02C881.104 194.172 884.544 191.42 890.478 191.42H894.864V198.816H890.392C883.34 198.816 880.158 202.686 880.158 210.34V237H871.214V191.42Z" fill="black"/>
<path d="M611.374 129.79C612.836 137.444 618.254 142.604 627.284 142.604C634.508 142.604 639.324 139.852 639.324 134.262C639.324 128.5 634.422 125.146 622.984 122.308C612.148 119.642 603.204 114.568 603.204 104.678C603.204 94.186 611.804 87.564 624.102 87.564C637.346 87.564 646.204 95.82 647.58 107.344L638.206 107.86C637.174 100.636 631.756 95.906 623.93 95.906C617.394 95.906 612.578 99.346 612.664 104.764C612.75 111.558 621.006 113.45 628.144 115.428C639.84 118.438 648.784 124.114 648.784 133.574C648.784 145.012 638.378 151.032 626.768 151.032C612.922 151.032 602.946 142.862 602 130.306L611.374 129.79Z" fill="black"/>
<path d="M654.252 104.42H663.368L676.354 140.54L688.91 104.42H697.94L679.708 155.332C677.816 160.578 674.376 162.9 668.786 162.9H662.594V155.59H667.582C669.904 155.59 671.28 154.73 672.054 152.58L673.602 148.71H670.764L654.252 104.42Z" fill="black"/>
<path d="M730.481 118.696C729.535 113.88 724.891 110.956 720.161 110.956C715.517 110.956 711.733 113.364 711.819 117.406C711.819 121.534 717.237 123.254 721.881 124.114C733.061 126.178 740.457 129.188 740.457 138.132C740.457 147.076 731.341 151.032 721.967 151.032C710.443 151.032 702.101 145.098 701.413 135.638L710.615 135.036C711.475 140.196 715.517 143.378 721.881 143.378C725.923 143.378 731.169 142.002 731.169 137.788C731.083 132.8 725.321 132.198 720.333 131.08C710.873 129.016 702.531 126.522 702.531 117.75C702.531 108.892 709.669 103.388 720.935 103.388C730.653 103.388 738.221 109.15 739.683 118.18L730.481 118.696Z" fill="black"/>
<path d="M753.413 94.1H762.357V104.42H774.483V111.816H762.357V137.014C762.357 140.712 764.163 142.604 767.689 142.604H774.397V150H766.915C758.143 150 753.413 145.442 753.413 137.014V111.816H746.533V104.42H753.413V94.1Z" fill="black"/>
<path d="M779.855 127.21C779.855 112.676 788.369 103.388 801.441 103.388C812.105 103.388 821.393 110.44 821.909 126.694L821.995 129.79H789.229C789.917 138.304 794.217 143.292 801.441 143.292C805.999 143.292 810.041 140.712 811.933 136.326L821.307 137.014C818.641 145.614 810.643 151.032 801.441 151.032C788.369 151.032 779.855 141.744 779.855 127.21ZM789.401 122.91H812.535C811.331 114.138 806.601 111.128 801.441 111.128C794.733 111.128 790.519 115.514 789.401 122.91Z" fill="black"/>
<path d="M832.248 104.42H840.332L840.59 111.902C842.826 106.484 847.47 103.388 853.576 103.388C860.112 103.388 864.842 106.828 866.82 112.848C868.884 106.656 873.614 103.388 880.494 103.388C889.782 103.388 895.286 109.58 895.286 120.674V150H886.342V123.34C886.342 115.342 883.418 110.956 878.258 110.956C871.722 110.956 868.024 115.428 868.024 123.34V150H859.51V123.34C859.51 115.514 856.586 110.956 851.426 110.956C844.976 110.956 841.192 115.514 841.192 123.34V150H832.248V104.42Z" fill="black"/>
<path d="M576.3 41.5C576.3 55.518 567.184 64.376 552.65 64.376C538.116 64.376 529 55.518 529 41.5V1.854H538.116V41.5C538.116 50.788 543.362 55.948 552.65 55.948C561.938 55.948 567.184 50.788 567.184 41.5V1.854H576.3V41.5Z" fill="black"/>
<path d="M589.401 17.42H597.485L597.743 25.16C600.151 19.054 605.397 16.388 611.675 16.388C621.909 16.388 627.069 23.784 627.069 33.674V63H618.125V36.34C618.125 28.342 615.717 23.956 609.353 23.956C602.559 23.956 598.345 28.342 598.345 36.34V63H589.401V17.42Z" fill="black"/>
<path d="M638.784 17.42H647.728V63H638.784V17.42ZM638.698 10.626V1.94H647.986V10.626H638.698Z" fill="black"/>
<path d="M700.329 17.42L683.645 63H673.239L656.555 17.42H665.757L678.485 53.798L691.127 17.42H700.329Z" fill="black"/>
<path d="M703.801 40.21C703.801 25.676 712.315 16.388 725.387 16.388C736.051 16.388 745.339 23.44 745.855 39.694L745.941 42.79H713.175C713.863 51.304 718.163 56.292 725.387 56.292C729.945 56.292 733.987 53.712 735.879 49.326L745.253 50.014C742.587 58.614 734.589 64.032 725.387 64.032C712.315 64.032 703.801 54.744 703.801 40.21ZM713.347 35.91H736.481C735.277 27.138 730.547 24.128 725.387 24.128C718.679 24.128 714.465 28.514 713.347 35.91Z" fill="black"/>
<path d="M756.194 17.42H764.364L764.622 26.02C766.084 20.172 769.524 17.42 775.458 17.42H779.844V24.816H775.372C768.32 24.816 765.138 28.686 765.138 36.34V63H756.194V17.42Z" fill="black"/>
<path d="M813.242 31.696C812.296 26.88 807.652 23.956 802.922 23.956C798.278 23.956 794.494 26.364 794.58 30.406C794.58 34.534 799.998 36.254 804.642 37.114C815.822 39.178 823.218 42.188 823.218 51.132C823.218 60.076 814.102 64.032 804.728 64.032C793.204 64.032 784.862 58.098 784.174 48.638L793.376 48.036C794.236 53.196 798.278 56.378 804.642 56.378C808.684 56.378 813.93 55.002 813.93 50.788C813.844 45.8 808.082 45.198 803.094 44.08C793.634 42.016 785.292 39.522 785.292 30.75C785.292 21.892 792.43 16.388 803.696 16.388C813.414 16.388 820.982 22.15 822.444 31.18L813.242 31.696Z" fill="black"/>
<path d="M832.231 31.008C834.037 21.892 841.261 16.388 851.581 16.388C863.965 16.388 870.673 23.268 870.673 35.652V52.852C870.673 55.002 871.619 55.776 873.425 55.776H875.317V63H872.307C868.179 63.086 862.761 62.226 862.417 56.034C860.439 60.334 855.365 64.032 847.883 64.032C838.767 64.032 831.457 59.216 831.457 51.046C831.457 41.844 838.251 39.264 848.657 37.286L861.729 34.706C861.643 27.396 858.289 23.87 851.581 23.87C846.249 23.87 842.723 26.536 841.433 31.61L832.231 31.008ZM840.745 50.874C840.745 54.228 843.583 56.98 849.603 56.98C856.569 56.98 861.901 52.078 861.901 42.102V41.672L852.097 43.392C845.733 44.51 840.745 45.026 840.745 50.874Z" fill="black"/>
<path d="M885.628 1.94H894.572V63H885.628V1.94Z" fill="black"/>
<path d="M35.088 16.044C33.282 11.486 29.326 8.90596 23.994 8.90596C15.136 8.90596 9.89 16.646 8.944 30.234C12.212 24.73 17.544 21.72 24.08 21.72C36.206 21.72 44.376 30.406 44.376 42.79C44.376 56.206 35.174 64.376 22.188 64.376C16.512 64.376 10.922 62.312 6.45 57.496C2.15 52.938 0 45.284 0 35.996C0 17.506 6.278 0.563965 24.08 0.563965C33.626 0.563965 41.452 5.80996 44.118 15.442L35.088 16.044ZM9.632 42.79C9.46 50.616 14.792 56.206 22.446 56.206C29.842 56.206 35.088 50.616 35.088 42.79C35.088 35.136 30.1 29.718 22.962 29.718C15.222 29.718 9.718 35.136 9.632 42.79Z" fill="black"/>
<path d="M77.1722 64.376C61.8642 64.376 52.4902 51.992 52.4902 32.556C52.4902 12.948 61.8642 0.563965 77.1722 0.563965C92.5662 0.563965 101.94 12.948 101.94 32.556C101.94 51.992 92.5662 64.376 77.1722 64.376ZM61.9502 32.556C61.9502 38.92 62.8962 44.08 64.7882 47.95L84.7402 11.142C82.6762 9.76596 80.0962 8.99196 77.1722 8.99196C67.3682 8.99196 61.9502 17.42 61.9502 32.556ZM69.4322 53.712C71.5822 55.174 74.1622 55.948 77.1722 55.948C87.0622 55.948 92.4802 47.606 92.4802 32.556C92.4802 26.02 91.4482 20.688 89.4702 16.732L69.4322 53.712Z" fill="black"/>
<path d="M145.108 16.044C143.302 11.486 139.346 8.90596 134.014 8.90596C125.156 8.90596 119.91 16.646 118.964 30.234C122.232 24.73 127.564 21.72 134.1 21.72C146.226 21.72 154.396 30.406 154.396 42.79C154.396 56.206 145.194 64.376 132.208 64.376C126.532 64.376 120.942 62.312 116.47 57.496C112.17 52.938 110.02 45.284 110.02 35.996C110.02 17.506 116.298 0.563965 134.1 0.563965C143.646 0.563965 151.472 5.80996 154.138 15.442L145.108 16.044ZM119.652 42.79C119.48 50.616 124.812 56.206 132.466 56.206C139.862 56.206 145.108 50.616 145.108 42.79C145.108 35.136 140.12 29.718 132.982 29.718C125.242 29.718 119.738 35.136 119.652 42.79Z" fill="black"/>
</g>
<defs>
<clipPath id="clip0_239_215">
<rect width="895" height="325" fill="white"/>
</clipPath>
</defs>
</svg>
