<svg width="410" height="101" viewBox="0 0 410 101" fill="none" xmlns="http://www.w3.org/2000/svg">
<path d="M57.0093 66.4741H23.0975L12.283 99.0508H0L33.1108 6.928H48.5981L80.3738 99.0508H67.9573L57.0093 66.4741ZM26.3017 57.1283H53.9386L40.5874 16.0068L26.3017 57.1283Z" fill="black"/>
<path d="M97.0189 5.05884C101.158 5.05884 104.362 8.26312 104.362 12.402C104.362 16.5408 101.158 19.7451 97.0189 19.7451C92.8801 19.7451 89.6758 16.5408 89.6758 12.402C89.6758 8.26312 92.8801 5.05884 97.0189 5.05884ZM102.76 99.0508H91.278V28.2898H102.76V99.0508Z" fill="black"/>
<path d="M134.039 0.919998V78.7571C134.039 80.8933 134.039 83.163 134.173 85.4327C134.44 89.9721 136.576 91.4407 142.851 90.7731V99.0508C140.314 99.4514 137.377 99.5849 134.707 99.5849C128.031 99.5849 123.091 97.4487 122.691 88.5034C122.557 86.1002 122.557 83.0295 122.557 79.1577V0.919998H134.039Z" fill="black"/>
<path d="M214.155 61.6677C214.155 62.7358 214.155 64.6049 213.888 67.1416H162.62C163.688 85.8332 172.5 92.1083 182.914 92.1083C192.126 92.1083 199.603 86.3673 201.205 76.2204H213.221C210.417 93.3099 196.932 100.92 182.38 100.92C163.955 100.92 150.203 88.904 150.203 63.9374C150.203 40.9734 164.489 26.4207 183.848 26.4207C203.341 26.4207 214.155 40.9734 214.155 61.6677ZM183.581 35.2324C172.366 35.2324 164.089 43.2431 162.753 58.3299H202.54C201.472 43.6436 195.197 35.2324 183.581 35.2324Z" fill="black"/>
<path d="M257.123 26.6877C258.992 26.6877 260.594 26.9547 261.929 27.6223V36.3005C249.913 35.4994 240.835 42.5755 240.835 58.7304V99.0508H229.353V28.2898H240.835V39.3713L247.243 29.892C250.18 27.8893 253.785 26.6877 257.123 26.6877Z" fill="black"/>
<path d="M301.096 26.4207C325.128 26.4207 336.21 43.6436 336.21 63.6703C336.21 83.5635 325.128 100.92 301.096 100.92C277.064 100.92 265.983 83.5635 265.983 63.6703C265.983 43.6436 277.064 26.4207 301.096 26.4207ZM301.096 92.1083C315.382 92.1083 323.66 80.2257 323.66 63.6703C323.66 46.9814 315.382 35.2324 301.096 35.2324C286.811 35.2324 278.533 46.9814 278.533 63.6703C278.533 80.2257 286.811 92.1083 301.096 92.1083Z" fill="black"/>
<path d="M409.633 47.1149C409.9 50.7197 409.9 53.5235 409.9 59.2645V99.0508H398.418V60.0655C398.418 56.4607 398.418 53.5235 398.151 49.9187C397.483 41.641 392.944 35.4994 381.996 35.4994C370.914 35.4994 361.569 43.7771 361.569 67.9427V99.0508H350.087V28.2898H361.569V40.4394L365.974 32.2952C371.982 27.6223 377.189 26.4207 384.399 26.4207C399.886 26.4207 408.565 34.6984 409.633 47.1149Z" fill="black"/>
</svg>
