<svg preserveAspectRatio="xMinYMin meet" width="411" height="101" viewBox="0 0 411 101" fill="none" xmlns="http://www.w3.org/2000/svg">
<path d="M57.7214 66.4741H23.8095L12.9951 99.0508H0.712006L33.8228 6.928H49.3101L81.0858 99.0508H68.6693L57.7214 66.4741ZM27.0137 57.1283H54.6506L41.2995 16.0068L27.0137 57.1283Z" fill="black"/>
<path d="M97.731 5.05884C101.87 5.05884 105.074 8.26312 105.074 12.402C105.074 16.5408 101.87 19.7451 97.731 19.7451C93.5921 19.7451 90.3878 16.5408 90.3878 12.402C90.3878 8.26312 93.5921 5.05884 97.731 5.05884ZM103.472 99.0508H91.99V28.2898H103.472V99.0508Z" fill="black"/>
<path d="M134.751 0.919998V78.7571C134.751 80.8933 134.751 83.163 134.885 85.4327C135.152 89.9721 137.288 91.4407 143.563 90.7731V99.0508C141.026 99.4514 138.089 99.5849 135.419 99.5849C128.743 99.5849 123.803 97.4487 123.403 88.5034C123.269 86.1002 123.269 83.0295 123.269 79.1577V0.919998H134.751Z" fill="black"/>
<path d="M214.867 61.6677C214.867 62.7358 214.867 64.6049 214.6 67.1416H163.332C164.4 85.8332 173.212 92.1083 183.626 92.1083C192.838 92.1083 200.315 86.3673 201.917 76.2204H213.933C211.129 93.3099 197.644 100.92 183.092 100.92C164.667 100.92 150.915 88.904 150.915 63.9374C150.915 40.9734 165.201 26.4207 184.56 26.4207C204.053 26.4207 214.867 40.9734 214.867 61.6677ZM184.293 35.2324C173.078 35.2324 164.801 43.2431 163.465 58.3299H203.252C202.184 43.6436 195.909 35.2324 184.293 35.2324Z" fill="black"/>
<path d="M257.835 26.6877C259.704 26.6877 261.306 26.9547 262.641 27.6223V36.3005C250.625 35.4994 241.547 42.5755 241.547 58.7304V99.0508H230.065V28.2898H241.547V39.3713L247.955 29.892C250.892 27.8893 254.497 26.6877 257.835 26.6877Z" fill="black"/>
<path d="M301.808 26.4207C325.84 26.4207 336.922 43.6436 336.922 63.6703C336.922 83.5635 325.84 100.92 301.808 100.92C277.776 100.92 266.695 83.5635 266.695 63.6703C266.695 43.6436 277.776 26.4207 301.808 26.4207ZM301.808 92.1083C316.094 92.1083 324.372 80.2257 324.372 63.6703C324.372 46.9814 316.094 35.2324 301.808 35.2324C287.523 35.2324 279.245 46.9814 279.245 63.6703C279.245 80.2257 287.523 92.1083 301.808 92.1083Z" fill="black"/>
<path d="M410.345 47.1149C410.612 50.7197 410.612 53.5235 410.612 59.2645V99.0508H399.13V60.0655C399.13 56.4607 399.13 53.5235 398.863 49.9187C398.195 41.641 393.656 35.4994 382.708 35.4994C371.626 35.4994 362.281 43.7771 362.281 67.9427V99.0508H350.799V28.2898H362.281V40.4394L366.686 32.2952C372.694 27.6223 377.901 26.4207 385.111 26.4207C400.598 26.4207 409.277 34.6984 410.345 47.1149Z" fill="black"/>
</svg>
