<svg preserveAspectRatio="xMinYMin meet" width="259" height="100" viewBox="0 0 259 100" fill="none" xmlns="http://www.w3.org/2000/svg">
<path d="M0.875 99.0991L10.4471 0H44.0619L53.4651 99.0991H34.7151L33.3074 83.1081H21.3705L20.1318 99.0991H0.875ZM22.7782 67.286H31.7872L27.4516 16.8919H26.5507L22.7782 67.286Z" fill="black"/>
<path d="M59.2083 99.0991V14.6396H79.366V25.3941C80.1167 22.1659 81.5056 19.4257 83.5327 17.1734C85.5972 14.8836 88.4501 13.7387 92.0912 13.7387C97.9471 13.7387 102.189 15.5405 104.816 19.1441C107.482 22.7477 108.814 27.6839 108.814 33.9527V99.0991H88.9381V36.036C88.9381 34.3844 88.6002 32.8641 87.9245 31.4752C87.2489 30.0488 86.0852 29.3356 84.4336 29.3356C82.8945 29.3356 81.7496 29.8799 80.9989 30.9685C80.2857 32.0195 79.8352 33.3521 79.6475 34.9662C79.4598 36.5428 79.366 38.1194 79.366 39.6959V99.0991H59.2083Z" fill="black"/>
<path d="M134.096 100C128.653 100 124.974 98.8551 123.06 96.5653C121.183 94.238 120.244 90.6907 120.244 85.9234V33.277H114.557V17.9054H120.244V0H139.839V17.9054H145.526V33.277H139.839V81.1937C139.839 82.5826 140.064 83.5586 140.515 84.1216C140.965 84.6847 141.828 84.9662 143.105 84.9662C144.006 84.9662 144.813 84.8911 145.526 84.741V98.4797C145.075 98.6299 143.668 98.9114 141.303 99.3243C138.938 99.7748 136.536 100 134.096 100Z" fill="black"/>
<path d="M176.551 100C159.734 100 151.325 91.2725 151.325 73.8176V39.9212C151.325 31.9632 153.559 25.6194 158.026 20.8896C162.493 16.1224 168.668 13.7387 176.551 13.7387C184.471 13.7387 190.665 16.1224 195.132 20.8896C199.599 25.6194 201.832 31.9632 201.832 39.9212V73.8176C201.832 91.2725 193.405 100 176.551 100ZM176.551 84.4595C178.24 84.4595 179.441 83.8589 180.154 82.6577C180.905 81.4189 181.28 79.8611 181.28 77.9842V36.7117C181.28 31.7943 179.704 29.3356 176.551 29.3356C173.398 29.3356 171.821 31.7943 171.821 36.7117V77.9842C171.821 79.8611 172.178 81.4189 172.891 82.6577C173.642 83.8589 174.861 84.4595 176.551 84.4595Z" fill="black"/>
<path d="M209.321 99.0991V14.6396H229.479V25.3941C230.229 22.1659 231.618 19.4257 233.645 17.1734C235.71 14.8836 238.563 13.7387 242.204 13.7387C248.06 13.7387 252.301 15.5405 254.929 19.1441C257.594 22.7477 258.927 27.6839 258.927 33.9527V99.0991H239.051V36.036C239.051 34.3844 238.713 32.8641 238.037 31.4752C237.361 30.0488 236.198 29.3356 234.546 29.3356C233.007 29.3356 231.862 29.8799 231.111 30.9685C230.398 32.0195 229.948 33.3521 229.76 34.9662C229.572 36.5428 229.479 38.1194 229.479 39.6959V99.0991H209.321Z" fill="black"/>
</svg>
