<svg width="265" height="100" viewBox="0 0 265 100" fill="none" xmlns="http://www.w3.org/2000/svg">
<path d="M0.875 99.1071L10.3616 0.892857H43.6763L52.9955 99.1071H34.4129L33.0179 83.2589H21.1875L19.9598 99.1071H0.875ZM22.5826 67.5781H31.5112L27.2143 17.6339H26.3214L22.5826 67.5781Z" fill="black"/>
<path d="M59.0223 99.1071V0.892857H79.2232L88.2634 47.9353V0.892857H107.237V99.1071H88.0402L78.2187 50V99.1071H59.0223Z" fill="black"/>
<path d="M124.368 99.1071V19.7545H112.705V0.892857H155.674V19.7545H144.011V99.1071H124.368Z" fill="black"/>
<path d="M184.58 100C176.731 100 170.722 97.6376 166.556 92.9129C162.426 88.151 160.362 81.2872 160.362 72.3214V25.6696C160.362 17.2619 162.408 10.8817 166.5 6.52902C170.629 2.17634 176.656 0 184.58 0C192.504 0 198.513 2.17634 202.605 6.52902C206.734 10.8817 208.799 17.2619 208.799 25.6696V72.3214C208.799 81.2872 206.716 88.151 202.549 92.9129C198.42 97.6376 192.43 100 184.58 100ZM184.748 81.9196C187.724 81.9196 189.212 79.0365 189.212 73.2701V25.3348C189.212 20.4985 187.761 18.0804 184.859 18.0804C181.586 18.0804 179.949 20.5543 179.949 25.5022V73.3817C179.949 76.4323 180.321 78.6272 181.065 79.9665C181.809 81.2686 183.036 81.9196 184.748 81.9196Z" fill="black"/>
<path d="M216.723 99.1071V0.892857H236.924L245.964 47.9353V0.892857H264.937V99.1071H245.741L235.92 50V99.1071H216.723Z" fill="black"/>
</svg>
