<svg role="img" width="505" height="126" viewBox="0 0 505 126" fill="none" xmlns="http://www.w3.org/2000/svg">
<title>Aspekta</title>
<path d="M80.8492 98.6087L69.7495 70.3956H23.9807L12.8811 98.6087H0L40.2875 0H53.4427L93.7302 98.6087H80.8492ZM28.3657 59.4391H65.3645L46.8651 12.463L28.3657 59.4391Z" fill="black"/>
<path d="M129.869 100.252C112.74 100.252 100.407 92.5826 99.4481 75.3261H111.096C112.192 86.2826 118.496 90.2543 129.869 90.2543C140.421 90.2543 146.724 86.4196 146.724 79.5717C146.724 73.2717 144.532 70.5326 128.773 67.9304C106.985 64.3696 101.641 57.2478 101.641 46.0174C101.641 33.6913 112.603 25.7478 127.814 25.7478C145.765 25.7478 156.865 34.2391 157.002 49.3043H145.491C145.08 38.6217 137.543 35.7457 127.814 35.7457C119.729 35.7457 113.151 39.3065 113.151 45.8804C113.151 52.4543 116.714 54.7826 131.651 57.3848C152.617 61.0826 158.372 67.1087 158.372 78.887C158.372 92.5826 146.176 100.252 129.869 100.252Z" fill="black"/>
<path d="M170.094 27.3913H181.056V38.3478C186.126 30.5413 194.211 25.7478 205.174 25.7478C226.551 25.7478 238.336 41.6348 238.336 63C238.336 84.3652 226.551 100.252 205.174 100.252C194.623 100.252 186.675 95.8696 181.604 88.4739V126H170.094V27.3913ZM181.33 63C181.33 78.613 188.73 89.8435 203.804 89.8435C218.877 89.8435 226.277 78.613 226.277 63C226.277 47.387 218.877 36.1565 203.804 36.1565C188.73 36.1565 181.33 47.387 181.33 63Z" fill="black"/>
<path d="M282.002 100.252C261.858 100.252 248.703 84.3652 248.703 63C248.703 41.6348 261.858 25.7478 282.002 25.7478C302.146 25.7478 315.301 41.6348 315.301 63V67.1087H260.899C262.132 80.5304 269.395 89.8435 282.002 89.8435C291.32 89.8435 298.583 85.05 301.872 76.9696H313.794C309.272 91.0761 297.487 100.252 282.002 100.252ZM261.173 56.7H302.831C301.05 44.5109 293.924 36.1565 282.002 36.1565C270.08 36.1565 262.955 44.5109 261.173 56.7Z" fill="black"/>
<path d="M328.939 98.6087V0H340.998V60.6717L373.2 27.3913H388.274L360.73 55.1935L390.741 98.6087H376.626L352.509 63.5478L340.998 75.3261V98.6087H328.939Z" fill="black"/>
<path d="M406.856 5.47826H418.367V27.3913H437.551V37.5261H418.367V81.0783C418.367 86.2826 420.559 88.4739 425.766 88.4739H437.551V98.6087H423.574C411.241 98.6087 406.856 93.4043 406.856 82.4478V37.5261H393.701V27.3913H406.856V5.47826Z" fill="black"/>
<path d="M494.311 98.6087V89.7065C488.145 97.65 479.923 100.252 471.564 100.252C455.531 100.252 445.802 92.7196 445.802 79.2978C445.802 66.6978 455.531 60.1239 471.427 57.1109L493.763 52.8652V47.387C493.763 38.8957 488.008 35.8826 478.142 35.8826C469.646 35.8826 460.327 38.4848 459.779 49.3043H448.269C448.817 32.0478 463.068 25.7478 478.142 25.7478C496.504 25.7478 505 33.6913 505 46.2913V98.6087H494.311ZM457.724 79.0239C457.724 85.5978 461.972 90.1174 472.112 90.1174C482.527 90.1174 493.763 84.2283 493.763 70.3956V62.5891L473.071 66.8348C463.89 68.7522 457.724 70.9435 457.724 79.0239Z" fill="black"/>
</svg>
