<svg width="316" height="100" viewBox="0 0 316 100" fill="none" xmlns="http://www.w3.org/2000/svg">
<path d="M81.4016 97.8437H73.0458L71.9677 81.9407C67.9245 92.5876 56.0647 100 43.2615 100C15.7682 100 0 78.0323 0 50.1348C0 22.1024 15.6334 0 43.2615 0C63.3423 0 76.6846 12.5337 80.9973 30.1887L69.1375 30.9973C65.903 19.1375 57.0081 11.0512 43.2615 11.0512C21.4286 11.0512 11.8598 29.1105 11.8598 50.1348C11.8598 71.0243 21.5633 88.9488 43.2615 88.9488C59.973 88.9488 69.407 76.6846 70.3504 60.6469H43.2615V49.5957H81.4016V97.8437Z" fill="black"/>
<path d="M96.3338 62.1294C96.3338 39.4879 109.137 24.7978 128.948 24.7978C144.851 24.7978 158.733 35.4447 159.946 60.6469L160.08 65.6334H108.059C109.137 80.3234 116.549 88.9488 128.948 88.9488C136.765 88.9488 143.773 84.3666 147.008 76.8194L158.868 77.628C154.69 91.1051 142.695 99.4609 128.948 99.4609C109.137 99.4609 96.3338 84.7709 96.3338 62.1294ZM108.328 55.7951H147.951C145.93 40.7008 137.843 35.31 128.948 35.31C117.493 35.31 110.08 42.8571 108.328 55.7951Z" fill="black"/>
<path d="M177.264 26.4151H188.315V97.8437H177.264V26.4151ZM176.994 15.2291V2.42588H188.584V15.2291H176.994Z" fill="black"/>
<path d="M251.786 48.3827C250.168 40.1617 242.082 35.31 233.996 35.31C225.91 35.31 219.441 39.4879 219.441 46.3612C219.575 53.3693 228.605 56.3342 236.691 58.0863C252.999 61.186 264.724 65.7682 264.724 79.6496C264.724 93.3962 250.573 99.4609 236.961 99.4609C220.115 99.4609 207.177 90.1617 206.098 75.4717L217.689 74.6631C219.036 83.2884 226.044 88.9488 236.961 88.9488C244.239 88.9488 253.133 86.5229 253.133 79.1105C253.133 70.4852 242.891 69.5418 234.67 67.5202C221.462 64.4205 207.985 60.6469 207.985 47.035C207.85 33.4232 218.902 24.7978 235.209 24.7978C249.495 24.7978 261.085 33.8275 263.376 47.5741L251.786 48.3827Z" fill="black"/>
<path d="M285.616 10.2426H296.668V26.4151H315.67V36.2534H296.668V78.9757C296.668 85.0404 299.633 88.0054 305.293 88.0054H315.536V97.8437H305.293C292.624 97.8437 285.616 91.1051 285.616 78.9757V36.2534H275.104V26.4151H285.616V10.2426Z" fill="black"/>
</svg>
