<svg width="797" height="101" viewBox="0 0 797 101" fill="none" xmlns="http://www.w3.org/2000/svg">
<path d="M71.2213 97.9157H62.8655L61.2482 84.169C57.2051 94.4116 48.9841 100.072 37.1242 100.072C14.7523 100.072 0.736084 80.7998 0.736084 50.2068C0.736084 19.3442 14.7523 0.0719986 37.1242 0.0719986C53.162 0.0719986 66.5043 12.4709 70.6822 30.2607L58.9571 31.0693C55.7226 19.2095 47.3668 11.1232 37.1242 11.1232C21.356 11.1232 12.5959 25.2742 12.5959 50.2068C12.5959 75.0046 21.356 89.0208 37.1242 89.0208C49.7927 89.0208 59.2267 76.7566 60.17 60.7189H37.1242V49.6677H71.2213V97.9157Z" fill="black"/>
<path d="M85.5891 62.2014C85.5891 39.5599 98.3923 24.8698 118.204 24.8698C134.107 24.8698 147.988 35.5167 149.066 60.7189L149.201 65.7054H97.3142C98.2576 80.3954 105.805 89.0208 118.204 89.0208C125.886 89.0208 133.028 84.4386 136.263 76.8914L148.123 77.7C143.945 91.1771 131.816 99.5329 118.204 99.5329C98.3923 99.5329 85.5891 84.8429 85.5891 62.2014ZM97.5837 55.8671H137.206C135.185 40.7728 127.099 35.382 118.204 35.382C106.748 35.382 99.3357 42.9291 97.5837 55.8671Z" fill="black"/>
<path d="M208.043 26.4871V88.0774H229.876V97.9157H171.251V88.0774H196.992V36.3254H171.251V26.4871H208.043ZM195.51 15.7054V2.22833H208.043V15.7054H195.51Z" fill="black"/>
<path d="M296.265 48.4547C294.648 40.2337 286.832 35.382 277.667 35.382C269.985 35.382 263.112 39.2903 263.112 46.7027C263.112 54.5194 272.141 56.2715 280.363 58.5626C293.974 61.9318 307.856 66.2445 307.856 79.7216C307.856 93.603 294.244 99.5329 280.093 99.5329C263.651 99.5329 250.309 90.2337 249.23 75.5437L260.686 74.7351C262.034 83.3604 269.985 89.0208 280.093 89.0208C288.044 89.0208 296.265 86.8645 296.265 79.1825C296.265 71.0963 286.023 70.0181 278.341 68.1313C265.133 64.8968 251.522 60.3146 251.522 47.3766C251.522 32.9561 264.19 24.8698 278.88 24.8698C293.705 24.8698 305.026 33.8995 307.317 47.6461L296.265 48.4547Z" fill="black"/>
<path d="M348.1 7.61917H359.151V26.4871H386.509V36.3254H359.151V78.5087C359.151 84.4386 362.52 88.0774 368.45 88.0774H386.24V97.9157H368.45C354.164 97.9157 348.1 90.2337 348.1 78.3739V36.3254H328.962V26.4871H348.1V7.61917Z" fill="black"/>
<path d="M489.234 2.22833H507.428L521.04 72.0397L534.652 2.22833H552.846V97.9157H541.525V14.4925L526.027 91.1771H516.054L500.555 14.3577V97.9157H489.234V2.22833Z" fill="black"/>
<path d="M601.85 99.5329C582.039 99.5329 569.235 84.8429 569.235 62.2014C569.235 39.5599 582.039 24.8698 601.85 24.8698C621.661 24.8698 634.465 39.5599 634.465 62.2014C634.465 84.8429 621.661 99.5329 601.85 99.5329ZM580.826 62.2014C580.826 78.913 588.643 89.0208 601.85 89.0208C615.192 89.0208 622.874 78.913 622.874 62.2014C622.874 45.4898 615.192 35.382 601.85 35.382C588.643 35.382 580.826 45.4898 580.826 62.2014Z" fill="black"/>
<path d="M655.167 26.4871H665.274L665.544 39.0208C669.183 29.1825 677.673 24.8698 687.646 24.8698C703.819 24.8698 711.77 36.8645 711.77 51.9588V97.9157H700.719V55.1933C700.719 41.9857 696.272 34.7081 685.355 34.7081C673.765 34.7081 666.218 41.9857 666.218 55.1933V97.9157H655.167V26.4871Z" fill="black"/>
<path d="M763.47 99.5329C743.659 99.5329 730.855 84.8429 730.855 62.2014C730.855 39.5599 743.659 24.8698 763.47 24.8698C783.281 24.8698 796.084 39.5599 796.084 62.2014C796.084 84.8429 783.281 99.5329 763.47 99.5329ZM742.446 62.2014C742.446 78.913 750.262 89.0208 763.47 89.0208C776.812 89.0208 784.494 78.913 784.494 62.2014C784.494 45.4898 776.812 35.382 763.47 35.382C750.262 35.382 742.446 45.4898 742.446 62.2014Z" fill="black"/>
</svg>
