<svg width="1124" height="101" viewBox="0 0 1124 101" fill="none" xmlns="http://www.w3.org/2000/svg">
<path d="M0.799988 99.586V96.7014L8.97306 94.2975V13.2278L0.799988 10.9442V8.05953H28.8649V10.9442L19.7904 13.2278V94.598H46.7735C50.2591 87.3264 52.5428 80.3552 54.8264 71.2206H57.711L54.1053 99.586H0.799988Z" fill="black"/>
<path d="M74.3473 22.723C70.4411 22.723 67.9771 19.1172 67.9771 14.9105C67.9771 10.3432 70.4411 6.79752 74.3473 6.79752C78.3738 6.79752 80.8377 10.3432 80.8377 14.9105C80.8377 19.1172 78.3738 22.723 74.3473 22.723ZM62.2079 99.586V96.9417L69.5397 95.0788V46.1004L62.3281 42.9153V41.0523L78.3137 35.3432H79.3954V95.0788L86.607 96.9417V99.586H62.2079Z" fill="black"/>
<path d="M117.035 100.848C112.228 100.848 107.6 98.8047 103.814 95.3191H103.273L98.4055 99.586H96.7228V11.6052L89.6315 8.36001V6.67732L105.497 0.847992H106.579V43.4562C110.605 38.1076 115.593 35.3432 121.302 35.3432C133.742 35.3432 142.276 47.6028 142.276 65.4514C142.276 85.5235 131.398 100.848 117.035 100.848ZM116.795 96.4009C125.569 96.4009 131.278 85.3432 131.278 68.8167C131.278 52.2302 125.869 42.1941 116.975 42.1941C112.708 42.1941 109.103 44.598 106.579 48.4441V81.4369C106.579 90.4514 110.605 96.4009 116.795 96.4009Z" fill="black"/>
<path d="M149.655 99.586V96.9417L156.867 95.0788V46.1004L149.836 42.7951V41.0523L165.22 35.2831H166.242V48.0235C170.809 39.8504 175.437 35.223 179.463 35.223C182.949 35.223 185.713 38.6485 185.713 42.9153C185.713 46.8816 183.309 49.8865 180.184 49.8865C178.742 49.8865 177.36 49.1653 176.458 47.6629C175.136 45.7999 174.415 45.2591 173.273 45.2591C171.59 45.2591 168.886 47.9634 166.663 52.2903V95.0788L176.578 96.9417V99.586H149.655Z" fill="black"/>
<path d="M213.263 100.848C199.261 100.848 189.946 87.9874 189.946 69.0571C189.946 49.0451 200.403 35.3432 215.787 35.3432C228.528 35.3432 235.379 44.7182 235.679 62.5066L235.018 63.2278H200.403C200.343 63.949 200.343 64.7302 200.343 65.5115C200.343 82.699 205.811 91.6533 216.569 91.6533C223.42 91.6533 229.129 88.2879 232.795 82.0379L234.537 83.4201C231.172 94.4778 223.359 100.848 213.263 100.848ZM214.826 39.3696C206.713 39.3696 201.725 46.6413 200.583 59.622L224.682 58.5403C224.862 57.6389 224.982 55.6557 224.982 53.7927C224.982 44.1773 221.557 39.3696 214.826 39.3696Z" fill="black"/>
<path d="M305.106 100.848C284.433 100.848 270.25 81.8576 270.25 54.3937C270.25 26.5091 284.854 6.79752 305.407 6.79752C312.979 6.79752 320.371 9.44174 326.14 14.1292H326.5L331.128 8.05953H332.991V35.6437H329.866C328.784 31.2566 327.462 27.8312 326.02 24.8264C321.452 15.872 315.623 12.3264 307.21 12.3264C291.645 12.3264 282.991 26.9898 282.991 53.4922C282.991 79.9946 291.825 95.1389 307.21 95.1389C314.842 95.1389 321.092 91.2927 325.238 83.9009C327.582 79.7542 329.325 74.4057 330.226 68.1557H332.991V99.586H330.587L326.26 91.7735C319.469 98.0836 312.979 100.848 305.106 100.848Z" fill="black"/>
<path d="M355.309 100.848C348.458 100.848 343.771 94.9586 343.771 86.3648C343.771 75.7879 350.982 70.0187 370.093 65.1509V53.9129C370.093 43.7566 368.11 40.1509 362.701 40.1509C357.412 40.1509 354.047 43.5764 354.047 49.0451C354.047 50.5475 354.287 52.0499 354.287 53.4321C354.287 57.5187 352.064 60.4634 349.059 60.4634C346.355 60.4634 344.432 57.9994 344.432 54.3937C344.432 49.2254 348.398 43.2759 354.347 39.3095C358.254 36.7254 362.761 35.3432 367.268 35.3432C372.857 35.3432 376.884 37.5667 378.566 41.5932C379.588 44.3576 379.888 47.4225 379.888 57.2182V84.0812C379.888 91.8937 380.73 94.1172 383.434 94.1172C385.177 94.1172 386.439 93.1557 388.001 90.7518L389.744 92.7951C386.619 98.5042 383.614 100.848 379.287 100.848C374.119 100.848 371.355 97.3624 370.393 90.1509H370.093C366.427 96.7615 360.958 100.848 355.309 100.848ZM360.117 93.2158C364.083 93.2158 367.749 90.4514 370.093 85.824V68.8768C357.172 72.0619 353.266 75.4874 353.266 83.5403C353.266 89.7302 355.67 93.2158 360.117 93.2158Z" fill="black"/>
<path d="M409.32 100.848C405.234 100.848 399.705 99.7062 396.039 98.2038L395.378 78.9129H397.902C398.744 90.7518 402.83 96.8816 409.981 96.8816C415.57 96.8816 419.176 92.6749 419.176 86.3047C419.176 81.0163 417.013 77.6509 410.823 73.6845L406.856 71.2206C398.623 66.1124 395.378 60.9441 395.378 52.8913C395.378 41.6533 401.869 35.3432 413.467 35.3432C417.974 35.3432 422.542 36.1845 424.945 37.4466V53.9129H422.722C421.82 44.2374 418.155 39.2494 411.784 39.2494C406.857 39.2494 403.611 42.8552 403.611 48.5042C403.611 53.4922 405.955 56.6172 412.205 60.3432L416.532 62.9874C424.104 67.6148 427.229 72.723 427.229 81.3167C427.229 93.2759 420.378 100.848 409.32 100.848Z" fill="black"/>
<path d="M433.976 99.586V96.9417L441.308 95.0788V11.5451L434.096 8.36001V6.49704L450.082 0.847992H451.103V95.0788L458.315 96.9417V99.586H433.976Z" fill="black"/>
<path d="M489.842 100.848C475.058 100.848 464.541 86.7855 464.541 68.0956C464.541 49.4057 475.058 35.3432 489.842 35.3432C504.625 35.3432 515.202 49.4057 515.202 68.0956C515.202 86.7855 504.625 100.848 489.842 100.848ZM489.782 95.3191C499.097 95.3191 504.265 84.3216 504.265 67.9754C504.265 51.7494 499.217 40.8119 489.842 40.8119C480.527 40.8119 475.419 51.7494 475.419 68.0956C475.419 84.3816 480.527 95.3191 489.782 95.3191Z" fill="black"/>
<path d="M522.262 99.586V96.9417L529.473 95.0788V46.2206L522.322 42.9153V41.1725L537.706 35.3432H538.788V45.3792C544.077 39.0691 550.567 35.3432 556.697 35.3432C565.771 35.3432 570.399 40.8119 570.399 51.5091V95.199L577.49 96.9417V99.586H553.572V96.9417L560.543 95.199V56.6172C560.543 47.122 557.658 42.4345 550.807 42.4345C546.42 42.4345 542.394 44.8985 539.269 49.4057V95.0788L546.36 96.9417V99.586H522.262Z" fill="black"/>
<path d="M645.142 100.848C624.469 100.848 610.287 81.8576 610.287 54.3937C610.287 26.5091 624.89 6.79752 645.443 6.79752C653.015 6.79752 660.407 9.44174 666.176 14.1292H666.537L671.164 8.05953H673.027V35.6437H669.902C668.82 31.2566 667.498 27.8312 666.056 24.8264C661.489 15.872 655.659 12.3264 647.246 12.3264C631.681 12.3264 623.027 26.9898 623.027 53.4922C623.027 79.9946 631.861 95.1389 647.246 95.1389C654.878 95.1389 661.128 91.2927 665.275 83.9009C667.618 79.7542 669.361 74.4057 670.263 68.1557H673.027V99.586H670.623L666.296 91.7735C659.505 98.0836 653.015 100.848 645.142 100.848Z" fill="black"/>
<path d="M708.747 100.848C693.963 100.848 683.446 86.7855 683.446 68.0956C683.446 49.4057 693.963 35.3432 708.747 35.3432C723.53 35.3432 734.107 49.4057 734.107 68.0956C734.107 86.7855 723.53 100.848 708.747 100.848ZM708.687 95.3191C718.001 95.3191 723.17 84.3216 723.17 67.9754C723.17 51.7494 718.122 40.8119 708.747 40.8119C699.432 40.8119 694.324 51.7494 694.324 68.0956C694.324 84.3816 699.432 95.3191 708.687 95.3191Z" fill="black"/>
<path d="M741.167 99.586V96.9417L748.378 95.0788V46.2206L741.227 42.9153V41.1725L756.611 35.3432H757.693V45.3792C762.982 39.0691 769.472 35.3432 775.602 35.3432C784.676 35.3432 789.304 40.8119 789.304 51.5091V95.199L796.395 96.9417V99.586H772.477V96.9417L779.448 95.199V56.6172C779.448 47.122 776.563 42.4345 769.712 42.4345C765.325 42.4345 761.299 44.8985 758.174 49.4057V95.0788L765.265 96.9417V99.586H741.167Z" fill="black"/>
<path d="M822.774 100.848C811.356 100.848 802.822 87.3264 802.822 69.1172C802.822 49.1653 812.979 35.3432 827.943 35.3432C831.248 35.3432 834.914 36.0042 838.339 37.3264V11.7855L831.248 8.36001V6.67732L846.933 0.847992H848.075V90.0307L854.625 91.8937V93.336L839.782 100.848H839V90.9321L838.58 90.7518C834.613 97.4225 829.024 100.848 822.774 100.848ZM826.981 92.9153C831.729 92.9153 836.056 90.2711 838.339 86.0042V52.5908C838.339 43.997 834.673 39.3095 828.003 39.3095C819.409 39.3095 813.64 50.3672 813.64 67.1941C813.64 83.0595 818.628 92.9153 826.981 92.9153Z" fill="black"/>
<path d="M884.65 100.848C870.648 100.848 861.333 87.9874 861.333 69.0571C861.333 49.0451 871.789 35.3432 887.174 35.3432C899.914 35.3432 906.765 44.7182 907.066 62.5066L906.405 63.2278H871.789C871.729 63.949 871.729 64.7302 871.729 65.5115C871.729 82.699 877.198 91.6533 887.955 91.6533C894.806 91.6533 900.515 88.2879 904.181 82.0379L905.924 83.4201C902.559 94.4778 894.746 100.848 884.65 100.848ZM886.212 39.3696C878.099 39.3696 873.111 46.6413 871.97 59.622L896.068 58.5403C896.249 57.6389 896.369 55.6557 896.369 53.7927C896.369 44.1773 892.943 39.3696 886.212 39.3696Z" fill="black"/>
<path d="M913.826 99.586V96.9417L921.037 95.0788V46.2206L913.886 42.9153V41.1725L929.27 35.3432H930.352V45.3792C935.641 39.0691 942.131 35.3432 948.261 35.3432C957.335 35.3432 961.963 40.8119 961.963 51.5091V95.199L969.054 96.9417V99.586H945.136V96.9417L952.107 95.199V56.6172C952.107 47.122 949.222 42.4345 942.371 42.4345C937.984 42.4345 933.958 44.8985 930.833 49.4057V95.0788L937.924 96.9417V99.586H913.826Z" fill="black"/>
<path d="M990.445 100.848C986.359 100.848 980.83 99.7062 977.164 98.2038L976.503 78.9129H979.027C979.869 90.7518 983.955 96.8816 991.106 96.8816C996.695 96.8816 1000.3 92.6749 1000.3 86.3047C1000.3 81.0163 998.138 77.6509 991.948 73.6845L987.981 71.2206C979.748 66.1124 976.503 60.9441 976.503 52.8913C976.503 41.6533 982.994 35.3432 994.592 35.3432C999.099 35.3432 1003.67 36.1845 1006.07 37.4466V53.9129H1003.85C1002.95 44.2374 999.28 39.2494 992.909 39.2494C987.982 39.2494 984.736 42.8552 984.736 48.5042C984.736 53.4922 987.08 56.6172 993.33 60.3432L997.657 62.9874C1005.23 67.6148 1008.35 72.723 1008.35 81.3167C1008.35 93.2759 1001.5 100.848 990.445 100.848Z" fill="black"/>
<path d="M1040.64 100.848C1026.64 100.848 1017.32 87.9874 1017.32 69.0571C1017.32 49.0451 1027.78 35.3432 1043.17 35.3432C1055.91 35.3432 1062.76 44.7182 1063.06 62.5066L1062.4 63.2278H1027.78C1027.72 63.949 1027.72 64.7302 1027.72 65.5115C1027.72 82.699 1033.19 91.6533 1043.95 91.6533C1050.8 91.6533 1056.51 88.2879 1060.17 82.0379L1061.92 83.4201C1058.55 94.4778 1050.74 100.848 1040.64 100.848ZM1042.2 39.3696C1034.09 39.3696 1029.1 46.6413 1027.96 59.622L1052.06 58.5403C1052.24 57.6389 1052.36 55.6557 1052.36 53.7927C1052.36 44.1773 1048.93 39.3696 1042.2 39.3696Z" fill="black"/>
<path d="M1091.21 100.848C1079.79 100.848 1071.26 87.3264 1071.26 69.1172C1071.26 49.1653 1081.42 35.3432 1096.38 35.3432C1099.69 35.3432 1103.35 36.0042 1106.78 37.3264V11.7855L1099.69 8.36001V6.67732L1115.37 0.847992H1116.51V90.0307L1123.06 91.8937V93.336L1108.22 100.848H1107.44V90.9321L1107.02 90.7518C1103.05 97.4225 1097.46 100.848 1091.21 100.848ZM1095.42 92.9153C1100.17 92.9153 1104.49 90.2711 1106.78 86.0042V52.5908C1106.78 43.997 1103.11 39.3095 1096.44 39.3095C1087.85 39.3095 1082.08 50.3672 1082.08 67.1941C1082.08 83.0595 1087.07 92.9153 1095.42 92.9153Z" fill="black"/>
</svg>
