<svg role="img" width="287" height="101" viewBox="0 0 287 101" fill="none" xmlns="http://www.w3.org/2000/svg">
<title>Louise</title>
<path d="M6.59644 100.2C2.58122 100.2 0 97.3321 0 93.986C0 90.5444 3.34602 88.0588 8.12605 88.9192L30.3054 92.9344C45.0279 86.4336 56.4044 67.2179 63.5744 54.6942C80.8781 24.58 98.9466 1.06223 115.868 0.775434C122.464 0.679829 126.575 4.50386 126.575 10.4311C126.575 26.6832 103.535 47.8109 77.8189 48.7669V45.6121C101.719 44.6561 123.612 24.8668 123.612 10.5267C123.612 6.60706 120.552 3.26104 115.868 3.54784C100.476 4.50386 83.8417 25.536 66.538 55.6502C59.4636 67.9827 48.1827 86.816 34.9898 93.7948L39.7699 94.6552C64.7216 99.1485 82.5033 92.9344 95.1226 78.9767L101.623 71.8067L103.535 73.7187L97.1302 80.6975C84.1285 94.8464 69.5973 99.8177 50.5727 99.9133L6.59644 100.2Z" fill="black"/>
<path d="M99.0721 100.582C91.7109 100.678 91.6153 91.3092 95.9173 81.8448C103.757 64.7322 116.949 51.7306 125.075 51.7306C133.488 51.7306 128.613 67.0267 123.833 75.9175L122.303 78.7855C123.641 78.7855 125.171 78.7855 126.796 78.1163C129.473 77.0647 132.15 74.8659 134.731 71.8067L136.643 73.7187C133.393 77.4471 131.29 79.5503 128.23 80.7931C126.031 81.6536 122.877 82.3228 120.487 81.8448C118.192 85.7644 115.898 89.0148 114.081 91.118C109.779 96.0892 105.573 100.487 99.0721 100.582ZM98.6897 82.4184C95.3437 89.8752 94.0053 97.5233 99.5501 97.7145C103.183 97.8101 107.485 94.2728 112.074 89.0148C114.368 86.338 116.28 83.47 118.001 80.5063C114.273 76.2999 115.707 64.2542 119.244 56.6062C109.301 61.8642 99.9325 79.6459 98.6897 82.4184Z" fill="black"/>
<path d="M157.838 100.582C155.926 100.582 154.205 98.7661 153.632 96.3761C150.764 99.6265 146.079 100.678 143.307 100.582C138.049 100.582 134.99 93.986 139.674 85.7644C144.358 77.5427 149.138 69.3211 154.588 59.9522C156.404 56.893 156.5 54.6942 155.161 54.6942C153.345 54.6942 151.911 56.7018 148.374 60.6214L136.615 73.6231L134.703 71.8067L145.41 59.9522C149.33 55.6502 151.815 51.7306 155.352 51.7306C158.794 51.7306 160.706 55.2678 157.456 60.8126L141.586 88.25C139.292 92.2652 140.152 97.6189 143.976 97.6189C147.322 97.6189 151.433 95.7068 154.492 90.3532L154.683 89.9708L176.863 51.5394L179.348 53.069L158.316 89.4928C155.544 94.2728 156.117 97.6189 158.029 97.6189C160.324 97.6189 161.853 96.4717 165.582 92.2652L184.033 71.8067L185.945 73.7187L168.163 93.6036C164.148 98.0969 161.375 100.582 157.838 100.582Z" fill="black"/>
<path d="M186.1 100.678C179.504 100.678 178.643 92.1696 183.806 83.3744L195.756 62.7246L185.909 73.6231L183.997 71.8067L202.065 51.7306L204.455 52.9734L186.387 84.3304C182.085 91.7872 182.563 97.8101 186.1 97.8101C190.88 97.8101 195.469 91.6916 207.037 78.8811L213.346 71.8067L215.258 73.7187L209.713 79.9327C196.521 94.7508 191.932 100.678 186.1 100.678ZM207.132 37.6773C208.757 35.5741 211.53 35.1917 213.537 36.6257C215.449 38.0597 215.832 40.8321 214.207 42.8397C212.581 44.9429 209.713 45.5165 207.897 44.0825C205.794 42.5529 205.603 39.6849 207.132 37.6773Z" fill="black"/>
<path d="M218.952 100.774C215.319 100.774 210.348 100.296 210.348 96.9496C210.348 93.986 212.929 93.1256 216.275 91.4048C218.857 90.0664 220.864 89.3016 222.012 88.5368C224.784 86.6248 227.27 83.8524 227.27 80.3151C227.27 75.9175 224.88 70.8507 225.071 64.8278C222.107 66.6443 218.952 69.5123 215.224 73.7187L213.503 75.6307L211.591 73.7187L218.665 65.8795C222.107 62.0554 223.063 61.0038 224.21 59.6654C231.094 52.0174 235.874 51.7306 240.462 51.7306C243.713 51.7306 246.39 53.547 246.39 56.3194C246.39 59.3786 243.617 61.195 240.845 61.195C237.116 61.195 233.866 61.195 230.616 62.151C229.66 62.4378 228.704 62.8202 227.748 63.2982L227.652 64.063C227.27 70.2771 229.946 75.2483 229.946 80.3151C229.946 84.0436 227.365 88.1544 223.446 90.7356C222.298 91.5004 221.534 91.8828 218.092 93.508C215.893 94.5596 213.312 95.3244 213.312 96.9496C213.312 98.2881 216.658 98.2881 219.048 98.2881C228.13 98.2881 235.874 90.162 244.286 80.7931L252.317 71.8067L254.229 73.6231L246.007 82.7052C237.116 92.552 228.99 100.774 218.952 100.774Z" fill="black"/>
<path d="M253.484 100.582C248.321 100.582 245.74 96.0893 245.74 91.596C245.74 84.3304 248.417 76.6823 252.528 71.4243C262.757 58.5182 270.692 51.7306 276.428 51.7306C279.678 51.7306 282.642 53.8338 282.546 57.849C282.259 67.2179 264.86 71.0419 254.344 74.0055C250.138 80.0283 248.512 86.9116 248.608 91.118C248.704 94.7508 250.616 97.7145 253.388 97.7145C259.411 97.7145 265.147 93.1256 271.839 85.6688L284.363 71.8067L286.275 73.7187L273.942 87.3896C266.007 96.1848 260.271 100.582 253.484 100.582ZM257.499 70.0859C266.772 67.3135 279.583 63.2026 279.583 57.849C279.583 55.5546 278.053 54.8854 276.619 54.8854C274.133 54.8854 268.588 57.849 257.499 70.0859Z" fill="black"/>
</svg>
