<svg width="438" height="100" viewBox="0 0 438 100" fill="none" xmlns="http://www.w3.org/2000/svg">
<path d="M76.6561 0V98.1183H60.9302L28.941 44.2204C23.2958 34.2742 17.7851 24.0591 12.4087 13.9785C13.0808 26.7473 13.3496 39.2473 13.3496 50.4032V98.1183H0.984009V0H16.5754L47.6238 51.8817C53.6722 62.3656 59.4518 72.9839 65.0969 83.6022C64.5593 71.1022 64.2905 57.7957 64.2905 46.7742V0H76.6561Z" fill="black"/>
<path d="M122.875 26.2097C141.289 26.2097 148.816 34.543 149.756 46.7742C150.025 50.4032 150.16 53.0914 150.16 57.1237V98.1183H138.601L137.929 87.7688C134.031 97.1774 124.891 100 114.676 100C101.369 100 91.692 92.7419 91.692 79.4355C91.692 61.4247 106.88 55.914 133.896 55.914H137.525V52.4194C137.525 43.5484 135.24 37.2312 122.337 37.2312C111.988 37.2312 106.88 40.7258 105.67 49.4624H94.1113C94.7834 35.6183 102.848 26.2097 122.875 26.2097ZM104.461 77.957C104.461 84.9462 109.299 89.1129 118.439 89.1129C128.386 89.1129 137.525 82.7957 137.525 73.2527V66.129C118.036 65.5914 104.461 66.9355 104.461 77.957Z" fill="black"/>
<path d="M196.036 26.2097C215.525 26.2097 224.262 36.2903 225.337 50.9409H212.837C212.165 42.3387 205.982 37.2312 195.767 37.2312C183.67 37.2312 176.144 44.7581 176.144 62.9032C176.144 80.6452 182.73 89.1129 195.498 89.1129C204.638 89.1129 211.627 83.4677 212.837 75.2688H225.337C223.455 90.0538 213.106 100 194.826 100C173.052 100 162.972 86.1559 162.972 63.172C162.972 39.3817 173.59 26.2097 196.036 26.2097Z" fill="black"/>
<path d="M267.953 26.2097C289.458 26.2097 298.733 40.9946 298.733 61.828C298.733 63.3065 298.733 65.3226 298.598 67.3387H248.464C249.539 83.1989 256.26 89.1129 267.953 89.1129C277.227 89.1129 283.276 85.0806 285.292 77.4194H297.792C295.104 91.8011 284.351 100 267.55 100C246.313 100 235.426 87.3656 235.426 63.3065C235.426 39.3817 246.313 26.2097 267.953 26.2097ZM248.598 57.2581H285.829C284.889 42.6075 277.631 37.2312 267.415 37.2312C256.528 37.2312 249.674 42.3387 248.598 57.2581Z" fill="black"/>
<path d="M324.516 79.8387C324.516 89.2473 325.86 90.0538 333.521 89.2473V98.3871C331.236 98.7903 327.473 99.0591 324.919 99.0591C315.914 99.0591 312.554 95.5645 312.15 87.6344C311.882 84.543 311.882 81.8548 311.882 76.7473V0H324.516V79.8387Z" fill="black"/>
<path d="M357.856 79.8387C357.856 89.2473 359.2 90.0538 366.861 89.2473V98.3871C364.576 98.7903 360.813 99.0591 358.259 99.0591C349.253 99.0591 345.893 95.5645 345.49 87.6344C345.221 84.543 345.221 81.8548 345.221 76.7473V0H357.856V79.8387Z" fill="black"/>
<path d="M407.218 26.2097C428.724 26.2097 437.998 40.9946 437.998 61.828C437.998 63.3065 437.998 65.3226 437.863 67.3387H387.729C388.804 83.1989 395.525 89.1129 407.218 89.1129C416.492 89.1129 422.541 85.0806 424.557 77.4194H437.057C434.369 91.8011 423.616 100 406.815 100C385.578 100 374.691 87.3656 374.691 63.3065C374.691 39.3817 385.578 26.2097 407.218 26.2097ZM387.863 57.2581H425.095C424.154 42.6075 416.896 37.2312 406.681 37.2312C395.794 37.2312 388.939 42.3387 387.863 57.2581Z" fill="black"/>
</svg>
