<svg width="349" height="50" viewBox="0 0 349 50" fill="none" xmlns="http://www.w3.org/2000/svg">
<path d="M7.38939 46.7881V4.63576L0.799988 2.74835V1.78808H14.2437L42.3563 40L40.6013 46.8212V4.13907L34.0119 2.74835V1.78808H48.7139V2.74835L42.7867 4.13907V49.8013H41.5285L8.64767 5.36424L9.57482 4.10596V46.7881L16.1642 48.1788V49.1391H1.46224V48.1788L7.38939 46.7881Z" fill="black"/>
<path d="M67.2838 14.5695C69.6017 14.5695 71.6216 15.0552 73.3434 16.0265C75.0653 16.9757 76.434 18.3885 77.4494 20.2649C78.4649 22.1192 79.0719 24.415 79.2706 27.1523H57.3501V25.2318H75.6282L73.0454 26.5563C72.8247 24.1722 72.4273 22.2185 71.8534 20.6954C71.3015 19.1722 70.562 18.0464 69.6348 17.3179C68.7298 16.5673 67.615 16.1921 66.2905 16.1921C64.5024 16.1921 62.9682 16.7108 61.6878 17.7483C60.4075 18.7859 59.4251 20.298 58.7408 22.2848C58.0565 24.2494 57.7143 26.6336 57.7143 29.4371C57.7143 33.1236 58.1889 36.1258 59.1381 38.4437C60.1094 40.7395 61.5112 42.4172 63.3434 43.4768C65.1757 44.5364 67.4052 45.0662 70.0322 45.0662C71.2463 45.0662 72.4384 44.9007 73.6083 44.5695C74.7783 44.2384 75.871 43.7417 76.8865 43.0795C77.924 42.4172 78.807 41.5894 79.5355 40.596L80.0653 40.9603C78.6966 43.1457 77.317 44.8896 75.9262 46.1921C74.5576 47.4724 73.1117 48.3996 71.5885 48.9735C70.0874 49.5254 68.4428 49.8013 66.6547 49.8013C63.7849 49.8013 61.1911 49.1611 58.8732 47.8808C56.5774 46.5784 54.7562 44.6689 53.4097 42.1523C52.0852 39.6137 51.4229 36.4901 51.4229 32.7815C51.4229 29.4923 52.041 26.468 53.2772 23.7086C54.5355 20.9492 56.3457 18.7417 58.7077 17.0861C61.0918 15.4084 63.9505 14.5695 67.2838 14.5695Z" fill="black"/>
<path d="M126.183 17.3179L121.249 16.3245V15.2318H133.269V16.3245L128.997 17.2848L119.428 50H118.567L105.554 22.6821H107.507L96.1828 50H95.3219L85.1232 17.5828L80.8848 16.3245V15.2318H96.4809V16.3245L91.6795 17.5166L99.0305 41.9868L97.5073 43.245L107.772 14.2384H108.799L121.58 41.4901L119.958 43.245L126.183 17.3179Z" fill="black"/>
<path d="M147.603 14.5695C149.104 14.5695 150.461 14.7351 151.675 15.0662C152.89 15.3753 154.137 15.8499 155.417 16.4901L156.444 25.5629H155.417L151.146 16.5232L153.728 19.5033C152.536 18.223 151.433 17.3289 150.417 16.8212C149.424 16.2914 148.21 16.0265 146.775 16.0265C144.854 16.0265 143.364 16.468 142.305 17.351C141.245 18.234 140.715 19.5143 140.715 21.1921C140.715 22.0971 140.892 22.936 141.245 23.7086C141.598 24.4812 142.327 25.2539 143.43 26.0265C144.556 26.777 146.278 27.6049 148.596 28.5099C150.318 29.1722 151.742 29.8896 152.867 30.6623C154.015 31.4349 154.909 32.2627 155.55 33.1457C156.212 34.0066 156.675 34.9448 156.94 35.9603C157.205 36.9536 157.338 38.0243 157.338 39.1722C157.338 41.2693 156.753 43.1236 155.583 44.7351C154.435 46.3245 152.912 47.5717 151.013 48.4768C149.115 49.3598 147.029 49.8013 144.755 49.8013C143.077 49.8013 141.565 49.6358 140.218 49.3046C138.872 48.9735 137.58 48.4768 136.344 47.8146L134.457 37.3841H135.616L141.112 48.1457L139.457 46.3907C140.031 46.8102 140.627 47.1634 141.245 47.4503C141.885 47.7152 142.536 47.9249 143.199 48.0795C143.883 48.2119 144.567 48.2781 145.252 48.2781C147.106 48.2781 148.784 47.7373 150.285 46.6556C151.786 45.5519 152.536 43.8962 152.536 41.6887C152.536 40.8499 152.404 40.0773 152.139 39.3709C151.874 38.6645 151.433 38.0022 150.814 37.3841C150.196 36.7439 149.358 36.1258 148.298 35.5298C147.238 34.9338 145.903 34.3377 144.291 33.7417C142.15 32.9249 140.472 32.0199 139.258 31.0265C138.044 30.0331 137.183 28.9294 136.675 27.7152C136.19 26.5011 135.947 25.1656 135.947 23.7086C135.947 21.7439 136.488 20.0883 137.569 18.7417C138.651 17.3731 140.075 16.3355 141.841 15.6291C143.607 14.9227 145.527 14.5695 147.603 14.5695Z" fill="black"/>
<path d="M182.698 14.6358C183.67 14.6358 184.442 14.9117 185.016 15.4636C185.59 16.0155 185.877 16.777 185.877 17.7483C185.877 18.9183 185.513 19.8675 184.784 20.596C184.078 21.3024 183.173 21.6556 182.069 21.6556C181.583 21.6556 181.087 21.6004 180.579 21.4901C180.093 21.3576 179.575 21.2362 179.023 21.1258C178.471 20.9934 177.853 20.9272 177.168 20.9272C176.528 20.9272 175.921 21.0486 175.347 21.2914C174.773 21.5121 174.21 21.8212 173.659 22.2185C173.107 22.6159 172.533 23.0905 171.937 23.6424V22.1854C173.592 20.4415 174.983 19.0618 176.109 18.0464C177.257 17.0309 178.217 16.2804 178.99 15.7947C179.762 15.3091 180.436 15 181.01 14.8675C181.583 14.713 182.146 14.6358 182.698 14.6358ZM172.334 47.2517L177.731 48.245V49.1391H161.506V48.245L166.241 47.2517V20.7947C165.954 20.6181 165.601 20.3974 165.182 20.1324C164.762 19.8675 164.244 19.5475 163.625 19.1722C163.029 18.7748 162.323 18.3223 161.506 17.8146V17.2185L172.202 14.2053H172.334V47.2517Z" fill="black"/>
<path d="M203.421 14.5695C205.738 14.5695 207.758 15.0552 209.48 16.0265C211.202 16.9757 212.571 18.3885 213.586 20.2649C214.602 22.1192 215.209 24.415 215.407 27.1523H193.487V25.2318H211.765L209.182 26.5563C208.961 24.1722 208.564 22.2185 207.99 20.6954C207.438 19.1722 206.699 18.0464 205.772 17.3179C204.866 16.5673 203.752 16.1921 202.427 16.1921C200.639 16.1921 199.105 16.7108 197.824 17.7483C196.544 18.7859 195.562 20.298 194.877 22.2848C194.193 24.2494 193.851 26.6336 193.851 29.4371C193.851 33.1236 194.326 36.1258 195.275 38.4437C196.246 40.7395 197.648 42.4172 199.48 43.4768C201.312 44.5364 203.542 45.0662 206.169 45.0662C207.383 45.0662 208.575 44.9007 209.745 44.5695C210.915 44.2384 212.008 43.7417 213.023 43.0795C214.061 42.4172 214.944 41.5894 215.672 40.596L216.202 40.9603C214.833 43.1457 213.454 44.8896 212.063 46.1921C210.694 47.4724 209.248 48.3996 207.725 48.9735C206.224 49.5254 204.579 49.8013 202.791 49.8013C199.922 49.8013 197.328 49.1611 195.01 47.8808C192.714 46.5784 190.893 44.6689 189.546 42.1523C188.222 39.6137 187.56 36.4901 187.56 32.7815C187.56 29.4923 188.178 26.468 189.414 23.7086C190.672 20.9492 192.482 18.7417 194.844 17.0861C197.228 15.4084 200.087 14.5695 203.421 14.5695Z" fill="black"/>
<path d="M241.08 27.0861L241.445 28.4768C238.332 29.4481 235.804 30.3753 233.862 31.2583C231.941 32.1413 230.473 33.0243 229.458 33.9073C228.442 34.7903 227.747 35.7174 227.372 36.6887C226.997 37.66 226.809 38.7307 226.809 39.9007C226.809 41.7991 227.361 43.234 228.464 44.2053C229.568 45.1545 230.915 45.6291 232.504 45.6291C233.785 45.6291 234.899 45.3863 235.849 44.9007C236.798 44.3929 237.537 43.6645 238.067 42.7152C238.619 41.7439 238.895 40.5629 238.895 39.1722V23.9735C238.895 21.6998 238.332 19.9779 237.206 18.8079C236.102 17.638 234.414 17.053 232.14 17.053C231.058 17.053 229.966 17.1413 228.862 17.3179C227.78 17.4724 226.93 17.7042 226.312 18.0132L228.067 16.6887C228.001 17.5055 227.891 18.3554 227.736 19.2384C227.604 20.0993 227.427 20.883 227.206 21.5894C227.008 22.2958 226.765 22.8256 226.478 23.1788C226.191 23.532 225.749 23.8079 225.153 24.0066C224.579 24.2053 223.983 24.3046 223.365 24.3046C222.57 24.3046 221.93 24.1501 221.445 23.8411C220.981 23.5099 220.749 23.0022 220.749 22.3179C220.749 21.3907 221.191 20.4746 222.074 19.5695C222.957 18.6424 224.094 17.8035 225.484 17.053C226.897 16.3024 228.409 15.7064 230.021 15.2649C231.654 14.8013 233.211 14.5695 234.69 14.5695C237.184 14.5695 239.182 14.9338 240.683 15.6623C242.184 16.3907 243.277 17.4172 243.961 18.7417C244.646 20.0441 244.988 21.5784 244.988 23.3444V42.9801C244.988 43.7086 245.098 44.2936 245.319 44.7351C245.562 45.1766 245.893 45.4967 246.312 45.6954C246.732 45.894 247.206 45.9934 247.736 45.9934C248.487 45.9934 249.226 45.872 249.955 45.6291C250.705 45.3863 251.478 44.989 252.272 44.4371V45.3311C250.639 47.2737 249.193 48.5099 247.935 49.0397C246.676 49.5475 245.385 49.8013 244.061 49.8013C242.758 49.8013 241.732 49.5143 240.981 48.9404C240.231 48.3444 239.69 47.4945 239.359 46.3907C239.049 45.287 238.862 43.9625 238.796 42.4172H238.895C238.52 43.83 237.913 45.0993 237.074 46.2252C236.235 47.3289 235.219 48.2009 234.027 48.8411C232.835 49.4812 231.522 49.8013 230.087 49.8013C227.35 49.8013 225.065 49.0728 223.233 47.6159C221.4 46.1589 220.484 44.0397 220.484 41.2583C220.484 39.8013 220.727 38.521 221.213 37.4172C221.721 36.2914 222.681 35.2207 224.094 34.2053C225.529 33.1898 227.604 32.1192 230.319 30.9934C233.056 29.8675 236.643 28.5651 241.08 27.0861Z" fill="black"/>
<path d="M278.299 23.6093C278.299 21.4459 277.504 19.6689 275.915 18.2781C274.325 16.8653 272.361 16.1589 270.021 16.1589C267.857 16.1589 266.014 16.7439 264.491 17.9139C262.968 19.0618 261.809 20.7506 261.014 22.9801C260.219 25.2097 259.822 27.947 259.822 31.1921C259.822 34.3488 260.208 36.9757 260.981 39.0728C261.754 41.1479 262.913 42.7042 264.458 43.7417C266.003 44.7572 267.946 45.2649 270.286 45.2649C272.162 45.2649 273.895 44.9448 275.484 44.3046C277.096 43.6645 278.641 42.5607 280.12 40.9934L280.617 41.6556C279.226 43.223 277.935 44.5364 276.743 45.596C275.551 46.6336 274.425 47.4614 273.365 48.0795C272.306 48.6976 271.29 49.1391 270.319 49.404C269.348 49.6689 268.409 49.8013 267.504 49.8013C264.612 49.8013 262.107 49.1391 259.988 47.8146C257.868 46.468 256.224 44.6026 255.054 42.2185C253.906 39.8124 253.332 37.0199 253.332 33.8411C253.332 30.7947 253.774 28.0795 254.657 25.6954C255.54 23.3113 256.787 21.2914 258.398 19.6358C260.01 17.9801 261.919 16.7219 264.127 15.8609C266.334 15 268.763 14.5695 271.412 14.5695C272.714 14.5695 274.027 14.6689 275.352 14.8675C276.676 15.0441 277.968 15.3311 279.226 15.7285C280.506 16.1258 281.676 16.6336 282.736 17.2517L278.299 18.1788V5.59603C278.034 5.48565 277.593 5.28698 276.974 5C276.356 4.71302 275.683 4.40397 274.955 4.07285C274.226 3.74172 273.542 3.43267 272.902 3.1457V2.54967L284.756 0H284.855L284.392 5.13245V45.7947C284.59 45.883 284.91 46.0155 285.352 46.1921C285.793 46.3687 286.279 46.5673 286.809 46.7881C287.339 46.9868 287.857 47.1965 288.365 47.4172C288.873 47.6159 289.303 47.7815 289.657 47.9139V48.6424L278.464 50H278.299V23.6093Z" fill="black"/>
<path d="M308.579 14.5695C310.897 14.5695 312.917 15.0552 314.638 16.0265C316.36 16.9757 317.729 18.3885 318.744 20.2649C319.76 22.1192 320.367 24.415 320.566 27.1523H298.645V25.2318H316.923L314.34 26.5563C314.12 24.1722 313.722 22.2185 313.148 20.6954C312.597 19.1722 311.857 18.0464 310.93 17.3179C310.025 16.5673 308.91 16.1921 307.585 16.1921C305.797 16.1921 304.263 16.7108 302.983 17.7483C301.702 18.7859 300.72 20.298 300.036 22.2848C299.351 24.2494 299.009 26.6336 299.009 29.4371C299.009 33.1236 299.484 36.1258 300.433 38.4437C301.404 40.7395 302.806 42.4172 304.638 43.4768C306.471 44.5364 308.7 45.0662 311.327 45.0662C312.541 45.0662 313.733 44.9007 314.903 44.5695C316.073 44.2384 317.166 43.7417 318.181 43.0795C319.219 42.4172 320.102 41.5894 320.83 40.596L321.36 40.9603C319.992 43.1457 318.612 44.8896 317.221 46.1921C315.853 47.4724 314.407 48.3996 312.883 48.9735C311.382 49.5254 309.738 49.8013 307.95 49.8013C305.08 49.8013 302.486 49.1611 300.168 47.8808C297.872 46.5784 296.051 44.6689 294.705 42.1523C293.38 39.6137 292.718 36.4901 292.718 32.7815C292.718 29.4923 293.336 26.468 294.572 23.7086C295.83 20.9492 297.641 18.7417 300.003 17.0861C302.387 15.4084 305.245 14.5695 308.579 14.5695Z" fill="black"/>
<path d="M345.61 14.6358C346.581 14.6358 347.353 14.9117 347.927 15.4636C348.501 16.0155 348.788 16.777 348.788 17.7483C348.788 18.9183 348.424 19.8675 347.696 20.596C346.989 21.3024 346.084 21.6556 344.98 21.6556C344.495 21.6556 343.998 21.6004 343.49 21.4901C343.005 21.3576 342.486 21.2362 341.934 21.1258C341.382 20.9934 340.764 20.9272 340.08 20.9272C339.44 20.9272 338.833 21.0486 338.259 21.2914C337.685 21.5121 337.122 21.8212 336.57 22.2185C336.018 22.6159 335.444 23.0905 334.848 23.6424V22.1854C336.504 20.4415 337.894 19.0618 339.02 18.0464C340.168 17.0309 341.128 16.2804 341.901 15.7947C342.674 15.3091 343.347 15 343.921 14.8675C344.495 14.713 345.058 14.6358 345.61 14.6358ZM335.245 47.2517L340.643 48.245V49.1391H324.417V48.245L329.153 47.2517V20.7947C328.866 20.6181 328.512 20.3974 328.093 20.1324C327.674 19.8675 327.155 19.5475 326.537 19.1722C325.941 18.7748 325.234 18.3223 324.417 17.8146V17.2185L335.113 14.2053H335.245V47.2517Z" fill="black"/>
</svg>
