<svg width="797" height="100" viewBox="0 0 797 100" fill="none" xmlns="http://www.w3.org/2000/svg">
<path d="M71.2213 97.8437H62.8655L61.2482 84.097C57.2051 94.3396 48.9841 100 37.1242 100C14.7523 100 0.736084 80.7278 0.736084 50.1348C0.736084 19.2722 14.7523 0 37.1242 0C53.162 0 66.5043 12.3989 70.6822 30.1887L58.9571 30.9973C55.7226 19.1375 47.3668 11.0512 37.1242 11.0512C21.356 11.0512 12.5959 25.2022 12.5959 50.1348C12.5959 74.9326 21.356 88.9488 37.1242 88.9488C49.7927 88.9488 59.2267 76.6846 60.17 60.6469H37.1242V49.5957H71.2213V97.8437Z" fill="black"/>
<path d="M85.5891 62.1294C85.5891 39.4879 98.3923 24.7978 118.204 24.7978C134.107 24.7978 147.988 35.4447 149.066 60.6469L149.201 65.6334H97.3142C98.2576 80.3234 105.805 88.9488 118.204 88.9488C125.886 88.9488 133.028 84.3666 136.263 76.8194L148.123 77.628C143.945 91.1051 131.816 99.4609 118.204 99.4609C98.3923 99.4609 85.5891 84.7709 85.5891 62.1294ZM97.5837 55.7951H137.206C135.185 40.7008 127.099 35.31 118.204 35.31C106.748 35.31 99.3357 42.8571 97.5837 55.7951Z" fill="black"/>
<path d="M208.043 26.4151V88.0054H229.876V97.8437H171.251V88.0054H196.992V36.2534H171.251V26.4151H208.043ZM195.51 15.6334V2.15633H208.043V15.6334H195.51Z" fill="black"/>
<path d="M296.265 48.3827C294.648 40.1617 286.832 35.31 277.667 35.31C269.985 35.31 263.112 39.2183 263.112 46.6307C263.112 54.4474 272.141 56.1995 280.363 58.4906C293.974 61.8598 307.856 66.1725 307.856 79.6496C307.856 93.531 294.244 99.4609 280.093 99.4609C263.651 99.4609 250.309 90.1617 249.23 75.4717L260.686 74.6631C262.034 83.2884 269.985 88.9488 280.093 88.9488C288.044 88.9488 296.265 86.7925 296.265 79.1105C296.265 71.0243 286.023 69.9461 278.341 68.0593C265.133 64.8248 251.522 60.2426 251.522 47.3046C251.522 32.8841 264.19 24.7978 278.88 24.7978C293.705 24.7978 305.026 33.8275 307.317 47.5741L296.265 48.3827Z" fill="black"/>
<path d="M348.1 7.54717H359.151V26.4151H386.509V36.2534H359.151V78.4367C359.151 84.3666 362.52 88.0054 368.45 88.0054H386.24V97.8437H368.45C354.164 97.8437 348.1 90.1617 348.1 78.3019V36.2534H328.962V26.4151H348.1V7.54717Z" fill="black"/>
<path d="M489.234 2.15633H507.428L521.04 71.9677L534.652 2.15633H552.846V97.8437H541.525V14.4205L526.027 91.1051H516.054L500.555 14.2857V97.8437H489.234V2.15633Z" fill="black"/>
<path d="M601.85 99.4609C582.039 99.4609 569.235 84.7709 569.235 62.1294C569.235 39.4879 582.039 24.7978 601.85 24.7978C621.661 24.7978 634.465 39.4879 634.465 62.1294C634.465 84.7709 621.661 99.4609 601.85 99.4609ZM580.826 62.1294C580.826 78.841 588.643 88.9488 601.85 88.9488C615.192 88.9488 622.874 78.841 622.874 62.1294C622.874 45.4178 615.192 35.31 601.85 35.31C588.643 35.31 580.826 45.4178 580.826 62.1294Z" fill="black"/>
<path d="M655.167 26.4151H665.274L665.544 38.9488C669.183 29.1105 677.673 24.7978 687.646 24.7978C703.819 24.7978 711.77 36.7925 711.77 51.8868V97.8437H700.719V55.1213C700.719 41.9137 696.272 34.6361 685.355 34.6361C673.765 34.6361 666.218 41.9137 666.218 55.1213V97.8437H655.167V26.4151Z" fill="black"/>
<path d="M763.47 99.4609C743.659 99.4609 730.855 84.7709 730.855 62.1294C730.855 39.4879 743.659 24.7978 763.47 24.7978C783.281 24.7978 796.084 39.4879 796.084 62.1294C796.084 84.7709 783.281 99.4609 763.47 99.4609ZM742.446 62.1294C742.446 78.841 750.262 88.9488 763.47 88.9488C776.812 88.9488 784.494 78.841 784.494 62.1294C784.494 45.4178 776.812 35.31 763.47 35.31C750.262 35.31 742.446 45.4178 742.446 62.1294Z" fill="black"/>
</svg>
